<svg width="268" height="37" viewBox="0 0 268 37" fill="none" xmlns="http://www.w3.org/2000/svg">
<path d="M22.644 27.081C22.644 28.951 22.066 30.6 20.91 32.028C19.788 33.422 18.292 34.51 16.422 35.292C14.586 36.074 12.597 36.465 10.455 36.465C8.99301 36.465 7.61601 36.295 6.32401 35.955C5.06601 35.615 4.04601 35.275 3.26401 34.935L3.67201 35.955C3.77401 36.193 3.68901 36.397 3.41701 36.567C3.14501 36.737 2.85601 36.822 2.55001 36.822C2.27801 36.822 2.09101 36.737 1.98901 36.567C1.71701 35.819 1.42801 34.901 1.12201 33.813C0.850007 32.691 0.612007 31.535 0.408007 30.345C0.204007 29.121 0.068007 27.999 7.15256e-06 26.979C7.15256e-06 26.809 0.0850071 26.69 0.255007 26.622C0.425007 26.52 0.629007 26.469 0.867007 26.469C1.03701 26.469 1.20701 26.503 1.37701 26.571C1.54701 26.605 1.64901 26.69 1.68301 26.826C1.88701 27.472 2.21001 28.237 2.65201 29.121C3.12801 29.971 3.74001 30.821 4.48801 31.671C5.23601 32.487 6.13701 33.167 7.19101 33.711C8.27901 34.255 9.50301 34.527 10.863 34.527C12.971 34.527 14.569 33.966 15.657 32.844C16.745 31.688 17.289 30.43 17.289 29.07C17.289 27.438 16.915 26.061 16.167 24.939C15.419 23.817 14.433 22.848 13.209 22.032C12.019 21.216 10.761 20.434 9.43501 19.686C8.10901 18.938 6.83401 18.139 5.61001 17.289C4.42001 16.439 3.45101 15.419 2.70301 14.229C1.95501 13.005 1.58101 11.526 1.58101 9.792C1.58101 8.16 2.07401 6.681 3.06001 5.355C4.08001 3.995 5.47401 2.924 7.24201 2.142C9.01001 1.326 11.033 0.918001 13.311 0.918001C14.705 0.918001 15.861 1.054 16.779 1.326C17.731 1.564 18.207 1.683 18.207 1.683C18.173 1.581 18.122 1.377 18.054 1.071C18.02 0.764999 18.003 0.577999 18.003 0.51C17.969 0.340001 18.037 0.221 18.207 0.152999C18.377 0.0510002 18.564 8.34465e-07 18.768 8.34465e-07C19.176 8.34465e-07 19.431 0.136001 19.533 0.408002C19.941 1.836 20.264 3.281 20.502 4.743C20.74 6.205 20.876 7.463 20.91 8.517C20.876 8.619 20.74 8.704 20.502 8.772C20.298 8.806 20.077 8.823 19.839 8.823C19.533 8.823 19.329 8.772 19.227 8.67C18.989 7.82 18.649 6.953 18.207 6.069C17.765 5.185 17.102 4.437 16.218 3.825C15.334 3.179 14.11 2.856 12.546 2.856C10.982 2.856 9.77501 3.145 8.92501 3.723C8.07501 4.267 7.48001 4.964 7.14001 5.814C6.83401 6.63 6.68101 7.446 6.68101 8.262C6.68101 9.622 7.05501 10.778 7.80301 11.73C8.58501 12.682 9.58801 13.532 10.812 14.28C12.036 15.028 13.311 15.776 14.637 16.524C15.997 17.272 17.289 18.105 18.513 19.023C19.737 19.941 20.723 21.046 21.471 22.338C22.253 23.63 22.644 25.211 22.644 27.081ZM27.1364 24.378C27.1364 22.27 27.5274 20.383 28.3094 18.717C29.1254 17.017 30.2304 15.572 31.6244 14.382C33.0184 13.158 34.5994 12.223 36.3674 11.577C38.1694 10.931 40.0394 10.608 41.9774 10.608C43.1334 10.608 44.1874 10.761 45.1394 11.067C46.1254 11.339 47.0094 11.679 47.7914 12.087V11.22C47.7914 10.982 47.9954 10.863 48.4034 10.863C48.5394 10.863 48.6754 10.897 48.8114 10.965C48.9814 10.999 49.0664 11.084 49.0664 11.22C49.0664 12.138 49.1174 13.26 49.2194 14.586C49.3214 15.912 49.4404 17.017 49.5764 17.901C49.6104 18.037 49.5424 18.139 49.3724 18.207C49.2364 18.275 49.0834 18.309 48.9134 18.309C48.7774 18.309 48.6244 18.275 48.4544 18.207C48.2844 18.139 48.1824 18.037 48.1484 17.901L47.7404 15.198C46.7204 14.212 45.6834 13.515 44.6294 13.107C43.5754 12.699 42.4194 12.495 41.1614 12.495C39.5634 12.495 38.0844 12.971 36.7244 13.923C35.3644 14.875 34.2764 16.184 33.4604 17.85C32.6444 19.482 32.2364 21.369 32.2364 23.511C32.2364 25.653 32.6614 27.557 33.5114 29.223C34.3954 30.889 35.5514 32.198 36.9794 33.15C38.4074 34.102 39.9884 34.578 41.7224 34.578C42.9804 34.578 44.1364 34.408 45.1904 34.068C46.2784 33.694 47.3834 33.133 48.5054 32.385L48.7604 29.478C48.7604 29.206 48.9814 29.07 49.4234 29.07C49.5594 29.07 49.7294 29.104 49.9334 29.172C50.1374 29.206 50.2224 29.308 50.1884 29.478C50.0864 29.988 50.0184 30.634 49.9844 31.416C49.9504 32.198 49.9164 32.997 49.8824 33.813C49.8824 34.595 49.8824 35.292 49.8824 35.904C49.8824 36.006 49.7804 36.074 49.5764 36.108C49.4064 36.176 49.2534 36.21 49.1174 36.21C48.7094 36.21 48.5054 36.108 48.5054 35.904V35.037C46.1594 35.989 43.8304 36.465 41.5184 36.465C38.7984 36.465 36.3504 35.972 34.1744 34.986C31.9984 34 30.2814 32.606 29.0234 30.804C27.7654 29.002 27.1364 26.86 27.1364 24.378ZM61.6323 30.855C61.6323 31.977 61.7343 32.827 61.9383 33.405C62.1423 33.949 62.3803 34.221 62.6523 34.221H64.7943C64.9303 34.221 65.0323 34.323 65.1003 34.527C65.1683 34.731 65.2023 34.918 65.2023 35.088C65.2023 35.258 65.1683 35.428 65.1003 35.598C65.0663 35.734 65.0153 35.802 64.9473 35.802H59.7453C58.7933 35.802 58.0283 35.802 57.4503 35.802C56.9063 35.836 56.3963 35.853 55.9203 35.853C55.4783 35.887 54.9343 35.904 54.2883 35.904C54.1863 35.904 54.1013 35.819 54.0333 35.649C53.9653 35.445 53.9313 35.275 53.9313 35.139C53.9313 34.969 53.9483 34.799 53.9823 34.629C54.0503 34.459 54.1183 34.374 54.1863 34.374H56.6853C57.0933 34.374 57.2973 34.085 57.2973 33.507V16.779C57.2973 14.093 56.9233 12.75 56.1753 12.75H54.3903C54.0163 12.75 53.8293 12.495 53.8293 11.985C53.8293 11.781 53.8633 11.594 53.9313 11.424C54.0333 11.254 54.1523 11.169 54.2883 11.169C54.2883 11.169 54.7303 11.186 55.6143 11.22C56.4983 11.22 57.6373 11.237 59.0313 11.271C60.4593 11.271 61.9553 11.271 63.5193 11.271C66.8513 11.271 69.3503 11.968 71.0163 13.362C72.7163 14.756 73.5663 16.439 73.5663 18.411C73.5663 19.669 73.2263 20.774 72.5463 21.726C71.9003 22.678 71.0333 23.443 69.9453 24.021C68.8573 24.565 67.6843 24.888 66.4263 24.99C67.1063 25.432 67.7183 26.01 68.2623 26.724C68.8403 27.404 69.4863 28.186 70.2003 29.07C70.9483 29.92 71.8493 30.804 72.9033 31.722C73.9913 32.64 75.3853 33.541 77.0853 34.425C76.8133 34.969 76.4053 35.445 75.8613 35.853C75.3173 36.261 74.6543 36.465 73.8723 36.465C72.7163 36.465 71.7133 36.142 70.8633 35.496C70.0473 34.85 69.3333 34.034 68.7213 33.048C68.1093 32.062 67.5483 31.042 67.0383 29.988C66.5623 28.9 66.0693 27.914 65.5593 27.03C65.0833 26.146 64.5563 25.5 63.9783 25.092L61.6323 24.939V30.855ZM62.6523 12.801C61.9723 12.801 61.6323 13.362 61.6323 14.484V22.95C62.1083 23.052 62.5843 23.103 63.0603 23.103C64.0123 23.103 64.9133 22.933 65.7633 22.593C66.6473 22.219 67.3613 21.675 67.9053 20.961C68.4493 20.213 68.7213 19.312 68.7213 18.258C68.7213 17.476 68.5173 16.66 68.1093 15.81C67.7353 14.96 67.1063 14.246 66.2223 13.668C65.3383 13.09 64.1483 12.801 62.6523 12.801ZM101.922 14.331C101.888 14.875 101.803 16.252 101.667 18.462C101.565 20.672 101.514 23.392 101.514 26.622C101.514 28.798 101.038 30.617 100.086 32.079C99.1343 33.507 97.9103 34.595 96.4143 35.343C94.9183 36.091 93.3373 36.465 91.6713 36.465C90.0733 36.465 88.5093 36.125 86.9793 35.445C85.4493 34.765 84.1913 33.728 83.2053 32.334C82.2193 30.94 81.7263 29.206 81.7263 27.132V16.524C81.7263 15.096 81.6243 14.11 81.4203 13.566C81.2163 13.022 80.9443 12.75 80.6043 12.75H78.8193C78.6833 12.75 78.5813 12.665 78.5133 12.495C78.4453 12.325 78.4113 12.138 78.4113 11.934C78.4113 11.424 78.5473 11.169 78.8193 11.169C79.6013 11.169 80.4343 11.186 81.3183 11.22C82.2023 11.254 83.0183 11.271 83.7663 11.271C85.3303 11.271 86.4693 11.254 87.1833 11.22C87.8973 11.186 88.5433 11.169 89.1213 11.169C89.3933 11.169 89.5293 11.458 89.5293 12.036C89.5293 12.512 89.3933 12.75 89.1213 12.75H87.5403C86.9283 12.75 86.5203 12.869 86.3163 13.107C86.1463 13.345 86.0613 13.787 86.0613 14.433V26.112C86.0613 28.832 86.6903 30.77 87.9483 31.926C89.2403 33.082 90.8383 33.66 92.7423 33.66C94.6463 33.66 96.1593 32.997 97.2813 31.671C98.4373 30.345 99.0153 28.237 99.0153 25.347C99.0153 23.443 98.9983 21.964 98.9643 20.91C98.9643 19.822 98.9473 18.938 98.9133 18.258C98.9133 17.544 98.8963 16.813 98.8623 16.065C98.8283 14.637 98.7263 13.736 98.5563 13.362C98.3863 12.954 98.2163 12.75 98.0463 12.75H96.0063C95.8023 12.75 95.7003 12.461 95.7003 11.883C95.7003 11.713 95.7173 11.56 95.7513 11.424C95.7853 11.288 95.8703 11.22 96.0063 11.22C96.7543 11.22 97.4683 11.237 98.1483 11.271C98.8623 11.271 99.5933 11.271 100.341 11.271C101.395 11.271 102.143 11.271 102.585 11.271C103.027 11.237 103.367 11.22 103.605 11.22C103.843 11.186 104.149 11.169 104.523 11.169C104.659 11.169 104.744 11.237 104.778 11.373C104.846 11.509 104.88 11.662 104.88 11.832C104.88 12.376 104.761 12.648 104.523 12.648H103.452C102.806 12.648 102.398 12.767 102.228 13.005C102.092 13.243 101.99 13.685 101.922 14.331ZM136.503 12.648C135.857 12.648 135.501 12.971 135.433 13.617C135.364 14.229 135.398 15.198 135.534 16.524C135.704 18.258 135.874 20.128 136.044 22.134C136.249 24.106 136.436 25.976 136.606 27.744C136.81 29.512 136.98 30.957 137.116 32.079C137.183 32.589 137.285 33.082 137.421 33.558C137.558 34 137.745 34.221 137.983 34.221H140.227C140.363 34.221 140.465 34.323 140.533 34.527C140.635 34.697 140.686 34.884 140.686 35.088C140.686 35.564 140.549 35.802 140.277 35.802C139.904 35.802 139.377 35.802 138.697 35.802C138.017 35.768 137.353 35.751 136.707 35.751C136.095 35.751 135.619 35.751 135.279 35.751C134.872 35.751 134.294 35.768 133.546 35.802C132.832 35.802 132.134 35.819 131.455 35.853C130.809 35.887 130.367 35.904 130.129 35.904C129.993 35.904 129.891 35.819 129.823 35.649C129.789 35.445 129.772 35.275 129.772 35.139C129.772 34.629 129.874 34.374 130.078 34.374H131.659C132.577 34.374 133.002 33.983 132.933 33.201C132.9 32.793 132.849 32.096 132.781 31.11C132.713 30.124 132.628 28.985 132.526 27.693C132.424 26.401 132.322 25.075 132.219 23.715C132.118 22.355 132.033 21.097 131.965 19.941C131.897 18.751 131.846 17.782 131.811 17.034H131.608C130.894 18.564 130.129 20.247 129.313 22.083C128.497 23.919 127.697 25.721 126.915 27.489C126.168 29.257 125.505 30.821 124.926 32.181C124.382 33.541 123.991 34.527 123.753 35.139C123.618 35.445 123.278 35.598 122.734 35.598C122.223 35.598 121.9 35.428 121.765 35.088C121.424 34.204 120.948 33.048 120.336 31.62C119.758 30.158 119.112 28.56 118.398 26.826C117.718 25.092 117.021 23.341 116.307 21.573C115.593 19.805 114.93 18.156 114.318 16.626H114.165C113.655 23.664 113.4 28.424 113.4 30.906C113.366 32.198 113.434 33.082 113.604 33.558C113.774 34 114.012 34.221 114.318 34.221H115.899C116.069 34.221 116.188 34.323 116.256 34.527C116.358 34.697 116.409 34.867 116.409 35.037C116.409 35.547 116.239 35.802 115.899 35.802C115.015 35.802 114.267 35.802 113.655 35.802C113.043 35.768 112.431 35.751 111.819 35.751C110.867 35.751 109.915 35.768 108.963 35.802C108.011 35.87 107.331 35.904 106.923 35.904C106.821 35.904 106.736 35.819 106.668 35.649C106.634 35.445 106.617 35.275 106.617 35.139C106.617 34.969 106.634 34.799 106.668 34.629C106.736 34.459 106.838 34.374 106.974 34.374H108.198C108.776 34.374 109.201 34.323 109.473 34.221C109.779 34.119 109.983 33.83 110.085 33.354C110.187 32.776 110.306 31.875 110.442 30.651C110.612 29.427 110.782 28.05 110.952 26.52C111.122 24.99 111.275 23.494 111.411 22.032C111.581 20.536 111.717 19.244 111.819 18.156C111.921 17.034 111.972 16.303 111.972 15.963C111.972 14.671 111.887 13.821 111.717 13.413C111.581 12.971 111.309 12.75 110.901 12.75H109.473C109.269 12.75 109.167 12.478 109.167 11.934C109.167 11.424 109.269 11.169 109.473 11.169C110.425 11.169 111.241 11.203 111.921 11.271C112.635 11.305 113.451 11.322 114.369 11.322H116.766C117.242 12.648 117.769 14.144 118.347 15.81C118.959 17.442 119.571 19.108 120.183 20.808C120.795 22.474 121.39 24.089 121.968 25.653C122.547 27.217 123.057 28.594 123.498 29.784H123.703C124.416 28.22 125.148 26.537 125.896 24.735C126.678 22.899 127.409 21.097 128.088 19.329C128.769 17.561 129.364 15.98 129.873 14.586C130.418 13.158 130.826 12.07 131.097 11.322C131.505 11.322 132.118 11.305 132.933 11.271C133.784 11.237 134.651 11.22 135.534 11.22C136.453 11.186 137.201 11.169 137.779 11.169C137.915 11.169 138.017 11.254 138.085 11.424C138.153 11.56 138.187 11.713 138.187 11.883C138.187 12.053 138.153 12.223 138.085 12.393C138.017 12.563 137.915 12.648 137.779 12.648H136.503ZM152.028 30.855C152.028 31.977 152.13 32.827 152.334 33.405C152.538 33.949 152.776 34.221 153.048 34.221H155.598C155.734 34.221 155.836 34.323 155.904 34.527C155.972 34.731 156.006 34.918 156.006 35.088C156.006 35.258 155.972 35.428 155.904 35.598C155.87 35.734 155.819 35.802 155.751 35.802H150.141C149.189 35.802 148.424 35.802 147.846 35.802C147.302 35.836 146.792 35.853 146.316 35.853C145.874 35.887 145.33 35.904 144.684 35.904C144.582 35.904 144.497 35.819 144.429 35.649C144.361 35.445 144.327 35.275 144.327 35.139C144.327 34.969 144.344 34.799 144.378 34.629C144.446 34.459 144.514 34.374 144.582 34.374H147.081C147.489 34.374 147.693 34.085 147.693 33.507V16.779C147.693 14.093 147.319 12.75 146.571 12.75H144.786C144.412 12.75 144.225 12.495 144.225 11.985C144.225 11.781 144.259 11.594 144.327 11.424C144.429 11.254 144.548 11.169 144.684 11.169C144.684 11.169 145.126 11.186 146.01 11.22C146.894 11.22 148.033 11.237 149.427 11.271C150.855 11.271 152.351 11.271 153.915 11.271C157.247 11.271 159.746 11.934 161.412 13.26C163.078 14.586 163.911 16.235 163.911 18.207C163.911 19.125 163.605 20.094 162.993 21.114C162.415 22.134 161.548 23.001 160.392 23.715C159.236 24.429 157.808 24.786 156.108 24.786C155.496 24.786 154.85 24.752 154.17 24.684C153.49 24.582 152.776 24.412 152.028 24.174V30.855ZM153.048 12.801C152.368 12.801 152.028 13.362 152.028 14.484V22.44C152.3 22.474 152.572 22.508 152.844 22.542C153.116 22.542 153.405 22.542 153.711 22.542C155.445 22.542 156.771 22.066 157.689 21.114C158.607 20.162 159.066 19.125 159.066 18.003C159.066 17.221 158.862 16.439 158.454 15.657C158.08 14.841 157.451 14.161 156.567 13.617C155.717 13.073 154.544 12.801 153.048 12.801ZM191.416 30.345C191.416 31.773 191.518 32.776 191.722 33.354C191.926 33.932 192.164 34.221 192.436 34.221H194.986C195.088 34.221 195.173 34.306 195.241 34.476C195.343 34.646 195.394 34.85 195.394 35.088C195.394 35.258 195.36 35.428 195.292 35.598C195.258 35.734 195.19 35.802 195.088 35.802C194.476 35.802 193.677 35.802 192.691 35.802C191.705 35.768 190.532 35.751 189.172 35.751C187.54 35.751 186.384 35.768 185.704 35.802C185.024 35.87 184.48 35.904 184.072 35.904C183.936 35.904 183.834 35.802 183.766 35.598C183.732 35.394 183.715 35.224 183.715 35.088C183.715 34.918 183.732 34.765 183.766 34.629C183.834 34.459 183.919 34.374 184.021 34.374H186.316C186.69 34.374 186.911 34.289 186.979 34.119C187.047 33.949 187.081 33.541 187.081 32.895V24.582H174.739V30.345C174.739 31.773 174.841 32.776 175.045 33.354C175.249 33.932 175.487 34.221 175.759 34.221H178.309C178.411 34.221 178.496 34.306 178.564 34.476C178.666 34.646 178.717 34.85 178.717 35.088C178.717 35.258 178.683 35.428 178.615 35.598C178.581 35.734 178.513 35.802 178.411 35.802C177.799 35.802 177 35.802 176.014 35.802C175.028 35.768 173.855 35.751 172.495 35.751C170.863 35.751 169.707 35.768 169.027 35.802C168.347 35.87 167.803 35.904 167.395 35.904C167.259 35.904 167.157 35.802 167.089 35.598C167.055 35.394 167.038 35.224 167.038 35.088C167.038 34.918 167.055 34.765 167.089 34.629C167.157 34.459 167.242 34.374 167.344 34.374H169.639C170.013 34.374 170.234 34.289 170.302 34.119C170.37 33.949 170.404 33.541 170.404 32.895V16.83C170.404 15.402 170.302 14.365 170.098 13.719C169.928 13.073 169.69 12.75 169.384 12.75H167.548C167.14 12.75 166.936 12.495 166.936 11.985C166.936 11.441 167.123 11.169 167.497 11.169C168.143 11.169 168.908 11.203 169.792 11.271C170.676 11.305 171.577 11.305 172.495 11.271C173.107 11.271 173.821 11.271 174.637 11.271C175.487 11.237 176.218 11.22 176.83 11.22C177.476 11.186 177.799 11.169 177.799 11.169C177.901 11.169 177.986 11.254 178.054 11.424C178.122 11.594 178.156 11.764 178.156 11.934C178.156 12.41 178.02 12.648 177.748 12.648H175.402C175.164 12.648 174.994 12.699 174.892 12.801C174.79 12.903 174.739 13.124 174.739 13.464V22.644H187.081V16.83C187.081 15.402 186.979 14.365 186.775 13.719C186.605 13.073 186.367 12.75 186.061 12.75H184.225C183.817 12.75 183.613 12.495 183.613 11.985C183.613 11.441 183.8 11.169 184.174 11.169C184.82 11.169 185.585 11.203 186.469 11.271C187.353 11.305 188.254 11.305 189.172 11.271C189.784 11.271 190.498 11.271 191.314 11.271C192.164 11.237 192.895 11.22 193.507 11.22C194.153 11.186 194.476 11.169 194.476 11.169C194.578 11.169 194.663 11.254 194.731 11.424C194.799 11.594 194.833 11.764 194.833 11.934C194.833 12.41 194.697 12.648 194.425 12.648H192.079C191.841 12.648 191.671 12.699 191.569 12.801C191.467 12.903 191.416 13.124 191.416 13.464V30.345ZM207.062 22.848C208.15 22.814 209.187 22.763 210.173 22.695C211.193 22.627 212.043 22.559 212.723 22.491C213.403 22.389 213.777 22.321 213.845 22.287L214.202 20.145C214.27 19.975 214.508 19.89 214.916 19.89C215.018 19.89 215.154 19.924 215.324 19.992C215.494 20.026 215.579 20.111 215.579 20.247C215.511 20.791 215.46 21.318 215.426 21.828C215.392 22.304 215.375 22.831 215.375 23.409C215.375 23.919 215.392 24.48 215.426 25.092C215.46 25.67 215.511 26.248 215.579 26.826C215.579 26.928 215.477 27.013 215.273 27.081C215.103 27.115 214.933 27.132 214.763 27.132C214.627 27.132 214.491 27.115 214.355 27.081C214.253 27.047 214.202 26.996 214.202 26.928L213.794 24.735C213.726 24.667 213.352 24.599 212.672 24.531C212.026 24.463 211.21 24.395 210.224 24.327C209.238 24.259 208.184 24.208 207.062 24.174V30.345C207.062 31.773 207.164 32.776 207.368 33.354C207.572 33.898 207.81 34.17 208.082 34.17H209.714C211.312 34.136 212.825 33.983 214.253 33.711C215.715 33.439 216.786 33.065 217.466 32.589L217.721 30.6C217.755 30.498 217.857 30.43 218.027 30.396C218.231 30.328 218.401 30.294 218.537 30.294C218.707 30.294 218.86 30.311 218.996 30.345C219.132 30.379 219.183 30.464 219.149 30.6C219.013 31.484 218.928 32.487 218.894 33.609C218.86 34.697 218.843 35.7 218.843 36.618C218.843 36.72 218.758 36.788 218.588 36.822C218.452 36.856 218.333 36.873 218.231 36.873C218.095 36.873 217.925 36.856 217.721 36.822C217.551 36.788 217.466 36.72 217.466 36.618V35.802H208.388C206.314 35.802 204.716 35.802 203.594 35.802C202.472 35.836 201.639 35.853 201.095 35.853C200.551 35.887 200.092 35.904 199.718 35.904C199.582 35.904 199.48 35.802 199.412 35.598C199.378 35.394 199.361 35.224 199.361 35.088C199.361 34.918 199.378 34.765 199.412 34.629C199.48 34.459 199.565 34.374 199.667 34.374H201.962C202.336 34.374 202.557 34.289 202.625 34.119C202.693 33.949 202.727 33.541 202.727 32.895V16.83C202.727 15.402 202.625 14.365 202.421 13.719C202.251 13.073 202.013 12.75 201.707 12.75H199.871C199.463 12.75 199.259 12.495 199.259 11.985C199.259 11.441 199.446 11.169 199.82 11.169C200.466 11.169 201.248 11.186 202.166 11.22C203.118 11.254 204.07 11.271 205.022 11.271H215.579V10.455C215.579 10.353 215.647 10.285 215.783 10.251C215.919 10.183 216.055 10.149 216.191 10.149C216.327 10.149 216.48 10.183 216.65 10.251C216.854 10.285 216.956 10.353 216.956 10.455C216.956 11.373 216.973 12.376 217.007 13.464C217.075 14.552 217.177 15.47 217.313 16.218C217.347 16.32 217.296 16.405 217.16 16.473C217.024 16.507 216.888 16.524 216.752 16.524C216.616 16.524 216.429 16.507 216.191 16.473C215.987 16.405 215.885 16.32 215.885 16.218C215.749 15.742 215.579 15.232 215.375 14.688C215.205 14.144 214.916 13.77 214.508 13.566C213.862 13.328 213.063 13.141 212.111 13.005C211.159 12.869 209.884 12.801 208.286 12.801C207.81 12.835 207.487 12.988 207.317 13.26C207.147 13.498 207.062 13.906 207.062 14.484V22.848ZM245.659 14.331C245.625 14.875 245.54 16.252 245.404 18.462C245.302 20.672 245.251 23.392 245.251 26.622C245.251 28.798 244.775 30.617 243.823 32.079C242.871 33.507 241.647 34.595 240.151 35.343C238.655 36.091 237.074 36.465 235.408 36.465C233.81 36.465 232.246 36.125 230.716 35.445C229.186 34.765 227.928 33.728 226.942 32.334C225.956 30.94 225.463 29.206 225.463 27.132V16.524C225.463 15.096 225.361 14.11 225.157 13.566C224.953 13.022 224.681 12.75 224.341 12.75H222.556C222.42 12.75 222.318 12.665 222.25 12.495C222.182 12.325 222.148 12.138 222.148 11.934C222.148 11.424 222.284 11.169 222.556 11.169C223.338 11.169 224.171 11.186 225.055 11.22C225.939 11.254 226.755 11.271 227.503 11.271C229.067 11.271 230.206 11.254 230.92 11.22C231.634 11.186 232.28 11.169 232.858 11.169C233.13 11.169 233.266 11.458 233.266 12.036C233.266 12.512 233.13 12.75 232.858 12.75H231.277C230.665 12.75 230.257 12.869 230.053 13.107C229.883 13.345 229.798 13.787 229.798 14.433V26.112C229.798 28.832 230.427 30.77 231.685 31.926C232.977 33.082 234.575 33.66 236.479 33.66C238.383 33.66 239.896 32.997 241.018 31.671C242.174 30.345 242.752 28.237 242.752 25.347C242.752 23.443 242.735 21.964 242.701 20.91C242.701 19.822 242.684 18.938 242.65 18.258C242.65 17.544 242.633 16.813 242.599 16.065C242.565 14.637 242.463 13.736 242.293 13.362C242.123 12.954 241.953 12.75 241.783 12.75H239.743C239.539 12.75 239.437 12.461 239.437 11.883C239.437 11.713 239.454 11.56 239.488 11.424C239.522 11.288 239.607 11.22 239.743 11.22C240.491 11.22 241.205 11.237 241.885 11.271C242.599 11.271 243.33 11.271 244.078 11.271C245.132 11.271 245.88 11.271 246.322 11.271C246.764 11.237 247.104 11.22 247.342 11.22C247.58 11.186 247.886 11.169 248.26 11.169C248.396 11.169 248.481 11.237 248.515 11.373C248.583 11.509 248.617 11.662 248.617 11.832C248.617 12.376 248.498 12.648 248.26 12.648H247.189C246.543 12.648 246.135 12.767 245.965 13.005C245.829 13.243 245.727 13.685 245.659 14.331ZM264.277 11.424C264.243 11.254 264.209 11.118 264.175 11.016C264.175 10.88 264.175 10.778 264.175 10.71C264.175 10.404 264.345 10.251 264.685 10.251C264.957 10.251 265.144 10.302 265.246 10.404C265.382 10.472 265.484 10.693 265.552 11.067C265.722 11.611 265.824 12.104 265.858 12.546C265.926 12.954 265.994 13.362 266.062 13.77C266.164 14.212 266.249 14.62 266.317 14.994C266.419 15.334 266.521 15.895 266.623 16.677C266.623 16.949 266.402 17.085 265.96 17.085C265.824 17.085 265.688 17.068 265.552 17.034C265.416 16.966 265.314 16.847 265.246 16.677C264.804 15.419 264.107 14.382 263.155 13.566C262.203 12.75 261.132 12.325 259.942 12.291C258.99 12.291 258.072 12.597 257.188 13.209C256.338 13.821 255.913 14.671 255.913 15.759C255.913 16.847 256.287 17.799 257.035 18.615C257.783 19.431 258.718 20.196 259.84 20.91C260.962 21.624 262.084 22.389 263.206 23.205C264.328 24.021 265.263 24.99 266.011 26.112C266.759 27.234 267.133 28.611 267.133 30.243C267.133 31.637 266.691 32.793 265.807 33.711C264.957 34.629 263.869 35.326 262.543 35.802C261.251 36.244 259.925 36.465 258.565 36.465C257.613 36.465 256.644 36.329 255.658 36.057C254.706 35.819 253.924 35.564 253.312 35.292C253.312 35.666 253.278 35.904 253.21 36.006C253.176 36.108 253.006 36.193 252.7 36.261H252.496C252.224 36.261 252.071 36.125 252.037 35.853C251.935 34.663 251.799 33.592 251.629 32.64C251.493 31.654 251.34 30.447 251.17 29.019C251.17 28.849 251.255 28.73 251.425 28.662C251.595 28.56 251.782 28.509 251.986 28.509C252.292 28.509 252.462 28.594 252.496 28.764C252.802 29.784 253.261 30.77 253.873 31.722C254.485 32.64 255.233 33.405 256.117 34.017C257.001 34.595 257.97 34.884 259.024 34.884C260.01 34.884 260.945 34.595 261.829 34.017C262.747 33.405 263.206 32.487 263.206 31.263C263.206 30.073 262.832 29.053 262.084 28.203C261.336 27.319 260.401 26.503 259.279 25.755C258.191 25.007 257.086 24.225 255.964 23.409C254.876 22.593 253.958 21.675 253.21 20.655C252.462 19.635 252.088 18.394 252.088 16.932C252.088 15.572 252.479 14.433 253.261 13.515C254.043 12.597 255.046 11.9 256.27 11.424C257.528 10.948 258.854 10.71 260.248 10.71C261.098 10.71 261.863 10.795 262.543 10.965C263.257 11.101 263.835 11.254 264.277 11.424Z" fill="white"/>
</svg>
