<svg width="100" height="100" viewBox="0 0 100 100" fill="none" xmlns="http://www.w3.org/2000/svg">
<g clip-path="url(#clip0_37_36)">
<rect x="30.5" y="0.5" width="39" height="99" fill="#515253" stroke="black"/>
<rect x="99.5" y="30.5" width="39" height="99" transform="rotate(90 99.5 30.5)" fill="#515253" stroke="black"/>
<rect x="5.5" y="5.5" width="89" height="89" rx="44.5" fill="#515253" stroke="black"/>
<rect x="10.5" y="11.5" width="79" height="78" rx="39" fill="#A2A2A2" stroke="black"/>
<mask id="path-5-inside-1_37_36" fill="white">
<path d="M35.2745 52.7262C36.208 52.7262 37.0029 53.3783 37.3136 54.2585C38.6987 58.1819 41.792 61.2983 45.7002 62.7158C46.5709 63.0316 47.2131 63.8223 47.2131 64.7484V79.6186C47.2131 80.7849 46.2162 81.7093 45.0623 81.5398C31.2531 79.5108 20.3151 68.66 18.1538 54.8944C17.9718 53.735 18.8985 52.7262 20.0721 52.7262H35.2745ZM79.4342 52.7262C80.6078 52.7262 81.5345 53.735 81.3524 54.8944C79.2237 68.4526 68.5804 79.183 55.0656 81.4419C53.9009 81.6366 52.8801 80.7076 52.8801 79.5267V65.0143C52.8801 64.0435 53.5833 63.2279 54.512 62.9451C58.7431 61.6569 62.12 58.4091 63.5853 54.2585C63.896 53.3782 64.6908 52.7262 65.6243 52.7262H79.4342ZM47.2131 34.493C47.2131 35.4192 46.5709 36.2098 45.7002 36.5257C41.6398 37.9986 38.4596 41.3063 37.1603 45.4468C36.8718 46.3661 36.0602 47.0592 35.0967 47.0592H20.0721C18.8985 47.0592 17.9718 46.0504 18.1538 44.891C20.3151 31.1254 31.2531 20.2746 45.0623 18.2456C46.2162 18.0761 47.2131 19.0005 47.2131 20.1668V34.493ZM52.8801 20.2587C52.8801 19.0778 53.9009 18.1489 55.0656 18.3435C68.5804 20.6024 79.2237 31.3328 81.3524 44.891C81.5345 46.0504 80.6078 47.0592 79.4342 47.0592H65.8022C64.8386 47.0592 64.027 46.3662 63.7386 45.4469C62.3669 41.0758 58.8988 37.6331 54.5119 36.2973C53.5832 36.0145 52.8801 35.199 52.8801 34.2282V20.2587Z"/>
</mask>
<path d="M35.2745 52.7262C36.208 52.7262 37.0029 53.3783 37.3136 54.2585C38.6987 58.1819 41.792 61.2983 45.7002 62.7158C46.5709 63.0316 47.2131 63.8223 47.2131 64.7484V79.6186C47.2131 80.7849 46.2162 81.7093 45.0623 81.5398C31.2531 79.5108 20.3151 68.66 18.1538 54.8944C17.9718 53.735 18.8985 52.7262 20.0721 52.7262H35.2745ZM79.4342 52.7262C80.6078 52.7262 81.5345 53.735 81.3524 54.8944C79.2237 68.4526 68.5804 79.183 55.0656 81.4419C53.9009 81.6366 52.8801 80.7076 52.8801 79.5267V65.0143C52.8801 64.0435 53.5833 63.2279 54.512 62.9451C58.7431 61.6569 62.12 58.4091 63.5853 54.2585C63.896 53.3782 64.6908 52.7262 65.6243 52.7262H79.4342ZM47.2131 34.493C47.2131 35.4192 46.5709 36.2098 45.7002 36.5257C41.6398 37.9986 38.4596 41.3063 37.1603 45.4468C36.8718 46.3661 36.0602 47.0592 35.0967 47.0592H20.0721C18.8985 47.0592 17.9718 46.0504 18.1538 44.891C20.3151 31.1254 31.2531 20.2746 45.0623 18.2456C46.2162 18.0761 47.2131 19.0005 47.2131 20.1668V34.493ZM52.8801 20.2587C52.8801 19.0778 53.9009 18.1489 55.0656 18.3435C68.5804 20.6024 79.2237 31.3328 81.3524 44.891C81.5345 46.0504 80.6078 47.0592 79.4342 47.0592H65.8022C64.8386 47.0592 64.027 46.3662 63.7386 45.4469C62.3669 41.0758 58.8988 37.6331 54.5119 36.2973C53.5832 36.0145 52.8801 35.199 52.8801 34.2282V20.2587Z" fill="#C6C5C6"/>
<path d="M54.5119 36.2973L54.8032 35.3407L54.5119 36.2973ZM63.7386 45.4469L64.6927 45.1475L63.7386 45.4469ZM81.3524 44.891L82.3403 44.7359L81.3524 44.891ZM18.1538 44.891L17.1659 44.7359L18.1538 44.891ZM45.7002 36.5257L46.0412 37.4657L45.7002 36.5257ZM63.5853 54.2585L64.5282 54.5913L63.5853 54.2585ZM54.512 62.9451L54.8033 63.9018L54.512 62.9451ZM55.0656 81.4419L54.9008 80.4556L55.0656 81.4419ZM81.3524 54.8944L80.3645 54.7393L81.3524 54.8944ZM45.0623 81.5398L45.2076 80.5504L45.0623 81.5398ZM45.7002 62.7158L46.0412 61.7757L45.7002 62.7158ZM37.3136 54.2585L38.2566 53.9256L37.3136 54.2585ZM37.3136 54.2585L36.3707 54.5914C37.8555 58.7974 41.1699 62.1364 45.3592 63.6559L45.7002 62.7158L46.0412 61.7757C42.4142 60.4602 39.5419 57.5664 38.2566 53.9256L37.3136 54.2585ZM47.2131 64.7484H46.2131V79.6186H47.2131H48.2131V64.7484H47.2131ZM45.0623 81.5398L45.2076 80.5504C31.8321 78.5852 21.2352 68.0728 19.1417 54.7393L18.1538 54.8944L17.1659 55.0495C19.3951 69.2472 30.6741 80.4365 44.9169 82.5291L45.0623 81.5398ZM20.0721 52.7262V53.7262H35.2745V52.7262V51.7262H20.0721V52.7262ZM81.3524 54.8944L80.3645 54.7393C78.3026 67.8717 67.9912 78.2676 54.9008 80.4556L55.0656 81.4419L55.2305 82.4282C69.1695 80.0984 80.1447 69.0335 82.3403 55.0495L81.3524 54.8944ZM52.8801 79.5267H53.8801V65.0143H52.8801H51.8801V79.5267H52.8801ZM54.512 62.9451L54.8033 63.9018C59.3394 62.5206 62.9576 59.0406 64.5282 54.5913L63.5853 54.2585L62.6423 53.9256C61.2824 57.7776 58.1467 60.7931 54.2207 61.9885L54.512 62.9451ZM65.6243 52.7262V53.7262H79.4342V52.7262V51.7262H65.6243V52.7262ZM45.7002 36.5257L45.3592 35.5856C41.0067 37.1645 37.5991 40.7085 36.2062 45.1474L37.1603 45.4468L38.1145 45.7462C39.32 41.9042 42.2729 38.8327 46.0412 37.4657L45.7002 36.5257ZM35.0967 47.0592V46.0592H20.0721V47.0592V48.0592H35.0967V47.0592ZM18.1538 44.891L19.1417 45.0461C21.2352 31.7126 31.8321 21.2002 45.2076 19.235L45.0623 18.2456L44.9169 17.2563C30.6741 19.3489 19.3951 30.5382 17.1659 44.7359L18.1538 44.891ZM47.2131 20.1668H46.2131V34.493H47.2131H48.2131V20.1668H47.2131ZM55.0656 18.3435L54.9008 19.3298C67.9912 21.5178 78.3026 31.9137 80.3645 45.0461L81.3524 44.891L82.3403 44.7359C80.1447 30.7519 69.1695 19.687 55.2305 17.3572L55.0656 18.3435ZM79.4342 47.0592V46.0592H65.8022V47.0592V48.0592H79.4342V47.0592ZM63.7386 45.4469L64.6927 45.1475C63.2223 40.4616 59.5063 36.7728 54.8032 35.3407L54.5119 36.2973L54.2207 37.254C58.2913 38.4935 61.5116 41.69 62.7844 45.7463L63.7386 45.4469ZM52.8801 34.2282H53.8801V20.2587H52.8801H51.8801V34.2282H52.8801ZM54.5119 36.2973L54.8032 35.3407C54.2256 35.1648 53.8801 34.6899 53.8801 34.2282H52.8801H51.8801C51.8801 35.7081 52.9409 36.8643 54.2207 37.254L54.5119 36.2973ZM65.8022 47.0592V46.0592C65.3438 46.0592 64.872 45.7188 64.6927 45.1475L63.7386 45.4469L62.7844 45.7463C63.1821 47.0136 64.3335 48.0592 65.8022 48.0592V47.0592ZM81.3524 44.891L80.3645 45.0461C80.4441 45.5531 80.0408 46.0592 79.4342 46.0592V47.0592V48.0592C81.1747 48.0592 82.6248 46.5477 82.3403 44.7359L81.3524 44.891ZM55.0656 18.3435L55.2305 17.3572C53.4097 17.0529 51.8801 18.5077 51.8801 20.2587H52.8801H53.8801C53.8801 19.648 54.3921 19.2448 54.9008 19.3298L55.0656 18.3435ZM45.0623 18.2456L45.2076 19.235C45.7128 19.1608 46.2131 19.5642 46.2131 20.1668H47.2131H48.2131C48.2131 18.4368 46.7196 16.9914 44.9169 17.2563L45.0623 18.2456ZM20.0721 47.0592V46.0592C19.4655 46.0592 19.0621 45.5531 19.1417 45.0461L18.1538 44.891L17.1659 44.7359C16.8815 46.5477 18.3316 48.0592 20.0721 48.0592V47.0592ZM37.1603 45.4468L36.2062 45.1474C36.0269 45.7188 35.555 46.0592 35.0967 46.0592V47.0592V48.0592C36.5654 48.0592 37.7168 47.0135 38.1145 45.7462L37.1603 45.4468ZM45.7002 36.5257L46.0412 37.4657C47.2436 37.0296 48.2131 35.9041 48.2131 34.493H47.2131H46.2131C46.2131 34.9343 45.8982 35.3901 45.3592 35.5856L45.7002 36.5257ZM63.5853 54.2585L64.5282 54.5913C64.7207 54.046 65.1797 53.7262 65.6243 53.7262V52.7262V51.7262C64.202 51.7262 63.0713 52.7104 62.6423 53.9256L63.5853 54.2585ZM52.8801 65.0143H53.8801C53.8801 64.5526 54.2256 64.0776 54.8033 63.9018L54.512 62.9451L54.2207 61.9885C52.941 62.3781 51.8801 63.5343 51.8801 65.0143H52.8801ZM55.0656 81.4419L54.9008 80.4556C54.3921 80.5406 53.8801 80.1374 53.8801 79.5267H52.8801H51.8801C51.8801 81.2777 53.4097 82.7325 55.2305 82.4282L55.0656 81.4419ZM81.3524 54.8944L82.3403 55.0495C82.6248 53.2377 81.1747 51.7262 79.4342 51.7262V52.7262V53.7262C80.0408 53.7262 80.4441 54.2323 80.3645 54.7393L81.3524 54.8944ZM18.1538 54.8944L19.1417 54.7393C19.0621 54.2324 19.4655 53.7262 20.0721 53.7262V52.7262V51.7262C18.3316 51.7262 16.8815 53.2377 17.1659 55.0495L18.1538 54.8944ZM47.2131 79.6186H46.2131C46.2131 80.2212 45.7128 80.6246 45.2076 80.5504L45.0623 81.5398L44.9169 82.5291C46.7196 82.794 48.2131 81.3486 48.2131 79.6186H47.2131ZM45.7002 62.7158L45.3592 63.6559C45.8982 63.8514 46.2131 64.3072 46.2131 64.7484H47.2131H48.2131C48.2131 63.3373 47.2436 62.2118 46.0412 61.7757L45.7002 62.7158ZM37.3136 54.2585L38.2566 53.9256C37.8276 52.7105 36.6969 51.7262 35.2745 51.7262V52.7262V53.7262C35.7191 53.7262 36.1781 54.046 36.3707 54.5914L37.3136 54.2585Z" fill="#8A9D77" mask="url(#path-5-inside-1_37_36)"/>
<mask id="path-7-outside-2_37_36" maskUnits="userSpaceOnUse" x="16.1309" y="16.2251" width="67" height="67" fill="black">
<rect fill="white" x="16.1309" y="16.2251" width="67" height="67"/>
<path d="M35.2745 52.7258C36.208 52.7258 37.0029 53.3779 37.3136 54.2582C38.6986 58.1818 41.7919 61.2987 45.7002 62.7163C46.5709 63.0322 47.2131 63.8228 47.2131 64.749V79.6192C47.2131 80.7855 46.2162 81.7099 45.0623 81.5403C31.2529 79.5113 20.3149 68.6598 18.1538 54.894C17.9718 53.7346 18.8985 52.7258 20.0721 52.7258H35.2745ZM79.4342 52.7258C80.6078 52.7258 81.5345 53.7346 81.3525 54.8939C79.2239 68.4524 68.5806 79.1835 55.0656 81.4424C53.9009 81.6371 52.8801 80.7081 52.8801 79.5272V65.0138C52.8801 64.043 53.5833 63.2275 54.512 62.9447C58.7431 61.6564 62.1201 58.4088 63.5853 54.2581C63.896 53.3778 64.6909 52.7258 65.6244 52.7258H79.4342ZM47.2131 34.4936C47.2131 35.4197 46.5709 36.2104 45.7002 36.5262C41.6397 37.9991 38.4594 41.3067 37.1603 45.4473C36.8718 46.3666 36.0602 47.0598 35.0966 47.0598H20.0721C18.8985 47.0598 17.9718 46.0509 18.1538 44.8916C20.3149 31.1257 31.2529 20.2742 45.0623 18.2452C46.2162 18.0757 47.2131 19.0001 47.2131 20.1664V34.4936ZM52.8801 20.2583C52.8801 19.0774 53.9009 18.1484 55.0656 18.3431C68.5806 20.602 79.2239 31.3331 81.3525 44.8916C81.5345 46.051 80.6078 47.0598 79.4342 47.0598H65.8022C64.8387 47.0598 64.0271 46.3667 63.7386 45.4474C62.3671 41.076 58.8989 37.6328 54.512 36.2969C53.5832 36.0141 52.8801 35.1985 52.8801 34.2277V20.2583Z"/>
</mask>
<path d="M54.512 36.2969L54.2206 37.2535L54.512 36.2969ZM63.7386 45.4474L62.7845 45.7467L63.7386 45.4474ZM81.3525 44.8916L82.3404 44.7365L81.3525 44.8916ZM45.7002 36.5262L46.0412 37.4663L45.7002 36.5262ZM54.512 62.9447L54.8032 63.9013L54.512 62.9447ZM55.0656 81.4424L54.9008 80.4561L55.0656 81.4424ZM81.3525 54.8939L82.3404 55.049L81.3525 54.8939ZM18.1538 54.894L17.1659 55.0491L18.1538 54.894ZM45.0623 81.5403L45.2076 80.5509L45.0623 81.5403ZM45.7002 62.7163L45.3592 63.6564L45.7002 62.7163ZM37.3136 54.2582L36.3706 54.591C37.8554 58.7973 41.1697 62.1368 45.3592 63.6564L45.7002 62.7163L46.0411 61.7763C42.4141 60.4607 39.5418 57.5664 38.2566 53.9253L37.3136 54.2582ZM47.2131 64.749H46.2131V79.6192H47.2131H48.2131V64.749H47.2131ZM45.0623 81.5403L45.2076 80.5509C31.832 78.5857 21.235 68.0727 19.1417 54.7389L18.1538 54.894L17.1659 55.0491C19.3948 69.247 30.6739 80.437 44.9169 82.5297L45.0623 81.5403ZM20.0721 52.7258V53.7258H35.2745V52.7258V51.7258H20.0721V52.7258ZM81.3525 54.8939L80.3646 54.7388C78.3029 67.8716 67.9914 78.2681 54.9008 80.4561L55.0656 81.4424L55.2305 82.4288C69.1697 80.0989 80.145 69.0333 82.3404 55.049L81.3525 54.8939ZM52.8801 79.5272H53.8801V65.0138H52.8801H51.8801V79.5272H52.8801ZM54.512 62.9447L54.8032 63.9013C59.3395 62.5202 62.9577 59.0403 64.5283 54.591L63.5853 54.2581L62.6423 53.9252C61.2825 57.7773 58.1468 60.7927 54.2207 61.9881L54.512 62.9447ZM65.6244 52.7258V53.7258H79.4342V52.7258V51.7258H65.6244V52.7258ZM45.7002 36.5262L45.3592 35.5862C41.0067 37.165 37.599 40.7088 36.2061 45.1479L37.1603 45.4473L38.1144 45.7467C39.3199 41.9046 42.2728 38.8333 46.0412 37.4663L45.7002 36.5262ZM35.0966 47.0598V46.0598H20.0721V47.0598V48.0598H35.0966V47.0598ZM18.1538 44.8916L19.1417 45.0467C21.235 31.7129 31.832 21.1999 45.2076 19.2346L45.0623 18.2452L44.9169 17.2558C30.6739 19.3485 19.3948 30.5385 17.1659 44.7365L18.1538 44.8916ZM47.2131 20.1664H46.2131V34.4936H47.2131H48.2131V20.1664H47.2131ZM55.0656 18.3431L54.9008 19.3294C67.9914 21.5174 78.3029 31.9139 80.3646 45.0467L81.3525 44.8916L82.3404 44.7365C80.145 30.7522 69.1697 19.6866 55.2305 17.3568L55.0656 18.3431ZM79.4342 47.0598V46.0598H65.8022V47.0598V48.0598H79.4342V47.0598ZM63.7386 45.4474L64.6927 45.148C63.2225 40.4618 59.5065 36.7724 54.8033 35.3403L54.512 36.2969L54.2206 37.2535C58.2914 38.4931 61.5117 41.6901 62.7845 45.7467L63.7386 45.4474ZM52.8801 34.2277H53.8801V20.2583H52.8801H51.8801V34.2277H52.8801ZM54.512 36.2969L54.8033 35.3403C54.2256 35.1644 53.8801 34.6894 53.8801 34.2277H52.8801H51.8801C51.8801 35.7077 52.9409 36.8639 54.2206 37.2535L54.512 36.2969ZM65.8022 47.0598V46.0598C65.3438 46.0598 64.872 45.7194 64.6927 45.148L63.7386 45.4474L62.7845 45.7467C63.1821 47.0141 64.3335 48.0598 65.8022 48.0598V47.0598ZM81.3525 44.8916L80.3646 45.0467C80.4442 45.5536 80.0409 46.0598 79.4342 46.0598V47.0598V48.0598C81.1747 48.0598 82.6248 46.5483 82.3404 44.7365L81.3525 44.8916ZM55.0656 18.3431L55.2305 17.3568C53.4097 17.0525 51.8801 18.5073 51.8801 20.2583H52.8801H53.8801C53.8801 19.6476 54.3921 19.2444 54.9008 19.3294L55.0656 18.3431ZM45.0623 18.2452L45.2076 19.2346C45.7128 19.1604 46.2131 19.5638 46.2131 20.1664H47.2131H48.2131C48.2131 18.4364 46.7196 16.991 44.9169 17.2558L45.0623 18.2452ZM20.0721 47.0598V46.0598C19.4654 46.0598 19.0621 45.5536 19.1417 45.0467L18.1538 44.8916L17.1659 44.7365C16.8815 46.5483 18.3316 48.0598 20.0721 48.0598V47.0598ZM37.1603 45.4473L36.2061 45.1479C36.0269 45.7193 35.555 46.0598 35.0966 46.0598V47.0598V48.0598C36.5654 48.0598 37.7168 47.0139 38.1144 45.7467L37.1603 45.4473ZM45.7002 36.5262L46.0412 37.4663C47.2436 37.0301 48.2131 35.9047 48.2131 34.4936H47.2131H46.2131C46.2131 34.9348 45.8982 35.3906 45.3592 35.5862L45.7002 36.5262ZM63.5853 54.2581L64.5283 54.591C64.7208 54.0456 65.1797 53.7258 65.6244 53.7258V52.7258V51.7258C64.202 51.7258 63.0713 52.71 62.6423 53.9252L63.5853 54.2581ZM52.8801 65.0138H53.8801C53.8801 64.5522 54.2256 64.0772 54.8032 63.9013L54.512 62.9447L54.2207 61.9881C52.941 62.3777 51.8801 63.5339 51.8801 65.0138H52.8801ZM55.0656 81.4424L54.9008 80.4561C54.3921 80.5411 53.8801 80.138 53.8801 79.5272H52.8801H51.8801C51.8801 81.2783 53.4097 82.7331 55.2305 82.4288L55.0656 81.4424ZM81.3525 54.8939L82.3404 55.049C82.6248 53.2372 81.1747 51.7258 79.4342 51.7258V52.7258V53.7258C80.0409 53.7258 80.4442 54.2319 80.3646 54.7388L81.3525 54.8939ZM18.1538 54.894L19.1417 54.7389C19.0621 54.2319 19.4654 53.7258 20.0721 53.7258V52.7258V51.7258C18.3316 51.7258 16.8815 53.2373 17.1659 55.0491L18.1538 54.894ZM47.2131 79.6192H46.2131C46.2131 80.2218 45.7128 80.6252 45.2076 80.5509L45.0623 81.5403L44.9169 82.5297C46.7196 82.7946 48.2131 81.3492 48.2131 79.6192H47.2131ZM45.7002 62.7163L45.3592 63.6564C45.8982 63.8519 46.2131 64.3078 46.2131 64.749H47.2131H48.2131C48.2131 63.3379 47.2435 62.2124 46.0411 61.7763L45.7002 62.7163ZM37.3136 54.2582L38.2566 53.9253C37.8276 52.7101 36.6969 51.7258 35.2745 51.7258V52.7258V53.7258C35.7191 53.7258 36.1781 54.0456 36.3706 54.591L37.3136 54.2582Z" fill="black" mask="url(#path-7-outside-2_37_36)"/>
<circle cx="50.5" cy="49.5" r="10" fill="#515253" stroke="black"/>
<mask id="mask0_37_36" style="mask-type:alpha" maskUnits="userSpaceOnUse" x="18" y="19" width="63" height="62">
<mask id="path-10-inside-3_37_36" fill="white">
<path d="M35.5896 52.6562C36.5232 52.6562 37.3177 53.3086 37.631 54.188C38.9841 57.9862 41.9799 61.0043 45.7631 62.3888C46.6329 62.7071 47.2754 63.4974 47.2754 64.4236V78.8387C47.2754 80.005 46.2785 80.9295 45.1248 80.758C31.6961 78.7617 21.0606 68.2106 18.9357 54.8241C18.7517 53.6651 19.6786 52.6562 20.8521 52.6562H35.5896ZM78.6528 52.6562C79.8263 52.6562 80.7532 53.665 80.5692 54.8241C78.4764 68.0079 68.129 78.4405 54.9879 80.6601C53.8235 80.8568 52.8027 79.9277 52.8027 78.7468V64.6856C52.8027 63.7147 53.5062 62.8995 54.4341 62.6139C58.531 61.3529 61.8016 58.2069 63.2333 54.188C63.5465 53.3086 64.3411 52.6562 65.2746 52.6562H78.6528ZM47.2754 34.8322C47.2754 35.7584 46.6329 36.5487 45.7631 36.867C41.8323 38.3057 38.7521 41.5086 37.4809 45.5171C37.1896 46.4356 36.3784 47.1289 35.4148 47.1289H20.8522C19.6786 47.1289 18.7517 46.12 18.9357 44.961C21.061 31.5749 31.6963 21.0243 45.1248 19.0281C46.2785 18.8566 47.2754 19.7811 47.2754 20.9474V34.8322ZM52.8027 21.0393C52.8027 19.8584 53.8235 18.9293 54.9879 19.126C68.1288 21.3456 78.4761 31.7776 80.5691 44.961C80.7532 46.1201 79.8263 47.1289 78.6527 47.1289H65.4494C64.4859 47.1289 63.6746 46.4356 63.3834 45.5171C62.0412 41.2844 58.682 37.9495 54.4341 36.6419C53.5062 36.3563 52.8027 35.5411 52.8027 34.5702V21.0393Z"/>
</mask>
<path d="M35.5896 52.6562C36.5232 52.6562 37.3177 53.3086 37.631 54.188C38.9841 57.9862 41.9799 61.0043 45.7631 62.3888C46.6329 62.7071 47.2754 63.4974 47.2754 64.4236V78.8387C47.2754 80.005 46.2785 80.9295 45.1248 80.758C31.6961 78.7617 21.0606 68.2106 18.9357 54.8241C18.7517 53.6651 19.6786 52.6562 20.8521 52.6562H35.5896ZM78.6528 52.6562C79.8263 52.6562 80.7532 53.665 80.5692 54.8241C78.4764 68.0079 68.129 78.4405 54.9879 80.6601C53.8235 80.8568 52.8027 79.9277 52.8027 78.7468V64.6856C52.8027 63.7147 53.5062 62.8995 54.4341 62.6139C58.531 61.3529 61.8016 58.2069 63.2333 54.188C63.5465 53.3086 64.3411 52.6562 65.2746 52.6562H78.6528ZM47.2754 34.8322C47.2754 35.7584 46.6329 36.5487 45.7631 36.867C41.8323 38.3057 38.7521 41.5086 37.4809 45.5171C37.1896 46.4356 36.3784 47.1289 35.4148 47.1289H20.8522C19.6786 47.1289 18.7517 46.12 18.9357 44.961C21.061 31.5749 31.6963 21.0243 45.1248 19.0281C46.2785 18.8566 47.2754 19.7811 47.2754 20.9474V34.8322ZM52.8027 21.0393C52.8027 19.8584 53.8235 18.9293 54.9879 19.126C68.1288 21.3456 78.4761 31.7776 80.5691 44.961C80.7532 46.1201 79.8263 47.1289 78.6527 47.1289H65.4494C64.4859 47.1289 63.6746 46.4356 63.3834 45.5171C62.0412 41.2844 58.682 37.9495 54.4341 36.6419C53.5062 36.3563 52.8027 35.5411 52.8027 34.5702V21.0393Z" fill="#C6C5C6"/>
<path d="M54.4341 36.6419L54.1399 37.5977L54.4341 36.6419ZM63.3834 45.5171L62.4302 45.8194L63.3834 45.5171ZM80.5691 44.961L81.5568 44.8042L80.5691 44.961ZM54.9879 19.126L54.8214 20.112L54.9879 19.126ZM18.9357 44.961L17.9481 44.8042L18.9357 44.961ZM37.4809 45.5171L36.5277 45.2148L37.4809 45.5171ZM63.2333 54.188L62.2913 53.8524L63.2333 54.188ZM54.4341 62.6139L54.7283 63.5697L54.4341 62.6139ZM54.9879 80.6601L55.1545 81.6461L54.9879 80.6601ZM45.1248 80.758L45.2719 79.7689L45.1248 80.758ZM45.7631 62.3888L46.1068 61.4497L45.7631 62.3888ZM37.631 54.188L36.689 54.5236C38.142 58.6022 41.3572 61.8413 45.4195 63.3279L45.7631 62.3888L46.1068 61.4497C42.6025 60.1673 39.8262 57.3701 38.573 53.8524L37.631 54.188ZM47.2754 64.4236H46.2754V78.8387H47.2754H48.2754V64.4236H47.2754ZM45.1248 80.758L45.2719 79.7689C32.2755 77.8368 21.9799 67.6231 19.9233 54.6673L18.9357 54.8241L17.9481 54.9809C20.1414 68.7981 31.1167 79.6866 44.9778 81.7472L45.1248 80.758ZM20.8521 52.6562V53.6562H35.5896V52.6562V51.6562H20.8521V52.6562ZM80.5692 54.8241L79.5816 54.6673C77.5562 67.4267 67.5395 77.5259 54.8214 79.6741L54.9879 80.6601L55.1545 81.6461C68.7185 79.3551 79.3967 68.5891 81.5568 54.9808L80.5692 54.8241ZM52.8027 78.7468H53.8027V64.6856H52.8027H51.8027V78.7468H52.8027ZM54.4341 62.6139L54.7283 63.5697C59.1279 62.2155 62.6381 58.8388 64.1753 54.5235L63.2333 54.188L62.2913 53.8524C60.9652 57.575 57.934 60.4904 54.1399 61.6581L54.4341 62.6139ZM65.2746 52.6562V53.6562H78.6528V52.6562V51.6562H65.2746V52.6562ZM45.7631 36.867L45.4194 35.928C41.1988 37.4726 37.8928 40.9101 36.5277 45.2148L37.4809 45.5171L38.4341 45.8194C39.6113 42.1072 42.4657 39.1387 46.1068 37.8061L45.7631 36.867ZM35.4148 47.1289V46.1289H20.8522V47.1289V48.1289H35.4148V47.1289ZM18.9357 44.961L19.9234 45.1178C21.9802 32.1624 32.2757 21.9492 45.2719 20.0172L45.1248 19.0281L44.9778 18.0389C31.117 20.0995 20.1418 30.9874 17.9481 44.8042L18.9357 44.961ZM47.2754 20.9474H46.2754V34.8322H47.2754H48.2754V20.9474H47.2754ZM54.9879 19.126L54.8214 20.112C67.5393 22.2602 77.5558 32.3588 79.5815 45.1178L80.5691 44.961L81.5568 44.8042C79.3963 31.1964 68.7182 20.431 55.1545 18.14L54.9879 19.126ZM78.6527 47.1289V46.1289H65.4494V47.1289V48.1289H78.6527V47.1289ZM63.3834 45.5171L64.3366 45.2149C62.8953 40.6697 59.2901 37.0904 54.7283 35.6862L54.4341 36.6419L54.1399 37.5977C58.0739 38.8087 61.187 41.8991 62.4302 45.8194L63.3834 45.5171ZM52.8027 34.5702H53.8027V21.0393H52.8027H51.8027V34.5702H52.8027ZM54.4341 36.6419L54.7283 35.6862C54.1482 35.5076 53.8027 35.0314 53.8027 34.5702H52.8027H51.8027C51.8027 36.0507 52.8641 37.205 54.1399 37.5977L54.4341 36.6419ZM65.4494 47.1289V46.1289C64.9915 46.1289 64.5185 45.7885 64.3366 45.2149L63.3834 45.5171L62.4302 45.8194C62.8308 47.0827 63.9803 48.1289 65.4494 48.1289V47.1289ZM80.5691 44.961L79.5815 45.1178C79.6617 45.6227 79.26 46.1289 78.6527 46.1289V47.1289V48.1289C80.3926 48.1289 81.8447 46.6175 81.5568 44.8042L80.5691 44.961ZM54.9879 19.126L55.1545 18.14C53.3322 17.8322 51.8027 19.2889 51.8027 21.0393H52.8027H53.8027C53.8027 20.428 54.3148 20.0265 54.8214 20.112L54.9879 19.126ZM45.1248 19.0281L45.2719 20.0172C45.775 19.9424 46.2754 20.3442 46.2754 20.9474H47.2754H48.2754C48.2754 19.218 46.7819 17.7707 44.9778 18.0389L45.1248 19.0281ZM20.8522 47.1289V46.1289C20.2449 46.1289 19.8432 45.6227 19.9234 45.1178L18.9357 44.961L17.9481 44.8042C17.6602 46.6174 19.1123 48.1289 20.8522 48.1289V47.1289ZM37.4809 45.5171L36.5277 45.2148C36.3458 45.7885 35.8727 46.1289 35.4148 46.1289V47.1289V48.1289C36.884 48.1289 38.0335 47.0826 38.4341 45.8194L37.4809 45.5171ZM45.7631 36.867L46.1068 37.8061C47.3054 37.3675 48.2754 36.2438 48.2754 34.8322H47.2754H46.2754C46.2754 35.273 45.9605 35.73 45.4194 35.928L45.7631 36.867ZM63.2333 54.188L64.1753 54.5235C64.3703 53.9761 64.8304 53.6562 65.2746 53.6562V52.6562V51.6562C63.8517 51.6562 62.7228 52.641 62.2913 53.8524L63.2333 54.188ZM52.8027 64.6856H53.8027C53.8027 64.2244 54.1483 63.7482 54.7283 63.5697L54.4341 62.6139L54.1399 61.6581C52.8642 62.0508 51.8027 63.2051 51.8027 64.6856H52.8027ZM54.9879 80.6601L54.8214 79.6741C54.3148 79.7596 53.8027 79.3581 53.8027 78.7468H52.8027H51.8027C51.8027 80.4972 53.3322 81.9539 55.1545 81.6461L54.9879 80.6601ZM80.5692 54.8241L81.5568 54.9808C81.8447 53.1676 80.3926 51.6562 78.6528 51.6562V52.6562V53.6562C79.26 53.6562 79.6617 54.1624 79.5816 54.6673L80.5692 54.8241ZM18.9357 54.8241L19.9233 54.6673C19.8432 54.1624 20.2449 53.6562 20.8521 53.6562V52.6562V51.6562C19.1122 51.6562 17.6602 53.1677 17.9481 54.9809L18.9357 54.8241ZM47.2754 78.8387H46.2754C46.2754 79.4419 45.775 79.8437 45.2719 79.7689L45.1248 80.758L44.9778 81.7472C46.7819 82.0154 48.2754 80.5681 48.2754 78.8387H47.2754ZM45.7631 62.3888L45.4195 63.3279C45.9605 63.5259 46.2754 63.9828 46.2754 64.4236H47.2754H48.2754C48.2754 63.012 47.3053 61.8883 46.1068 61.4497L45.7631 62.3888ZM37.631 54.188L38.573 53.8524C38.1415 52.6411 37.0126 51.6562 35.5896 51.6562V52.6562V53.6562C36.0338 53.6562 36.494 53.9761 36.689 54.5236L37.631 54.188Z" fill="#8A9D77" mask="url(#path-10-inside-3_37_36)"/>
</mask>
<g mask="url(#mask0_37_36)">
<g filter="url(#filter0_n_37_36)">
<rect x="50.4443" y="0.699341" width="70.0823" height="66.4884" transform="rotate(45 50.4443 0.699341)" fill="#0A467E"/>
</g>
<path d="M55.7038 13.3376C57.0333 12.8164 58.5027 13.6647 58.7161 15.0768C58.7999 15.6313 59.0899 16.1337 59.5283 16.4835C60.6444 17.3743 60.6444 19.071 59.5283 19.9618C59.0899 20.3116 58.7999 20.814 58.7161 21.3685C58.5027 22.7805 57.0333 23.6289 55.7038 23.1076C55.1817 22.9029 54.6016 22.9029 54.0795 23.1076C52.7499 23.6289 51.2805 22.7805 51.0672 21.3685C50.9834 20.814 50.6933 20.3116 50.255 19.9618C49.1388 19.071 49.1388 17.3743 50.255 16.4835C50.6933 16.1337 50.9834 15.6313 51.0672 15.0768C51.2805 13.6647 52.7499 12.8164 54.0795 13.3376C54.6016 13.5423 55.1817 13.5423 55.7038 13.3376Z" fill="#78A24A"/>
<path d="M54.5564 14.7792C55.3593 14.187 56.5043 14.4938 56.9037 15.4082C57.0605 15.7672 57.3471 16.0538 57.7061 16.2106C58.6204 16.6099 58.9272 17.7549 58.3351 18.5579C58.1025 18.8732 57.9976 19.2647 58.0413 19.6541C58.1527 20.6455 57.3145 21.4837 56.323 21.3724C55.9337 21.3287 55.5422 21.4336 55.2268 21.6661C54.4239 22.2583 53.2789 21.9515 52.8796 21.0371C52.7228 20.6781 52.4362 20.3915 52.0771 20.2347C51.1628 19.8354 50.856 18.6904 51.4482 17.8874C51.6807 17.5721 51.7856 17.1806 51.7419 16.7913C51.6305 15.7998 52.4687 14.9616 53.4602 15.0729C53.8496 15.1166 54.241 15.0117 54.5564 14.7792Z" fill="#4C712F"/>
<path d="M55.2792 15.8916C55.9136 15.6429 56.6148 16.0477 56.7166 16.7215C56.7566 16.9861 56.895 17.2258 57.1042 17.3928C57.6368 17.8178 57.6368 18.6275 57.1042 19.0525C56.895 19.2195 56.7566 19.4592 56.7166 19.7238C56.6148 20.3976 55.9136 20.8024 55.2792 20.5537C55.0301 20.456 54.7532 20.456 54.5041 20.5537C53.8697 20.8024 53.1685 20.3976 53.0667 19.7238C53.0267 19.4592 52.8883 19.2195 52.6791 19.0525C52.1465 18.6275 52.1465 17.8178 52.6791 17.3928C52.8883 17.2258 53.0267 16.9861 53.0667 16.7215C53.1685 16.0477 53.8697 15.6429 54.5041 15.8916C54.7532 15.9893 55.0301 15.9893 55.2792 15.8916Z" fill="#64963A"/>
<path d="M54.7717 16.9905C55.059 16.7786 55.4687 16.8883 55.6116 17.2155C55.6677 17.344 55.7703 17.4466 55.8988 17.5027C56.2259 17.6456 56.3357 18.0553 56.1238 18.3426C56.0406 18.4554 56.0031 18.5955 56.0187 18.7349C56.0586 19.0896 55.7586 19.3896 55.4038 19.3497C55.2645 19.3341 55.1244 19.3716 55.0116 19.4548C54.7243 19.6667 54.3145 19.557 54.1717 19.2298C54.1155 19.1013 54.013 18.9987 53.8845 18.9426C53.5573 18.7997 53.4476 18.39 53.6595 18.1027C53.7427 17.9899 53.7802 17.8498 53.7646 17.7104C53.7247 17.3557 54.0246 17.0557 54.3794 17.0956C54.5188 17.1112 54.6588 17.0737 54.7717 16.9905Z" fill="#B3A16F"/>
<path d="M30.2784 56.4356C31.5879 55.9222 33.0351 56.7578 33.2452 58.1485C33.3278 58.6947 33.6135 59.1895 34.0452 59.534C35.1445 60.4114 35.1445 62.0825 34.0452 62.9599C33.6135 63.3044 33.3278 63.7992 33.2452 64.3454C33.0351 65.7361 31.5879 66.5717 30.2784 66.0583C29.7642 65.8567 29.1928 65.8567 28.6785 66.0583C27.3691 66.5717 25.9218 65.7361 25.7117 64.3454C25.6292 63.7993 25.3435 63.3044 24.9118 62.9599C23.8124 62.0825 23.8124 60.4114 24.9118 59.534C25.3435 59.1895 25.6292 58.6947 25.7117 58.1485C25.9218 56.7578 27.3691 55.9222 28.6785 56.4356C29.1928 56.6372 29.7642 56.6372 30.2784 56.4356Z" fill="#78A24A"/>
<path d="M29.1482 57.8555C29.9391 57.2723 31.0668 57.5744 31.4601 58.475C31.6146 58.8286 31.8968 59.1109 32.2505 59.2653C33.151 59.6586 33.4532 60.7863 32.8699 61.5772C32.6409 61.8878 32.5376 62.2734 32.5807 62.6568C32.6903 63.6334 31.8648 64.4589 30.8882 64.3493C30.5048 64.3062 30.1192 64.4095 29.8086 64.6385C29.0177 65.2218 27.89 64.9196 27.4967 64.0191C27.3423 63.6654 27.06 63.3832 26.7064 63.2287C25.8058 62.8354 25.5036 61.7077 26.0869 60.9168C26.3159 60.6063 26.4192 60.2207 26.3762 59.8372C26.2665 58.8607 27.0921 58.0351 28.0686 58.1448C28.4521 58.1878 28.8377 58.0845 29.1482 57.8555Z" fill="#4C712F"/>
<path d="M29.8602 58.9511C30.485 58.7061 31.1756 59.1048 31.2759 59.7684C31.3153 60.0291 31.4516 60.2652 31.6576 60.4296C32.1822 60.8482 32.1822 61.6457 31.6576 62.0643C31.4516 62.2287 31.3153 62.4649 31.2759 62.7255C31.1756 63.3891 30.485 63.7878 29.8602 63.5429C29.6148 63.4467 29.3421 63.4467 29.0967 63.5429C28.4719 63.7878 27.7813 63.3891 27.681 62.7255C27.6416 62.4649 27.5053 62.2288 27.2993 62.0643C26.7747 61.6457 26.7747 60.8482 27.2993 60.4296C27.5053 60.2652 27.6416 60.0291 27.681 59.7684C27.7813 59.1048 28.4719 58.7061 29.0967 58.9511C29.3421 59.0473 29.6148 59.0473 29.8602 58.9511Z" fill="#64963A"/>
<path d="M29.3603 60.0334C29.6433 59.8247 30.0468 59.9328 30.1876 60.2551C30.2428 60.3816 30.3439 60.4826 30.4704 60.5379C30.7926 60.6786 30.9008 61.0822 30.6921 61.3652C30.6101 61.4763 30.5731 61.6143 30.5885 61.7515C30.6278 62.1009 30.3324 62.3964 29.9829 62.3571C29.8457 62.3417 29.7077 62.3787 29.5966 62.4606C29.3136 62.6693 28.9101 62.5612 28.7693 62.239C28.7141 62.1124 28.6131 62.0114 28.4865 61.9562C28.1643 61.8154 28.0561 61.4119 28.2648 61.1289C28.3468 61.0177 28.3838 60.8798 28.3684 60.7425C28.3291 60.3931 28.6245 60.0977 28.974 60.1369C29.1112 60.1523 29.2492 60.1154 29.3603 60.0334Z" fill="#B3A16F"/>
<path d="M55.5269 21.0299L53.4166 25.2213L58.0479 25.9776L53.877 28.1281L57.1793 31.4622L52.5409 30.7504L53.2527 35.3888L49.9186 32.0865L47.7681 36.2575L47.0117 31.6261L42.8204 33.7365L44.9307 29.5451L40.2994 28.7887L44.4703 26.6382L41.168 23.3041L45.8064 24.0159L45.0946 19.3775L48.4287 22.6798L50.5792 18.5089L51.3355 23.1402L55.5269 21.0299Z" fill="#4C712F"/>
<path d="M52.94 20.8597L52.1405 24.7118L56.0551 24.3194L53.1441 26.9659L56.5417 28.9494L52.6311 29.3794L54.214 32.9811L50.7975 31.0304L49.961 34.8747L48.3436 31.2883L45.4073 33.9067L46.2067 30.0546L42.2921 30.4471L45.2031 27.8005L41.8055 25.8171L45.7161 25.387L44.1332 21.7853L47.5498 23.736L48.3862 19.8918L50.0037 23.4781L52.94 20.8597Z" fill="#64963A"/>
<path d="M52.3503 24.2066L51.2951 26.3022L53.6108 26.6804L51.5253 27.7557L53.1765 29.4227L50.8573 29.0668L51.2132 31.386L49.5461 29.7349L48.4709 31.8203L48.0927 29.5047L45.997 30.5598L47.0522 28.4642L44.7365 28.086L46.822 27.0107L45.1708 25.3437L47.49 25.6996L47.1341 23.3804L48.8012 25.0315L49.8764 22.9461L50.2546 25.2617L52.3503 24.2066Z" fill="#78A24A"/>
<path d="M49.7967 25.695C50.0274 25.4894 50.3869 25.6969 50.3241 25.9995C50.2801 26.2115 50.4546 26.4053 50.67 26.3837C50.9775 26.3529 51.1464 26.7321 50.9177 26.94C50.7575 27.0856 50.7847 27.345 50.9717 27.4541C51.2386 27.6099 51.1523 28.016 50.8451 28.0497C50.6299 28.0734 50.4995 28.2992 50.5866 28.4975C50.711 28.7804 50.4025 29.0581 50.1341 28.9049C49.9461 28.7975 49.7079 28.9036 49.6618 29.1152C49.5961 29.4172 49.1833 29.4606 49.0562 29.1788C48.9672 28.9814 48.7122 28.9272 48.5506 29.0714C48.3199 29.277 47.9604 29.0695 48.0232 28.7669C48.0672 28.5549 47.8927 28.3611 47.6773 28.3827C47.3698 28.4135 47.2009 28.0343 47.4296 27.8264C47.5898 27.6808 47.5626 27.4214 47.3756 27.3123C47.1087 27.1565 47.195 26.7504 47.5022 26.7166C47.7174 26.693 47.8478 26.4672 47.7607 26.2689C47.6363 25.986 47.9448 25.7082 48.2132 25.8615C48.4012 25.9688 48.6394 25.8628 48.6855 25.6512C48.7512 25.3492 49.164 25.3058 49.2911 25.5876C49.3801 25.7849 49.6351 25.8392 49.7967 25.695Z" fill="#B36F6F"/>
<path d="M39.5972 46.0779C40.5612 45.7 41.6266 46.3151 41.7813 47.3388C41.842 47.7409 42.0523 48.1051 42.3701 48.3587C43.1794 49.0046 43.1794 50.2348 42.3701 50.8806C42.0523 51.1343 41.842 51.4985 41.7813 51.9005C41.6266 52.9243 40.5612 53.5394 39.5972 53.1615C39.2187 53.0131 38.7981 53.0131 38.4195 53.1615C37.4556 53.5394 36.3902 52.9243 36.2355 51.9005C36.1748 51.4985 35.9645 51.1343 35.6467 50.8806C34.8374 50.2348 34.8374 49.0046 35.6467 48.3588C35.9645 48.1051 36.1748 47.7409 36.2355 47.3388C36.3902 46.3151 37.4556 45.7 38.4195 46.0779C38.7981 46.2263 39.2187 46.2263 39.5972 46.0779Z" fill="#78A24A"/>
<path d="M38.7653 47.123C39.3475 46.6937 40.1777 46.9161 40.4672 47.5791C40.5809 47.8394 40.7887 48.0472 41.049 48.1609C41.7119 48.4504 41.9344 49.2805 41.505 49.8627C41.3364 50.0913 41.2604 50.3752 41.2921 50.6575C41.3728 51.3763 40.7651 51.9841 40.0462 51.9033C39.7639 51.8716 39.4801 51.9477 39.2514 52.1163C38.6693 52.5456 37.8391 52.3232 37.5496 51.6603C37.4359 51.3999 37.2281 51.1922 36.9678 51.0785C36.3049 50.789 36.0824 49.9588 36.5118 49.3766C36.6804 49.148 36.7564 48.8641 36.7247 48.5818C36.644 47.863 37.2517 47.2553 37.9706 47.336C38.2529 47.3677 38.5367 47.2916 38.7653 47.123Z" fill="#4C712F"/>
<path d="M39.2894 47.9296C39.7494 47.7492 40.2577 48.0427 40.3316 48.5313C40.3605 48.7231 40.4609 48.8969 40.6126 49.018C40.9987 49.3262 40.9987 49.9132 40.6126 50.2214C40.4609 50.3424 40.3605 50.5162 40.3316 50.7081C40.2577 51.1966 39.7494 51.4901 39.2894 51.3098C39.1088 51.2389 38.908 51.2389 38.7274 51.3098C38.2674 51.4901 37.759 51.1966 37.6852 50.7081C37.6562 50.5162 37.5559 50.3424 37.4042 50.2214C37.0181 49.9132 37.0181 49.3262 37.4042 49.018C37.5559 48.8969 37.6562 48.7231 37.6852 48.5313C37.759 48.0427 38.2674 47.7492 38.7274 47.9296C38.908 48.0004 39.1088 48.0004 39.2894 47.9296Z" fill="#64963A"/>
<path d="M38.9214 48.7263C39.1298 48.5726 39.4268 48.6522 39.5304 48.8894C39.5711 48.9826 39.6455 49.057 39.7386 49.0976C39.9758 49.2012 40.0554 49.4983 39.9018 49.7066C39.8414 49.7884 39.8142 49.89 39.8256 49.991C39.8545 50.2482 39.637 50.4657 39.3798 50.4368C39.2788 50.4255 39.1772 50.4527 39.0954 50.513C38.8871 50.6667 38.59 50.5871 38.4864 50.3499C38.4457 50.2567 38.3714 50.1823 38.2782 50.1417C38.041 50.0381 37.9614 49.741 38.115 49.5327C38.1754 49.4509 38.2026 49.3493 38.1912 49.2483C38.1623 48.991 38.3798 48.7736 38.637 48.8025C38.738 48.8138 38.8396 48.7866 38.9214 48.7263Z" fill="#B3A16F"/>
<path d="M58.838 67.9707L54.1939 73.1785L60.5547 76.0472L53.7364 77.5308L57.1963 83.5904L50.8082 80.7829L50.0455 87.7189L46.5276 81.6928L41.8337 86.8558L42.5297 79.9128L35.6975 81.3308L40.3416 76.1229L33.9808 73.2542L40.799 71.7707L37.3392 65.7111L43.7273 68.5185L44.49 61.5826L48.0079 67.6087L52.7018 62.4456L52.0058 69.3886L58.838 67.9707Z" fill="#4C712F"/>
<path d="M55.1879 66.7306L52.5571 71.9557L58.3306 72.8986L53.131 75.5795L57.2477 79.7359L51.4654 78.8485L52.3528 84.6308L48.1964 80.5141L45.5155 85.7137L44.5726 79.9402L39.3475 82.571L41.9783 77.3459L36.2048 76.403L41.4044 73.7221L37.2877 69.5658L43.07 70.4531L42.1826 64.6708L46.339 68.7875L49.0199 63.5879L49.9628 69.3614L55.1879 66.7306Z" fill="#64963A"/>
<path d="M53.0529 71.3107L50.7308 73.9146L53.9112 75.349L50.5021 76.0907L52.232 79.1206L49.038 77.7168L48.6566 81.1848L46.8977 78.1718L44.5507 80.7533L44.8987 77.2818L41.4826 77.9907L43.8047 75.3868L40.6243 73.9525L44.0334 73.2107L42.3035 70.1809L45.4975 71.5846L45.8789 68.1166L47.6378 71.1297L49.9848 68.5482L49.6368 72.0197L53.0529 71.3107Z" fill="#78A24A"/>
<path d="M48.8124 72.4659C49.2228 72.2592 49.6593 72.6957 49.4526 73.1061C49.3078 73.3937 49.4839 73.7392 49.8016 73.7911C50.2551 73.8651 50.3517 74.4748 49.9433 74.6854C49.6571 74.8329 49.5964 75.2159 49.823 75.4446C50.1464 75.7711 49.8662 76.3211 49.412 76.2514C49.0937 76.2025 48.8195 76.4767 48.8684 76.795C48.9381 77.2492 48.3881 77.5294 48.0616 77.206C47.8329 76.9794 47.4499 77.0401 47.3024 77.3263C47.0918 77.7347 46.4821 77.6382 46.4081 77.1846C46.3562 76.8669 46.0107 76.6908 45.7231 76.8356C45.3127 77.0423 44.8762 76.6058 45.0829 76.1954C45.2277 75.9078 45.0517 75.5624 44.7339 75.5105C44.2804 75.4364 44.1838 74.8267 44.5923 74.6162C44.8784 74.4686 44.9391 74.0857 44.7125 73.8569C44.3891 73.5304 44.6694 72.9804 45.1236 73.0501C45.4418 73.099 45.716 72.8248 45.6671 72.5066C45.5974 72.0524 46.1474 71.7721 46.4739 72.0955C46.7027 72.3221 47.0856 72.2614 47.2332 71.9753C47.4437 71.5668 48.0534 71.6634 48.1274 72.1169C48.1793 72.4347 48.5248 72.6107 48.8124 72.4659Z" fill="#976FB3"/>
<path d="M38.3087 46.4994L35.5294 49.6161L39.3361 51.3328L35.2557 52.2207L37.3262 55.847L33.5033 54.1669L33.0468 58.3177L30.9416 54.7114L28.1325 57.8012L28.549 53.6462L24.4603 54.4948L27.2396 51.3781L23.433 49.6614L27.5133 48.7735L25.4428 45.1472L29.2657 46.8273L29.7222 42.6765L31.8275 46.2828L34.6365 43.193L34.22 47.348L38.3087 46.4994Z" fill="#4C712F"/>
<path d="M36.1243 45.7573L34.5499 48.8843L38.005 49.4485L34.8934 51.0529L37.357 53.5403L33.8966 53.0092L34.4276 56.4696L31.9402 54.006L30.3359 57.1177L29.7716 53.6626L26.6447 55.2369L28.219 52.11L24.7639 51.5457L27.8756 49.9414L25.412 47.454L28.8724 47.985L28.3413 44.5246L30.8287 46.9882L32.4331 43.8766L32.9973 47.3317L36.1243 45.7573Z" fill="#64963A"/>
<path d="M34.8466 48.4983L33.457 50.0566L35.3603 50.915L33.3201 51.3589L34.3554 53.1721L32.4439 52.332L32.2157 54.4074L31.163 52.6043L29.7585 54.1492L29.9668 52.0717L27.9224 52.496L29.312 50.9376L27.4087 50.0792L29.4489 49.6353L28.4137 47.8222L30.3251 48.6622L30.5533 46.5868L31.606 48.39L33.0105 46.8451L32.8022 48.9226L34.8466 48.4983Z" fill="#78A24A"/>
<path d="M32.3089 49.1896C32.5545 49.0659 32.8157 49.3271 32.6921 49.5727C32.6054 49.7448 32.7107 49.9516 32.9009 49.9826C33.1723 50.027 33.2301 50.3918 32.9857 50.5178C32.8144 50.6061 32.7781 50.8353 32.9137 50.9722C33.1072 51.1676 32.9395 51.4967 32.6677 51.455C32.4773 51.4258 32.3132 51.5898 32.3424 51.7803C32.3841 52.0521 32.055 52.2198 31.8596 52.0263C31.7227 51.8907 31.4935 51.927 31.4052 52.0983C31.2792 52.3427 30.9144 52.2849 30.87 52.0135C30.839 51.8233 30.6322 51.718 30.4601 51.8047C30.2145 51.9283 29.9533 51.6671 30.077 51.4215C30.1636 51.2494 30.0583 51.0427 29.8681 51.0116C29.5967 50.9673 29.5389 50.6024 29.7834 50.4764C29.9546 50.3881 29.9909 50.1589 29.8553 50.022C29.6618 49.8266 29.8295 49.4975 30.1013 49.5392C30.2918 49.5685 30.4559 49.4044 30.4266 49.2139C30.3849 48.9421 30.714 48.7744 30.9094 48.9679C31.0463 49.1035 31.2755 49.0672 31.3638 48.896C31.4898 48.6515 31.8547 48.7093 31.899 48.9807C31.9301 49.1709 32.1368 49.2762 32.3089 49.1896Z" fill="#B3A16F"/>
<path d="M77.3021 34.2354L75.9572 35.7435L77.7992 36.5743L75.8248 37.0039L76.8267 38.7587L74.9768 37.9457L74.7559 39.9542L73.7372 38.2092L72.3779 39.7043L72.5794 37.6937L70.6009 38.1043L71.9458 36.5962L70.1038 35.7655L72.0783 35.3358L71.0763 33.5811L72.9262 34.3941L73.1471 32.3855L74.1658 34.1306L75.5251 32.6354L75.3236 34.646L77.3021 34.2354Z" fill="#4C712F"/>
<path d="M76.2451 33.8763L75.4832 35.3895L77.1552 35.6625L75.6494 36.4388L76.8416 37.6425L75.1671 37.3855L75.4241 39.06L74.2204 37.8679L73.4441 39.3736L73.171 37.7016L71.6579 38.4635L72.4197 36.9504L70.7478 36.6773L72.2535 35.901L71.0614 34.6973L72.7359 34.9543L72.4789 33.2798L73.6826 34.472L74.4589 32.9662L74.7319 34.6382L76.2451 33.8763Z" fill="#64963A"/>
<path d="M75.6268 35.2026L74.9544 35.9567L75.8754 36.3721L74.8881 36.5869L75.3891 37.4643L74.4641 37.0578L74.3537 38.062L73.8443 37.1895L73.1647 37.9371L73.2655 36.9318L72.2762 37.1371L72.9486 36.383L72.0276 35.9677L73.0149 35.7529L72.5139 34.8755L73.4389 35.282L73.5493 34.2777L74.0587 35.1502L74.7383 34.4026L74.6375 35.4079L75.6268 35.2026Z" fill="#78A24A"/>
<path d="M74.3988 35.5372C74.5177 35.4773 74.6441 35.6037 74.5842 35.7226C74.5423 35.8059 74.5933 35.9059 74.6853 35.9209C74.8166 35.9424 74.8446 36.1189 74.7263 36.1799C74.6434 36.2226 74.6259 36.3335 74.6915 36.3998C74.7851 36.4943 74.704 36.6536 74.5724 36.6334C74.4803 36.6193 74.4009 36.6987 74.415 36.7908C74.4352 36.9223 74.276 37.0035 74.1814 36.9099C74.1152 36.8442 74.0043 36.8618 73.9615 36.9447C73.9006 37.063 73.724 37.035 73.7026 36.9037C73.6875 36.8116 73.5875 36.7607 73.5042 36.8026C73.3854 36.8624 73.259 36.736 73.3188 36.6172C73.3607 36.5339 73.3098 36.4339 73.2177 36.4188C73.0864 36.3974 73.0584 36.2208 73.1767 36.1599C73.2596 36.1171 73.2772 36.0062 73.2115 35.94C73.1179 35.8454 73.1991 35.6862 73.3306 35.7064C73.4227 35.7205 73.5021 35.6411 73.488 35.549C73.4678 35.4174 73.6271 35.3363 73.7216 35.4299C73.7879 35.4955 73.8988 35.478 73.9415 35.3951C74.0025 35.2768 74.179 35.3048 74.2005 35.4361C74.2155 35.5281 74.3155 35.5791 74.3988 35.5372Z" fill="#866FB3"/>
<path d="M76.2983 44.785L75.5304 48.4847L79.2902 48.1078L76.4943 50.6497L79.7576 52.5547L76.0016 52.9677L77.5219 56.427L74.2405 54.5534L73.4371 58.2457L71.8837 54.8012L69.0635 57.316L69.8313 53.6162L66.0715 53.9932L68.8674 51.4513L65.6042 49.5463L69.3601 49.1333L67.8398 45.674L71.1213 47.5475L71.9246 43.8553L73.4781 47.2998L76.2983 44.785Z" fill="#4C712F"/>
<path d="M74.2507 45.1917L74.4317 48.3544L77.3946 47.2334L75.6821 49.8985L78.7381 50.7331L75.786 51.8825L77.7678 54.354L74.704 53.5488L74.8545 56.7131L72.8491 54.2608L71.111 56.9093L70.93 53.7466L67.9671 54.8676L69.6797 52.2026L66.6237 51.368L69.5757 50.2185L67.5939 47.747L70.6578 48.5522L70.5072 45.3879L72.5126 47.8402L74.2507 45.1917Z" fill="#64963A"/>
<path d="M74.4896 47.9178L74.1057 49.7677L75.9855 49.5792L74.5876 50.8501L76.2192 51.8026L74.3412 52.0092L75.1014 53.7388L73.4607 52.802L73.059 54.6481L72.2823 52.9259L70.8722 54.1833L71.2561 52.3334L69.3762 52.5219L70.7742 51.251L69.1425 50.2984L71.0205 50.0919L70.2604 48.3623L71.9011 49.2991L72.3028 47.453L73.0795 49.1752L74.4896 47.9178Z" fill="#78A24A"/>
<path d="M72.8137 49.6076C72.9502 49.3996 73.2731 49.4861 73.2873 49.7345C73.2973 49.9086 73.4733 50.023 73.6364 49.9613C73.8692 49.8732 74.0795 50.133 73.945 50.3423C73.8507 50.489 73.926 50.685 74.0942 50.731C74.3342 50.7965 74.3517 51.1303 74.1198 51.2206C73.9574 51.2839 73.903 51.4867 74.0121 51.6227C74.1678 51.8168 73.9857 52.0972 73.745 52.0339C73.5764 51.9896 73.4132 52.1217 73.4215 52.2959C73.4334 52.5445 73.1213 52.6642 72.9638 52.4716C72.8534 52.3366 72.6437 52.3476 72.5481 52.4934C72.4115 52.7014 72.0887 52.6149 72.0745 52.3665C72.0645 52.1924 71.8884 52.0781 71.7253 52.1398C71.4926 52.2278 71.2822 51.9681 71.4168 51.7587C71.511 51.612 71.4358 51.416 71.2676 51.3701C71.0275 51.3045 71.01 50.9707 71.2419 50.8804C71.4044 50.8172 71.4587 50.6144 71.3497 50.4783C71.194 50.2842 71.376 50.0039 71.6167 50.0671C71.7853 50.1114 71.9485 49.9793 71.9402 49.8051C71.9284 49.5566 72.2404 49.4368 72.398 49.6294C72.5084 49.7644 72.718 49.7534 72.8137 49.6076Z" fill="#6F87B3"/>
<path d="M30.1383 32.5378C31.9155 32.3382 33.418 33.8407 33.2184 35.6179C33.14 36.3158 33.3281 37.0176 33.7449 37.5828C34.8064 39.0222 34.2564 41.0746 32.6175 41.7904C31.9739 42.0715 31.4602 42.5852 31.1791 43.2288C30.4633 44.8677 28.4109 45.4177 26.9715 44.3562C26.4063 43.9394 25.7046 43.7513 25.0067 43.8297C23.2294 44.0293 21.7269 42.5268 21.9265 40.7496C22.0049 40.0516 21.8168 39.3499 21.4 38.7847C20.3385 37.3453 20.8885 35.2929 22.5274 34.5771C23.171 34.296 23.6848 33.7823 23.9658 33.1387C24.6816 31.4998 26.734 30.9498 28.1734 32.0113C28.7386 32.4281 29.4404 32.6162 30.1383 32.5378Z" fill="#78A24A"/>
<path d="M28.283 33.9097C29.4463 33.4536 30.7319 34.1959 30.9186 35.4313C30.9919 35.9165 31.2457 36.3561 31.6292 36.6621C32.6058 37.4415 32.6058 38.926 31.6292 39.7054C31.2457 40.0115 30.9919 40.451 30.9186 40.9362C30.7319 42.1716 29.4463 42.9139 28.283 42.4578C27.8262 42.2787 27.3187 42.2787 26.8618 42.4578C25.6986 42.9139 24.413 42.1716 24.2263 40.9362C24.153 40.451 23.8992 40.0115 23.5157 39.7054C22.5391 38.926 22.5391 37.4415 23.5157 36.6621C23.8992 36.3561 24.153 35.9165 24.2263 35.4313C24.413 34.1959 25.6986 33.4536 26.8618 33.9097C27.3187 34.0888 27.8262 34.0888 28.283 33.9097Z" fill="#4C712F"/>
<path d="M28.7968 35.4896C29.6449 35.3943 30.3619 36.1113 30.2666 36.9594C30.2292 37.2924 30.3189 37.6273 30.5178 37.897C31.0244 38.5838 30.7619 39.5632 29.9799 39.9048C29.6727 40.0389 29.4276 40.284 29.2935 40.5912C28.9519 41.3732 27.9725 41.6357 27.2857 41.1291C27.016 40.9302 26.6811 40.8405 26.3481 40.8779C25.5 40.9731 24.783 40.2562 24.8783 39.4081C24.9157 39.0751 24.826 38.7402 24.6271 38.4705C24.1205 37.7837 24.383 36.8043 25.165 36.4627C25.4721 36.3286 25.7173 36.0834 25.8514 35.7763C26.193 34.9943 27.1724 34.7318 27.8592 35.2383C28.1289 35.4373 28.4638 35.527 28.7968 35.4896Z" fill="#64963A"/>
<path d="M27.8267 36.6543C28.243 36.4911 28.703 36.7567 28.7698 37.1988C28.7961 37.3724 28.8869 37.5297 29.0241 37.6392C29.3736 37.9181 29.3736 38.4493 29.0241 38.7282C28.8869 38.8377 28.7961 38.995 28.7698 39.1686C28.703 39.6107 28.243 39.8763 27.8267 39.7131C27.6633 39.6491 27.4817 39.6491 27.3182 39.7131C26.9019 39.8763 26.4419 39.6107 26.3751 39.1686C26.3489 38.995 26.258 38.8377 26.1208 38.7282C25.7714 38.4493 25.7714 37.9181 26.1208 37.6392C26.258 37.5297 26.3489 37.3724 26.3751 37.1988C26.4419 36.7567 26.9019 36.4911 27.3182 36.6543C27.4817 36.7184 27.6633 36.7184 27.8267 36.6543Z" fill="#B3A16F"/>
<path d="M65.0814 42.0677C66.8586 41.8681 68.3611 43.3706 68.1615 45.1478C68.0831 45.8457 68.2712 46.5475 68.688 47.1127C69.7495 48.5521 69.1995 50.6045 67.5606 51.3203C66.917 51.6014 66.4033 52.1151 66.1222 52.7587C65.4064 54.3976 63.354 54.9476 61.9147 53.8861C61.3494 53.4693 60.6477 53.2812 59.9498 53.3596C58.1725 53.5592 56.67 52.0567 56.8696 50.2795C56.948 49.5816 56.76 48.8798 56.3431 48.3146C55.2817 46.8752 55.8316 44.8228 57.4705 44.107C58.1141 43.8259 58.6279 43.3122 58.9089 42.6686C59.6247 41.0297 61.6772 40.4797 63.1165 41.5412C63.6817 41.958 64.3835 42.1461 65.0814 42.0677Z" fill="#78A24A"/>
<path d="M63.2261 43.4397C64.3894 42.9836 65.675 43.7259 65.8617 44.9613C65.935 45.4464 66.1888 45.886 66.5723 46.1921C67.5489 46.9715 67.5489 48.456 66.5723 49.2354C66.1888 49.5414 65.935 49.981 65.8617 50.4661C65.675 51.7016 64.3894 52.4438 63.2261 51.9878C62.7693 51.8087 62.2618 51.8087 61.805 51.9878C60.6417 52.4438 59.3561 51.7016 59.1694 50.4661C59.0961 49.981 58.8423 49.5414 58.4588 49.2354C57.4822 48.456 57.4822 46.9715 58.4588 46.1921C58.8423 45.886 59.0961 45.4464 59.1694 44.9613C59.3561 43.7259 60.6417 42.9836 61.805 43.4397C62.2618 43.6187 62.7693 43.6187 63.2261 43.4397Z" fill="#4C712F"/>
<path d="M63.7399 45.0195C64.588 44.9243 65.305 45.6413 65.2097 46.4893C65.1723 46.8224 65.262 47.1572 65.461 47.427C65.9675 48.1138 65.705 49.0932 64.923 49.4347C64.6159 49.5689 64.3707 49.814 64.2366 50.1211C63.895 50.9032 62.9156 51.1656 62.2288 50.6591C61.9591 50.4602 61.6242 50.3705 61.2912 50.4079C60.4431 50.5031 59.7262 49.7862 59.8214 48.9381C59.8588 48.605 59.7691 48.2702 59.5702 48.0005C59.0636 47.3136 59.3261 46.3342 60.1081 45.9927C60.4153 45.8586 60.6604 45.6134 60.7945 45.3063C61.1361 44.5242 62.1155 44.2618 62.8023 44.7683C63.072 44.9672 63.4069 45.0569 63.7399 45.0195Z" fill="#64963A"/>
<path d="M62.7699 46.1843C63.1861 46.0211 63.6462 46.2867 63.713 46.7288C63.7392 46.9024 63.83 47.0597 63.9672 47.1692C64.3167 47.4481 64.3167 47.9793 63.9672 48.2582C63.83 48.3677 63.7392 48.525 63.713 48.6986C63.6462 49.1407 63.1861 49.4063 62.7699 49.2431C62.6064 49.179 62.4248 49.179 62.2613 49.2431C61.845 49.4063 61.385 49.1407 61.3182 48.6986C61.292 48.525 61.2012 48.3677 61.0639 48.2582C60.7145 47.9793 60.7145 47.4481 61.0639 47.1692C61.2012 47.0597 61.292 46.9024 61.3182 46.7288C61.385 46.2867 61.845 46.0211 62.2613 46.1843C62.4248 46.2484 62.6064 46.2484 62.7699 46.1843Z" fill="#B3A16F"/>
<path d="M63.9059 65.4928C65.309 65.3353 66.4951 66.5214 66.3376 67.9245C66.2757 68.4755 66.4241 69.0295 66.7532 69.4758C67.5912 70.6121 67.1571 72.2324 65.8632 72.7975C65.3551 73.0194 64.9495 73.425 64.7276 73.9331C64.1625 75.227 62.5422 75.6612 61.4058 74.8231C60.9596 74.4941 60.4056 74.3456 59.8546 74.4075C58.4515 74.5651 57.2653 73.3789 57.4229 71.9758C57.4848 71.4248 57.3363 70.8708 57.0073 70.4246C56.1693 69.2883 56.6034 67.6679 57.8973 67.1028C58.4054 66.8809 58.811 66.4753 59.0329 65.9672C59.598 64.6733 61.2183 64.2392 62.3547 65.0772C62.8009 65.4063 63.3549 65.5547 63.9059 65.4928Z" fill="#78A24A"/>
<path d="M62.4412 66.576C63.3596 66.2159 64.3746 66.8019 64.5219 67.7773C64.5798 68.1603 64.7802 68.5073 65.0829 68.7489C65.8539 69.3642 65.8539 70.5362 65.0829 71.1515C64.7802 71.3931 64.5798 71.7402 64.5219 72.1232C64.3746 73.0985 63.3596 73.6845 62.4412 73.3245C62.0806 73.1831 61.6799 73.1831 61.3192 73.3245C60.4009 73.6845 59.3859 73.0985 59.2385 72.1232C59.1807 71.7402 58.9803 71.3931 58.6775 71.1515C57.9065 70.5362 57.9065 69.3642 58.6775 68.7489C58.9803 68.5073 59.1807 68.1603 59.2385 67.7773C59.3859 66.8019 60.4009 66.2159 61.3192 66.576C61.6799 66.7173 62.0806 66.7173 62.4412 66.576Z" fill="#4C712F"/>
<path d="M62.8468 67.8232C63.5164 67.748 64.0824 68.3141 64.0072 68.9836C63.9777 69.2465 64.0485 69.5109 64.2056 69.7238C64.6054 70.266 64.3983 71.0393 63.7808 71.3089C63.5384 71.4148 63.3448 71.6083 63.239 71.8508C62.9693 72.4682 62.1961 72.6754 61.6539 72.2755C61.4409 72.1185 61.1766 72.0476 60.9136 72.0772C60.2441 72.1524 59.6781 71.5863 59.7533 70.9168C59.7828 70.6539 59.712 70.3895 59.5549 70.1766C59.155 69.6343 59.3622 68.8611 59.9797 68.5915C60.2221 68.4856 60.4156 68.2921 60.5215 68.0496C60.7912 67.4322 61.5644 67.225 62.1066 67.6249C62.3196 67.7819 62.5839 67.8527 62.8468 67.8232Z" fill="#64963A"/>
<path d="M62.081 68.7427C62.4096 68.6139 62.7728 68.8236 62.8255 69.1726C62.8462 69.3097 62.9179 69.4338 63.0263 69.5203C63.3022 69.7405 63.3022 70.1599 63.0263 70.38C62.9179 70.4665 62.8462 70.5907 62.8255 70.7277C62.7728 71.0767 62.4096 71.2864 62.081 71.1576C61.9519 71.107 61.8085 71.107 61.6795 71.1576C61.3509 71.2864 60.9877 71.0767 60.9349 70.7277C60.9142 70.5907 60.8425 70.4665 60.7342 70.38C60.4583 70.1599 60.4583 69.7405 60.7342 69.5203C60.8425 69.4338 60.9142 69.3097 60.9349 69.1726C60.9877 68.8236 61.3509 68.6139 61.6795 68.7427C61.8085 68.7933 61.9519 68.7933 62.081 68.7427Z" fill="#B3A16F"/>
<path d="M52.5272 31.7622C53.8567 31.2409 55.3261 32.0893 55.5394 33.5013C55.6232 34.0558 55.9133 34.5582 56.3516 34.908C57.4678 35.7988 57.4678 37.4955 56.3516 38.3863C55.9133 38.7361 55.6232 39.2385 55.5394 39.793C55.3261 41.2051 53.8567 42.0534 52.5272 41.5322C52.0051 41.3275 51.4249 41.3275 50.9028 41.5322C49.5733 42.0534 48.1039 41.2051 47.8905 39.793C47.8068 39.2385 47.5167 38.7361 47.0784 38.3863C45.9622 37.4955 45.9622 35.7988 47.0784 34.908C47.5167 34.5582 47.8068 34.0558 47.8905 33.5013C48.1039 32.0893 49.5733 31.2409 50.9028 31.7622C51.4249 31.9669 52.0051 31.9669 52.5272 31.7622Z" fill="#78A24A"/>
<path d="M51.3797 33.2038C52.1827 32.6116 53.3277 32.9184 53.727 33.8327C53.8838 34.1918 54.1704 34.4784 54.5295 34.6352C55.4438 35.0345 55.7506 36.1795 55.1584 36.9825C54.9259 37.2978 54.821 37.6893 54.8647 38.0786C54.976 39.0701 54.1378 39.9083 53.1464 39.7969C52.757 39.7532 52.3655 39.8581 52.0502 40.0907C51.2472 40.6828 50.1022 40.376 49.7029 39.4617C49.5461 39.1027 49.2595 38.8161 48.9005 38.6593C47.9861 38.26 47.6793 37.1149 48.2715 36.312C48.504 35.9967 48.609 35.6052 48.5652 35.2158C48.4539 34.2243 49.2921 33.3861 50.2836 33.4975C50.6729 33.5412 51.0644 33.4363 51.3797 33.2038Z" fill="#4C712F"/>
<path d="M52.1025 34.3161C52.737 34.0674 53.4382 34.4722 53.54 35.146C53.5799 35.4106 53.7184 35.6503 53.9275 35.8173C54.4601 36.2423 54.4601 37.052 53.9275 37.477C53.7184 37.644 53.5799 37.8837 53.54 38.1483C53.4382 38.8221 52.737 39.2269 52.1025 38.9782C51.8534 38.8805 51.5766 38.8805 51.3274 38.9782C50.693 39.2269 49.9918 38.8221 49.89 38.1483C49.85 37.8837 49.7116 37.644 49.5025 37.477C48.9698 37.052 48.9698 36.2423 49.5025 35.8173C49.7116 35.6503 49.85 35.4106 49.89 35.146C49.9918 34.4722 50.693 34.0674 51.3274 34.3161C51.5766 34.4138 51.8534 34.4138 52.1025 34.3161Z" fill="#64963A"/>
<path d="M51.595 35.415C51.8824 35.2031 52.2921 35.3129 52.435 35.6401C52.4911 35.7686 52.5936 35.8711 52.7221 35.9272C53.0493 36.0701 53.1591 36.4798 52.9472 36.7672C52.864 36.88 52.8264 37.0201 52.8421 37.1594C52.8819 37.5142 52.582 37.8141 52.2272 37.7743C52.0879 37.7587 51.9478 37.7962 51.835 37.8794C51.5476 38.0913 51.1379 37.9815 50.995 37.6543C50.9389 37.5259 50.8363 37.4233 50.7079 37.3672C50.3807 37.2243 50.2709 36.8146 50.4828 36.5272C50.566 36.4144 50.6036 36.2743 50.5879 36.135C50.5481 35.7802 50.848 35.4803 51.2028 35.5201C51.3421 35.5358 51.4822 35.4982 51.595 35.415Z" fill="#B3A16F"/>
<path d="M51.8918 52.7281C53.2214 52.2068 54.6908 53.0552 54.9041 54.4672C54.9879 55.0217 55.278 55.5241 55.7163 55.8739C56.8325 56.7647 56.8325 58.4614 55.7163 59.3522C55.278 59.702 54.9879 60.2044 54.9041 60.7589C54.6908 62.171 53.2214 63.0193 51.8918 62.4981C51.3697 62.2934 50.7896 62.2934 50.2675 62.4981C48.938 63.0193 47.4686 62.171 47.2552 60.7589C47.1714 60.2044 46.8814 59.702 46.443 59.3522C45.3269 58.4614 45.3269 56.7647 46.443 55.8739C46.8814 55.5241 47.1714 55.0217 47.2552 54.4672C47.4686 53.0552 48.938 52.2068 50.2675 52.7281C50.7896 52.9327 51.3697 52.9327 51.8918 52.7281Z" fill="#78A24A"/>
<path d="M50.7444 54.1696C51.5474 53.5775 52.6924 53.8843 53.0917 54.7986C53.2485 55.1576 53.5351 55.4442 53.8941 55.601C54.8084 56.0004 55.1152 57.1454 54.5231 57.9483C54.2905 58.2637 54.1856 58.6551 54.2294 59.0445C54.3407 60.036 53.5025 60.8742 52.511 60.7628C52.1217 60.7191 51.7302 60.824 51.4149 61.0565C50.6119 61.6487 49.4669 61.3419 49.0676 60.4276C48.9108 60.0685 48.6242 59.7819 48.2651 59.6251C47.3508 59.2258 47.044 58.0808 47.6362 57.2779C47.8687 56.9625 47.9736 56.571 47.9299 56.1817C47.8185 55.1902 48.6567 54.352 49.6482 54.4634C50.0376 54.5071 50.4291 54.4022 50.7444 54.1696Z" fill="#4C712F"/>
<path d="M51.4672 55.282C52.1017 55.0332 52.8028 55.4381 52.9046 56.1119C52.9446 56.3765 53.083 56.6162 53.2922 56.7831C53.8248 57.2082 53.8248 58.0179 53.2922 58.4429C53.083 58.6098 52.9446 58.8496 52.9046 59.1142C52.8028 59.788 52.1017 60.1928 51.4672 59.9441C51.2181 59.8464 50.9412 59.8464 50.6921 59.9441C50.0577 60.1928 49.3565 59.788 49.2547 59.1142C49.2147 58.8496 49.0763 58.6098 48.8671 58.4429C48.3345 58.0179 48.3345 57.2082 48.8671 56.7831C49.0763 56.6162 49.2147 56.3765 49.2547 56.1119C49.3565 55.4381 50.0577 55.0332 50.6921 55.282C50.9412 55.3797 51.2181 55.3797 51.4672 55.282Z" fill="#64963A"/>
<path d="M50.9597 56.3808C51.247 56.1689 51.6568 56.2787 51.7996 56.6059C51.8558 56.7344 51.9583 56.8369 52.0868 56.893C52.414 57.0359 52.5238 57.4457 52.3119 57.733C52.2286 57.8458 52.1911 57.9859 52.2068 58.1252C52.2466 58.48 51.9467 58.78 51.5919 58.7401C51.4526 58.7245 51.3125 58.762 51.1996 58.8452C50.9123 59.0571 50.5026 58.9473 50.3597 58.6202C50.3036 58.4917 50.201 58.3891 50.0725 58.333C49.7454 58.1901 49.6356 57.7804 49.8475 57.4931C49.9307 57.3802 49.9682 57.2401 49.9526 57.1008C49.9127 56.746 50.2127 56.4461 50.5675 56.4859C50.7068 56.5016 50.8469 56.4641 50.9597 56.3808Z" fill="#B3A16F"/>
</g>
</g>
<defs>
<filter id="filter0_n_37_36" x="3.42995" y="0.699341" width="96.5701" height="96.5701" filterUnits="userSpaceOnUse" color-interpolation-filters="sRGB">
<feFlood flood-opacity="0" result="BackgroundImageFix"/>
<feBlend mode="normal" in="SourceGraphic" in2="BackgroundImageFix" result="shape"/>
<feTurbulence type="fractalNoise" baseFrequency="0.11627906560897827 0.11627906560897827" stitchTiles="stitch" numOctaves="3" result="noise" seed="2894" />
<feColorMatrix in="noise" type="luminanceToAlpha" result="alphaNoise" />
<feComponentTransfer in="alphaNoise" result="coloredNoise1">
<feFuncA type="discrete" tableValues="1 1 1 1 1 1 1 1 1 1 1 1 1 1 1 1 1 1 1 1 1 1 1 1 1 1 1 1 1 1 1 1 1 1 1 1 1 1 1 1 1 1 1 1 1 1 1 1 1 1 1 0 0 0 0 0 0 0 0 0 0 0 0 0 0 0 0 0 0 0 0 0 0 0 0 0 0 0 0 0 0 0 0 0 0 0 0 0 0 0 0 0 0 0 0 0 0 0 0 0 "/>
</feComponentTransfer>
<feComposite operator="in" in2="shape" in="coloredNoise1" result="noise1Clipped" />
<feFlood flood-color="rgba(100, 150, 58, 0.61)" result="color1Flood" />
<feComposite operator="in" in2="noise1Clipped" in="color1Flood" result="color1" />
<feMerge result="effect1_noise_37_36">
<feMergeNode in="shape" />
<feMergeNode in="color1" />
</feMerge>
</filter>
<clipPath id="clip0_37_36">
<rect width="100" height="100" fill="white"/>
</clipPath>
</defs>
</svg>
