<svg width="100" height="100" viewBox="0 0 100 100" fill="none" xmlns="http://www.w3.org/2000/svg">
<g clip-path="url(#clip0_37_37)">
<rect x="30.5" y="0.5" width="39" height="99" fill="#515253" stroke="black"/>
<rect x="99.5" y="30.5" width="39" height="99" transform="rotate(90 99.5 30.5)" fill="#515253" stroke="black"/>
<rect x="5.5" y="5.5" width="89" height="89" rx="44.5" fill="#515253" stroke="black"/>
<rect x="10.5" y="11.5" width="79" height="78" rx="39" fill="#A2A2A2" stroke="black"/>
<mask id="path-5-inside-1_37_37" fill="white">
<path d="M56.1439 78.4972C56.5666 79.5176 56.0821 80.6875 55.0616 81.1103L51.2657 82.6827C50.7757 82.8857 50.2245 82.8857 49.7345 82.6827L28.2843 73.798C27.7944 73.595 27.4053 73.2058 27.2023 72.7159L18.3175 51.2657C18.1145 50.7757 18.1145 50.2246 18.3175 49.7345L27.2023 28.2843C27.4052 27.7944 27.7944 27.4053 28.2843 27.2023L32.0801 25.6298C33.1006 25.2071 34.2705 25.6917 34.6932 26.7122L56.1439 78.4972ZM49.7345 18.3175C50.2245 18.1145 50.7757 18.1145 51.2657 18.3175L72.7159 27.2023C73.2058 27.4053 73.595 27.7944 73.798 28.2843L82.6827 49.7345C82.8857 50.2246 82.8857 50.7757 82.6827 51.2657L73.798 72.7159C73.595 73.2058 73.2057 73.595 72.7159 73.798L68.9191 75.3706C67.8986 75.7932 66.7287 75.3086 66.306 74.2882L44.8555 22.5025C44.4327 21.4819 44.9175 20.3118 45.9382 19.8892L49.7345 18.3175Z"/>
</mask>
<path d="M56.1439 78.4972C56.5666 79.5176 56.0821 80.6875 55.0616 81.1103L51.2657 82.6827C50.7757 82.8857 50.2245 82.8857 49.7345 82.6827L28.2843 73.798C27.7944 73.595 27.4053 73.2058 27.2023 72.7159L18.3175 51.2657C18.1145 50.7757 18.1145 50.2246 18.3175 49.7345L27.2023 28.2843C27.4052 27.7944 27.7944 27.4053 28.2843 27.2023L32.0801 25.6298C33.1006 25.2071 34.2705 25.6917 34.6932 26.7122L56.1439 78.4972ZM49.7345 18.3175C50.2245 18.1145 50.7757 18.1145 51.2657 18.3175L72.7159 27.2023C73.2058 27.4053 73.595 27.7944 73.798 28.2843L82.6827 49.7345C82.8857 50.2246 82.8857 50.7757 82.6827 51.2657L73.798 72.7159C73.595 73.2058 73.2057 73.595 72.7159 73.798L68.9191 75.3706C67.8986 75.7932 66.7287 75.3086 66.306 74.2882L44.8555 22.5025C44.4327 21.4819 44.9175 20.3118 45.9382 19.8892L49.7345 18.3175Z" fill="#D9D9D9"/>
<path d="M51.2657 82.6827L51.6484 83.6066L51.6484 83.6066L51.2657 82.6827ZM49.7345 82.6827L50.1172 81.7589L50.1172 81.7589L49.7345 82.6827ZM28.2843 73.798L27.9015 74.7218L27.9016 74.7219L28.2843 73.798ZM27.2023 72.7159L26.2784 73.0986L26.2784 73.0988L27.2023 72.7159ZM18.3175 51.2657L19.2414 50.8831L19.2414 50.8831L18.3175 51.2657ZM18.3175 49.7345L19.2414 50.1172L19.2414 50.1172L18.3175 49.7345ZM27.2023 28.2843L26.2784 27.9015L26.2784 27.9016L27.2023 28.2843ZM28.2843 27.2023L27.9016 26.2784L27.9015 26.2784L28.2843 27.2023ZM49.7345 18.3175L50.117 19.2414L50.1172 19.2414L49.7345 18.3175ZM51.2657 18.3175L50.883 19.2414L50.8831 19.2414L51.2657 18.3175ZM72.7159 27.2023L73.0988 26.2785L73.0986 26.2784L72.7159 27.2023ZM73.798 28.2843L74.7218 27.9016L74.7218 27.9016L73.798 28.2843ZM82.6827 49.7345L81.7588 50.1172L81.7588 50.1172L82.6827 49.7345ZM82.6827 51.2657L81.7588 50.8831L81.7588 50.8831L82.6827 51.2657ZM73.798 72.7159L74.7218 73.0988L74.7218 73.0986L73.798 72.7159ZM72.7159 73.798L73.0986 74.7219L73.0988 74.7218L72.7159 73.798ZM68.9191 75.3706L69.3018 76.2944L68.9191 75.3706ZM66.306 74.2882L67.2299 73.9055L66.306 74.2882ZM44.8555 22.5025L43.9316 22.8852L44.8555 22.5025ZM32.0801 25.6298L31.6973 24.706L32.0801 25.6298ZM34.6932 26.7122L33.7694 27.0949L34.6932 26.7122ZM55.0616 81.1103L54.6789 80.1864L55.0616 81.1103ZM56.1439 78.4972L57.0678 78.1145L56.1439 78.4972ZM55.0616 81.1103L54.6789 80.1864L50.883 81.7589L51.2657 82.6827L51.6484 83.6066L55.4443 82.0341L55.0616 81.1103ZM51.2657 82.6827L50.883 81.7589C50.638 81.8604 50.3622 81.8604 50.1172 81.7589L49.7345 82.6827L49.3518 83.6066C50.0869 83.9111 50.9133 83.9111 51.6484 83.6066L51.2657 82.6827ZM49.7345 82.6827L50.1172 81.7589L28.667 72.8741L28.2843 73.798L27.9016 74.7219L49.3518 83.6066L49.7345 82.6827ZM28.2843 73.798L28.667 72.8741C28.4222 72.7727 28.2276 72.5781 28.1261 72.3331L27.2023 72.7159L26.2784 73.0988C26.5829 73.8335 27.1666 74.4174 27.9015 74.7218L28.2843 73.798ZM27.2023 72.7159L28.1261 72.3333L19.2414 50.8831L18.3175 51.2657L17.3936 51.6484L26.2784 73.0986L27.2023 72.7159ZM18.3175 51.2657L19.2414 50.8831C19.1399 50.638 19.1399 50.3622 19.2414 50.1172L18.3175 49.7345L17.3936 49.3518C17.0891 50.0869 17.0891 50.9133 17.3936 51.6484L18.3175 51.2657ZM18.3175 49.7345L19.2414 50.1172L28.1261 28.667L27.2023 28.2843L26.2784 27.9016L17.3936 49.3518L18.3175 49.7345ZM27.2023 28.2843L28.1261 28.6671C28.2276 28.4221 28.4221 28.2276 28.6671 28.1261L28.2843 27.2023L27.9015 26.2784C27.1666 26.5829 26.5829 27.1667 26.2784 27.9015L27.2023 28.2843ZM28.2843 27.2023L28.667 28.1261L32.4628 26.5537L32.0801 25.6298L31.6973 24.706L27.9016 26.2784L28.2843 27.2023ZM34.6932 26.7122L33.7694 27.0949L55.22 78.8798L56.1439 78.4972L57.0678 78.1145L35.6171 26.3295L34.6932 26.7122ZM49.7345 18.3175L50.1172 19.2414C50.3622 19.1399 50.638 19.1399 50.883 19.2414L51.2657 18.3175L51.6484 17.3936C50.9133 17.0891 50.0869 17.0891 49.3518 17.3936L49.7345 18.3175ZM51.2657 18.3175L50.8831 19.2414L72.3332 28.1262L72.7159 27.2023L73.0986 26.2784L51.6484 17.3936L51.2657 18.3175ZM72.7159 27.2023L72.3331 28.1261C72.5781 28.2276 72.7727 28.4222 72.8741 28.667L73.798 28.2843L74.7218 27.9016C74.4173 27.1666 73.8334 26.5829 73.0988 26.2785L72.7159 27.2023ZM73.798 28.2843L72.8741 28.667L81.7588 50.1172L82.6827 49.7345L83.6066 49.3518L74.7218 27.9016L73.798 28.2843ZM82.6827 49.7345L81.7588 50.1172C81.8603 50.3622 81.8603 50.638 81.7588 50.8831L82.6827 51.2657L83.6066 51.6484C83.9111 50.9133 83.9111 50.0869 83.6066 49.3518L82.6827 49.7345ZM82.6827 51.2657L81.7588 50.8831L72.8741 72.3333L73.798 72.7159L74.7218 73.0986L83.6066 51.6484L82.6827 51.2657ZM73.798 72.7159L72.8741 72.3331C72.7726 72.578 72.578 72.7727 72.3331 72.8742L72.7159 73.798L73.0988 74.7218C73.8335 74.4173 74.4173 73.8335 74.7218 73.0988L73.798 72.7159ZM72.7159 73.798L72.3333 72.8741L68.5365 74.4467L68.9191 75.3706L69.3018 76.2944L73.0986 74.7219L72.7159 73.798ZM66.306 74.2882L67.2299 73.9055L45.7793 22.1198L44.8555 22.5025L43.9316 22.8852L65.3822 74.6708L66.306 74.2882ZM45.9382 19.8892L46.3207 20.8132L50.117 19.2414L49.7345 18.3175L49.352 17.3936L45.5556 18.9653L45.9382 19.8892ZM68.9191 75.3706L68.5365 74.4467C68.0262 74.658 67.4413 74.4157 67.2299 73.9055L66.306 74.2882L65.3822 74.6708C66.0162 76.2015 67.7711 76.9285 69.3018 76.2944L68.9191 75.3706ZM44.8555 22.5025L45.7793 22.1198C45.568 21.6095 45.8103 21.0245 46.3207 20.8132L45.9382 19.8892L45.5556 18.9653C44.0246 19.5992 43.2974 21.3543 43.9316 22.8852L44.8555 22.5025ZM32.0801 25.6298L32.4628 26.5537C32.973 26.3423 33.558 26.5846 33.7694 27.0949L34.6932 26.7122L35.6171 26.3295C34.983 24.7987 33.2281 24.0719 31.6973 24.706L32.0801 25.6298ZM55.0616 81.1103L55.4443 82.0341C56.975 81.4 57.7019 79.6452 57.0678 78.1145L56.1439 78.4972L55.22 78.8798C55.4314 79.3901 55.1891 79.975 54.6789 80.1864L55.0616 81.1103Z" fill="#8A9D77" mask="url(#path-5-inside-1_37_37)"/>
<mask id="path-7-outside-2_37_37" maskUnits="userSpaceOnUse" x="17.1651" y="17.1652" width="67" height="67" fill="black">
<rect fill="white" x="17.1651" y="17.1652" width="67" height="67"/>
<path d="M56.1439 78.4972C56.5666 79.5176 56.0821 80.6875 55.0616 81.1103L51.2657 82.6827C50.7757 82.8857 50.2245 82.8857 49.7345 82.6827L28.2843 73.798C27.7944 73.595 27.4053 73.2058 27.2023 72.7159L18.3175 51.2657C18.1145 50.7757 18.1145 50.2246 18.3175 49.7345L27.2023 28.2843C27.4052 27.7944 27.7944 27.4053 28.2843 27.2023L32.0801 25.6298C33.1006 25.2071 34.2705 25.6917 34.6932 26.7122L56.1439 78.4972ZM49.7345 18.3175C50.2245 18.1145 50.7757 18.1145 51.2657 18.3175L72.7159 27.2023C73.2058 27.4053 73.595 27.7944 73.798 28.2843L82.6827 49.7345C82.8857 50.2246 82.8857 50.7757 82.6827 51.2657L73.798 72.7159C73.595 73.2058 73.2057 73.595 72.7159 73.798L68.9191 75.3706C67.8986 75.7932 66.7287 75.3086 66.306 74.2882L44.8555 22.5025C44.4327 21.4819 44.9175 20.3118 45.9382 19.8892L49.7345 18.3175Z"/>
</mask>
<path d="M51.2657 82.6827L51.6484 83.6066L51.6484 83.6066L51.2657 82.6827ZM49.7345 82.6827L50.1172 81.7589L50.1172 81.7589L49.7345 82.6827ZM28.2843 73.798L27.9015 74.7218L27.9016 74.7219L28.2843 73.798ZM27.2023 72.7159L26.2784 73.0986L26.2784 73.0988L27.2023 72.7159ZM18.3175 51.2657L19.2414 50.8831L19.2414 50.8831L18.3175 51.2657ZM18.3175 49.7345L19.2414 50.1172L19.2414 50.1172L18.3175 49.7345ZM27.2023 28.2843L26.2784 27.9015L26.2784 27.9016L27.2023 28.2843ZM28.2843 27.2023L27.9016 26.2784L27.9015 26.2784L28.2843 27.2023ZM49.7345 18.3175L50.117 19.2414L50.1172 19.2414L49.7345 18.3175ZM51.2657 18.3175L50.883 19.2414L50.8831 19.2414L51.2657 18.3175ZM72.7159 27.2023L73.0988 26.2785L73.0986 26.2784L72.7159 27.2023ZM73.798 28.2843L74.7218 27.9016L74.7218 27.9016L73.798 28.2843ZM82.6827 49.7345L81.7588 50.1172L81.7588 50.1172L82.6827 49.7345ZM82.6827 51.2657L81.7588 50.8831L81.7588 50.8831L82.6827 51.2657ZM73.798 72.7159L74.7218 73.0988L74.7218 73.0986L73.798 72.7159ZM72.7159 73.798L73.0986 74.7219L73.0988 74.7218L72.7159 73.798ZM68.9191 75.3706L69.3018 76.2944L68.9191 75.3706ZM66.306 74.2882L67.2299 73.9055L66.306 74.2882ZM44.8555 22.5025L43.9316 22.8852L44.8555 22.5025ZM32.0801 25.6298L31.6973 24.706L32.0801 25.6298ZM34.6932 26.7122L33.7694 27.0949L34.6932 26.7122ZM55.0616 81.1103L54.6789 80.1864L55.0616 81.1103ZM56.1439 78.4972L57.0678 78.1145L56.1439 78.4972ZM55.0616 81.1103L54.6789 80.1864L50.883 81.7589L51.2657 82.6827L51.6484 83.6066L55.4443 82.0341L55.0616 81.1103ZM51.2657 82.6827L50.883 81.7589C50.638 81.8604 50.3622 81.8604 50.1172 81.7589L49.7345 82.6827L49.3518 83.6066C50.0869 83.9111 50.9133 83.9111 51.6484 83.6066L51.2657 82.6827ZM49.7345 82.6827L50.1172 81.7589L28.667 72.8741L28.2843 73.798L27.9016 74.7219L49.3518 83.6066L49.7345 82.6827ZM28.2843 73.798L28.667 72.8741C28.4222 72.7727 28.2276 72.5781 28.1261 72.3331L27.2023 72.7159L26.2784 73.0988C26.5829 73.8335 27.1666 74.4174 27.9015 74.7218L28.2843 73.798ZM27.2023 72.7159L28.1261 72.3333L19.2414 50.8831L18.3175 51.2657L17.3936 51.6484L26.2784 73.0986L27.2023 72.7159ZM18.3175 51.2657L19.2414 50.8831C19.1399 50.638 19.1399 50.3622 19.2414 50.1172L18.3175 49.7345L17.3936 49.3518C17.0891 50.0869 17.0891 50.9133 17.3936 51.6484L18.3175 51.2657ZM18.3175 49.7345L19.2414 50.1172L28.1261 28.667L27.2023 28.2843L26.2784 27.9016L17.3936 49.3518L18.3175 49.7345ZM27.2023 28.2843L28.1261 28.6671C28.2276 28.4221 28.4221 28.2276 28.6671 28.1261L28.2843 27.2023L27.9015 26.2784C27.1666 26.5829 26.5829 27.1667 26.2784 27.9015L27.2023 28.2843ZM28.2843 27.2023L28.667 28.1261L32.4628 26.5537L32.0801 25.6298L31.6973 24.706L27.9016 26.2784L28.2843 27.2023ZM34.6932 26.7122L33.7694 27.0949L55.22 78.8798L56.1439 78.4972L57.0678 78.1145L35.6171 26.3295L34.6932 26.7122ZM49.7345 18.3175L50.1172 19.2414C50.3622 19.1399 50.638 19.1399 50.883 19.2414L51.2657 18.3175L51.6484 17.3936C50.9133 17.0891 50.0869 17.0891 49.3518 17.3936L49.7345 18.3175ZM51.2657 18.3175L50.8831 19.2414L72.3332 28.1262L72.7159 27.2023L73.0986 26.2784L51.6484 17.3936L51.2657 18.3175ZM72.7159 27.2023L72.3331 28.1261C72.5781 28.2276 72.7727 28.4222 72.8741 28.667L73.798 28.2843L74.7218 27.9016C74.4173 27.1666 73.8334 26.5829 73.0988 26.2785L72.7159 27.2023ZM73.798 28.2843L72.8741 28.667L81.7588 50.1172L82.6827 49.7345L83.6066 49.3518L74.7218 27.9016L73.798 28.2843ZM82.6827 49.7345L81.7588 50.1172C81.8603 50.3622 81.8603 50.638 81.7588 50.8831L82.6827 51.2657L83.6066 51.6484C83.9111 50.9133 83.9111 50.0869 83.6066 49.3518L82.6827 49.7345ZM82.6827 51.2657L81.7588 50.8831L72.8741 72.3333L73.798 72.7159L74.7218 73.0986L83.6066 51.6484L82.6827 51.2657ZM73.798 72.7159L72.8741 72.3331C72.7726 72.578 72.578 72.7727 72.3331 72.8742L72.7159 73.798L73.0988 74.7218C73.8335 74.4173 74.4173 73.8335 74.7218 73.0988L73.798 72.7159ZM72.7159 73.798L72.3333 72.8741L68.5365 74.4467L68.9191 75.3706L69.3018 76.2944L73.0986 74.7219L72.7159 73.798ZM66.306 74.2882L67.2299 73.9055L45.7793 22.1198L44.8555 22.5025L43.9316 22.8852L65.3822 74.6708L66.306 74.2882ZM45.9382 19.8892L46.3207 20.8132L50.117 19.2414L49.7345 18.3175L49.352 17.3936L45.5556 18.9653L45.9382 19.8892ZM68.9191 75.3706L68.5365 74.4467C68.0262 74.658 67.4413 74.4157 67.2299 73.9055L66.306 74.2882L65.3822 74.6708C66.0162 76.2015 67.7711 76.9285 69.3018 76.2944L68.9191 75.3706ZM44.8555 22.5025L45.7793 22.1198C45.568 21.6095 45.8103 21.0245 46.3207 20.8132L45.9382 19.8892L45.5556 18.9653C44.0246 19.5992 43.2974 21.3543 43.9316 22.8852L44.8555 22.5025ZM32.0801 25.6298L32.4628 26.5537C32.973 26.3423 33.558 26.5846 33.7694 27.0949L34.6932 26.7122L35.6171 26.3295C34.983 24.7987 33.2281 24.0719 31.6973 24.706L32.0801 25.6298ZM55.0616 81.1103L55.4443 82.0341C56.975 81.4 57.7019 79.6452 57.0678 78.1145L56.1439 78.4972L55.22 78.8798C55.4314 79.3901 55.1891 79.975 54.6789 80.1864L55.0616 81.1103Z" fill="black" mask="url(#path-7-outside-2_37_37)"/>
<mask id="mask0_37_37" style="mask-type:alpha" maskUnits="userSpaceOnUse" x="19" y="19" width="63" height="63">
<path d="M55.9779 77.7267C56.4005 78.7471 55.916 79.9169 54.8957 80.3397L51.2656 81.8438C50.7756 82.0468 50.2244 82.0468 49.7344 81.8438L28.8779 73.2051C28.3879 73.0021 27.9979 72.6121 27.7949 72.1221L19.1563 51.2656C18.9533 50.7756 18.9533 50.2245 19.1563 49.7344L27.7949 28.8779C27.9979 28.3879 28.3879 27.9979 28.8779 27.7949L32.5076 26.291C33.5281 25.8682 34.6982 26.3528 35.1209 27.3734L55.9779 77.7267ZM49.7344 19.1563C50.2244 18.9533 50.7756 18.9533 51.2656 19.1563L72.1221 27.7949C72.6121 27.9979 73.0021 28.3879 73.2051 28.8779L81.8438 49.7344C82.0467 50.2245 82.0467 50.7756 81.8438 51.2656L73.2051 72.1221C73.0021 72.6121 72.6121 73.0021 72.1221 73.2051L68.4912 74.7086C67.4707 75.1311 66.3009 74.6465 65.8783 73.6261L45.0213 23.2728C44.5986 22.2522 45.0833 21.0822 46.1039 20.6596L49.7344 19.1563Z" fill="#D9D9D9"/>
</mask>
<g mask="url(#mask0_37_37)">
<g filter="url(#filter0_n_37_37)">
<rect x="99" y="50.4443" width="70.0823" height="66.4884" transform="rotate(135 99 50.4443)" fill="#0A467E"/>
</g>
<path d="M86.3617 55.7038C86.883 57.0334 86.0346 58.5028 84.6226 58.7161C84.0681 58.7999 83.5657 59.09 83.2159 59.5283C82.3251 60.6445 80.6284 60.6445 79.7376 59.5283C79.3878 59.09 78.8854 58.7999 78.3309 58.7161C76.9188 58.5028 76.0705 57.0334 76.5917 55.7038C76.7964 55.1817 76.7964 54.6016 76.5917 54.0795C76.0705 52.75 76.9188 51.2806 78.3309 51.0672C78.8854 50.9834 79.3878 50.6934 79.7376 50.2551C80.6284 49.1389 82.3251 49.1389 83.2159 50.2551C83.5657 50.6934 84.0681 50.9834 84.6226 51.0672C86.0346 51.2806 86.883 52.75 86.3617 54.0795C86.1571 54.6016 86.1571 55.1817 86.3617 55.7038Z" fill="#78A24A"/>
<path d="M84.9202 54.5564C85.5123 55.3594 85.2055 56.5044 84.2912 56.9037C83.9322 57.0605 83.6456 57.3471 83.4888 57.7062C83.0895 58.6205 81.9444 58.9273 81.1415 58.3351C80.8262 58.1026 80.4347 57.9977 80.0453 58.0414C79.0538 58.1527 78.2156 57.3145 78.327 56.3231C78.3707 55.9337 78.2658 55.5422 78.0333 55.2269C77.4411 54.4239 77.7479 53.2789 78.6622 52.8796C79.0213 52.7228 79.3079 52.4362 79.4647 52.0772C79.864 51.1628 81.009 50.856 81.8119 51.4482C82.1273 51.6807 82.5188 51.7857 82.9081 51.7419C83.8996 51.6306 84.7378 52.4688 84.6264 53.4603C84.5827 53.8496 84.6876 54.2411 84.9202 54.5564Z" fill="#4C712F"/>
<path d="M83.8078 55.2792C84.0565 55.9137 83.6517 56.6149 82.9779 56.7167C82.7133 56.7566 82.4735 56.8951 82.3066 57.1042C81.8816 57.6368 81.0719 57.6368 80.6468 57.1042C80.4799 56.8951 80.2402 56.7566 79.9756 56.7167C79.3018 56.6149 78.8969 55.9137 79.1457 55.2792C79.2434 55.0301 79.2434 54.7533 79.1457 54.5041C78.8969 53.8697 79.3018 53.1685 79.9756 53.0667C80.2402 53.0267 80.4799 52.8883 80.6468 52.6792C81.0719 52.1465 81.8816 52.1465 82.3066 52.6792C82.4735 52.8883 82.7133 53.0267 82.9779 53.0667C83.6517 53.1685 84.0565 53.8697 83.8078 54.5041C83.7101 54.7533 83.7101 55.0301 83.8078 55.2792Z" fill="#64963A"/>
<path d="M82.7089 54.7717C82.9208 55.0591 82.811 55.4688 82.4839 55.6117C82.3554 55.6678 82.2528 55.7704 82.1967 55.8988C82.0538 56.226 81.6441 56.3358 81.3568 56.1239C81.2439 56.0407 81.1038 56.0031 80.9645 56.0188C80.6097 56.0586 80.3098 55.7587 80.3496 55.4039C80.3653 55.2646 80.3278 55.1245 80.2445 55.0117C80.0326 54.7243 80.1424 54.3146 80.4696 54.1717C80.5981 54.1156 80.7006 54.0131 80.7567 53.8846C80.8996 53.5574 81.3094 53.4476 81.5967 53.6595C81.7095 53.7427 81.8496 53.7803 81.9889 53.7646C82.3437 53.7248 82.6437 54.0247 82.6038 54.3795C82.5882 54.5188 82.6257 54.6589 82.7089 54.7717Z" fill="#B3A16F"/>
<path d="M43.2637 30.2784C43.7771 31.5879 42.9415 33.0352 41.5508 33.2453C41.0047 33.3278 40.5098 33.6135 40.1653 34.0452C39.2879 35.1446 37.6168 35.1446 36.7394 34.0452C36.3949 33.6135 35.9001 33.3278 35.3539 33.2453C33.9632 33.0352 33.1276 31.5879 33.641 30.2784C33.8426 29.7642 33.8426 29.1928 33.641 28.6786C33.1276 27.3691 33.9632 25.9219 35.3539 25.7117C35.9001 25.6292 36.3949 25.3435 36.7394 24.9118C37.6168 23.8124 39.2879 23.8124 40.1653 24.9118C40.5098 25.3435 41.0047 25.6292 41.5508 25.7117C42.9415 25.9219 43.7771 27.3691 43.2637 28.6786C43.0621 29.1928 43.0621 29.7642 43.2637 30.2784Z" fill="#78A24A"/>
<path d="M41.8438 29.1483C42.4271 29.9391 42.1249 31.0669 41.2243 31.4602C40.8707 31.6146 40.5884 31.8969 40.434 32.2505C40.0407 33.151 38.913 33.4532 38.1221 32.87C37.8115 32.641 37.4259 32.5376 37.0425 32.5807C36.0659 32.6904 35.2404 31.8648 35.35 30.8883C35.3931 30.5048 35.2898 30.1192 35.0608 29.8086C34.4775 29.0178 34.7797 27.89 35.6802 27.4968C36.0339 27.3423 36.3161 27.06 36.4706 26.7064C36.8639 25.8059 37.9916 25.5037 38.7825 26.0869C39.093 26.316 39.4786 26.4193 39.8621 26.3762C40.8386 26.2666 41.6642 27.0921 41.5545 28.0686C41.5115 28.4521 41.6148 28.8377 41.8438 29.1483Z" fill="#4C712F"/>
<path d="M40.7483 29.8602C40.9932 30.4851 40.5945 31.1757 39.9309 31.2759C39.6703 31.3153 39.4341 31.4516 39.2697 31.6576C38.8511 32.1822 38.0536 32.1822 37.635 31.6576C37.4706 31.4516 37.2344 31.3153 36.9738 31.2759C36.3102 31.1757 35.9115 30.4851 36.1565 29.8602C36.2527 29.6148 36.2527 29.3422 36.1565 29.0968C35.9115 28.4719 36.3102 27.7813 36.9738 27.681C37.2344 27.6416 37.4706 27.5053 37.635 27.2993C38.0536 26.7747 38.8511 26.7747 39.2697 27.2993C39.4341 27.5053 39.6703 27.6416 39.9309 27.681C40.5945 27.7813 40.9932 28.4719 40.7483 29.0968C40.6521 29.3422 40.6521 29.6148 40.7483 29.8602Z" fill="#64963A"/>
<path d="M39.6659 29.3604C39.8746 29.6434 39.7665 30.0469 39.4443 30.1876C39.3177 30.2429 39.2167 30.3439 39.1614 30.4705C39.0207 30.7927 38.6172 30.9008 38.3342 30.6921C38.223 30.6102 38.0851 30.5732 37.9478 30.5886C37.5984 30.6279 37.303 30.3324 37.3422 29.983C37.3576 29.8458 37.3207 29.7078 37.2387 29.5967C37.03 29.3137 37.1381 28.9101 37.4604 28.7694C37.5869 28.7141 37.6879 28.6131 37.7432 28.4866C37.8839 28.1643 38.2875 28.0562 38.5705 28.2649C38.6816 28.3469 38.8196 28.3838 38.9568 28.3684C39.3062 28.3292 39.6016 28.6246 39.5624 28.974C39.547 29.1113 39.584 29.2492 39.6659 29.3604Z" fill="#B3A16F"/>
<path d="M78.6695 55.5269L74.4781 53.4166L73.7217 58.0479L71.5712 53.877L68.2371 57.1793L68.9489 52.5409L64.3106 53.2527L67.6128 49.9186L63.4419 47.7681L68.0732 47.0117L65.9629 42.8204L70.1543 44.9307L70.9106 40.2994L73.0611 44.4703L76.3952 41.168L75.6834 45.8064L80.3218 45.0946L77.0195 48.4287L81.1905 50.5792L76.5591 51.3355L78.6695 55.5269Z" fill="#4C712F"/>
<path d="M78.8397 52.94L74.9875 52.1406L75.38 56.0552L72.7335 53.1441L70.75 56.5418L70.32 52.6311L66.7182 54.214L68.669 50.7975L64.8247 49.9611L68.411 48.3436L65.7926 45.4073L69.6447 46.2068L69.2523 42.2922L71.8988 45.2032L73.8823 41.8056L74.3123 45.7162L77.914 44.1333L75.9633 47.5498L79.8076 48.3863L76.2212 50.0037L78.8397 52.94Z" fill="#64963A"/>
<path d="M75.4928 52.3503L73.3971 51.2951L73.019 53.6108L71.9437 51.5253L70.2767 53.1765L70.6326 50.8573L68.3134 51.2132L69.9645 49.5461L67.879 48.4709L70.1947 48.0927L69.1395 45.997L71.2352 47.0522L71.6134 44.7365L72.6887 46.822L74.3557 45.1708L73.9998 47.49L76.319 47.1341L74.6679 48.8012L76.7533 49.8764L74.4377 50.2546L75.4928 52.3503Z" fill="#78A24A"/>
<path d="M74.0043 49.7968C74.21 50.0274 74.0025 50.3869 73.6999 50.3241C73.4878 50.2801 73.2941 50.4546 73.3157 50.67C73.3465 50.9775 72.9673 51.1464 72.7594 50.9177C72.6137 50.7575 72.3544 50.7848 72.2452 50.9718C72.0894 51.2387 71.6834 51.1523 71.6496 50.8452C71.626 50.6299 71.4001 50.4995 71.2019 50.5867C70.919 50.711 70.6412 50.4025 70.7945 50.1341C70.9018 49.9461 70.7958 49.7079 70.5842 49.6619C70.2822 49.5962 70.2388 49.1833 70.5205 49.0563C70.7179 48.9673 70.7721 48.7122 70.628 48.5506C70.4223 48.3199 70.6299 47.9604 70.9325 48.0232C71.1445 48.0673 71.3383 47.8928 71.3167 47.6773C71.2858 47.3698 71.6651 47.201 71.8729 47.4296C72.0186 47.5899 72.2779 47.5626 72.3871 47.3756C72.5429 47.1087 72.9489 47.195 72.9827 47.5022C73.0064 47.7175 73.2322 47.8478 73.4304 47.7607C73.7134 47.6364 73.9911 47.9448 73.8379 48.2132C73.7305 48.4013 73.8366 48.6395 74.0482 48.6855C74.3501 48.7512 74.3935 49.164 74.1118 49.2911C73.9144 49.3801 73.8602 49.6352 74.0043 49.7968Z" fill="#B36F6F"/>
<path d="M53.6215 39.5973C53.9994 40.5612 53.3843 41.6266 52.3605 41.7813C51.9585 41.842 51.5942 42.0524 51.3406 42.3701C50.6948 43.1794 49.4646 43.1794 48.8187 42.3701C48.5651 42.0524 48.2008 41.842 47.7988 41.7813C46.775 41.6266 46.16 40.5612 46.5379 39.5973C46.6863 39.2187 46.6863 38.7981 46.5379 38.4196C46.16 37.4556 46.775 36.3903 47.7988 36.2356C48.2008 36.1748 48.5651 35.9645 48.8187 35.6467C49.4646 34.8375 50.6948 34.8375 51.3406 35.6467C51.5942 35.9645 51.9585 36.1748 52.3605 36.2356C53.3843 36.3903 53.9994 37.4556 53.6215 38.4196C53.4731 38.7981 53.4731 39.2187 53.6215 39.5973Z" fill="#78A24A"/>
<path d="M52.5763 38.7654C53.0057 39.3475 52.7832 40.1777 52.1203 40.4672C51.86 40.5809 51.6522 40.7887 51.5385 41.049C51.249 41.7119 50.4188 41.9344 49.8366 41.505C49.608 41.3364 49.3242 41.2604 49.0419 41.2921C48.323 41.3728 47.7153 40.7651 47.796 40.0462C47.8277 39.7639 47.7517 39.4801 47.5831 39.2515C47.1537 38.6693 47.3762 37.8391 48.0391 37.5496C48.2994 37.4359 48.5072 37.2281 48.6209 36.9678C48.9104 36.3049 49.7406 36.0825 50.3227 36.5118C50.5514 36.6804 50.8352 36.7565 51.1175 36.7248C51.8364 36.644 52.4441 37.2517 52.3634 37.9706C52.3317 38.2529 52.4077 38.5367 52.5763 38.7654Z" fill="#4C712F"/>
<path d="M51.7698 39.2894C51.9501 39.7494 51.6566 40.2578 51.1681 40.3316C50.9762 40.3606 50.8024 40.461 50.6814 40.6126C50.3732 40.9988 49.7862 40.9988 49.478 40.6126C49.357 40.461 49.1831 40.3606 48.9913 40.3316C48.5028 40.2578 48.2093 39.7494 48.3896 39.2894C48.4604 39.1088 48.4604 38.9081 48.3896 38.7275C48.2093 38.2675 48.5028 37.7591 48.9913 37.6853C49.1831 37.6563 49.357 37.5559 49.478 37.4043C49.7862 37.0181 50.3732 37.0181 50.6814 37.4043C50.8024 37.5559 50.9762 37.6563 51.1681 37.6853C51.6566 37.7591 51.9501 38.2675 51.7698 38.7275C51.699 38.9081 51.699 39.1088 51.7698 39.2894Z" fill="#64963A"/>
<path d="M50.9731 38.9215C51.1267 39.1298 51.0471 39.4269 50.8099 39.5305C50.7168 39.5712 50.6424 39.6455 50.6017 39.7387C50.4981 39.9759 50.2011 40.0555 49.9927 39.9018C49.9109 39.8415 49.8093 39.8143 49.7083 39.8256C49.4511 39.8545 49.2336 39.6371 49.2625 39.3798C49.2739 39.2788 49.2467 39.1772 49.1863 39.0954C49.0327 38.8871 49.1123 38.5901 49.3495 38.4865C49.4426 38.4458 49.517 38.3714 49.5577 38.2783C49.6613 38.041 49.9583 37.9615 50.1667 38.1151C50.2485 38.1754 50.3501 38.2026 50.4511 38.1913C50.7083 38.1624 50.9258 38.3799 50.8969 38.6371C50.8855 38.7381 50.9127 38.8397 50.9731 38.9215Z" fill="#B3A16F"/>
<path d="M31.7287 58.838L26.5208 54.1939L23.6521 60.5547L22.1685 53.7364L16.1089 57.1963L18.9164 50.8082L11.9804 50.0455L18.0065 46.5276L12.8435 41.8337L19.7865 42.5297L18.3685 35.6975L23.5764 40.3416L26.4451 33.9808L27.9286 40.7991L33.9883 37.3392L31.1808 43.7273L38.1168 44.49L32.0907 48.0079L37.2537 52.7018L30.3107 52.0058L31.7287 58.838Z" fill="#4C712F"/>
<path d="M32.9687 55.1879L27.7436 52.5571L26.8007 58.3306L24.1199 53.131L19.9635 57.2477L20.8508 51.4654L15.0685 52.3528L19.1852 48.1964L13.9856 45.5155L19.7591 44.5726L17.1284 39.3475L22.3534 41.9783L23.2963 36.2048L25.9772 41.4044L30.1336 37.2877L29.2462 43.07L35.0285 42.1826L30.9119 46.339L36.1114 49.0199L30.3379 49.9628L32.9687 55.1879Z" fill="#64963A"/>
<path d="M28.3886 53.0529L25.7847 50.7308L24.3503 53.9112L23.6086 50.5021L20.5788 52.232L21.9825 49.038L18.5145 48.6566L21.5276 46.8977L18.9461 44.5507L22.4175 44.8987L21.7086 41.4826L24.3125 43.8047L25.7469 40.6243L26.4886 44.0334L29.5184 42.3035L28.1147 45.4975L31.5827 45.8789L28.5696 47.6378L31.1511 49.9848L27.6797 49.6368L28.3886 53.0529Z" fill="#78A24A"/>
<path d="M27.2335 48.8124C27.4401 49.2228 27.0037 49.6593 26.5932 49.4526C26.3056 49.3078 25.9602 49.4839 25.9083 49.8016C25.8342 50.2551 25.2246 50.3517 25.014 49.9433C24.8664 49.6571 24.4835 49.5964 24.2547 49.823C23.9282 50.1464 23.3783 49.8662 23.448 49.412C23.4968 49.0937 23.2227 48.8195 22.9044 48.8684C22.4502 48.9381 22.17 48.3881 22.4933 48.0616C22.7199 47.8329 22.6593 47.4499 22.3731 47.3024C21.9646 47.0918 22.0612 46.4821 22.5147 46.4081C22.8325 46.3562 23.0085 46.0107 22.8637 45.7231C22.6571 45.3127 23.0935 44.8762 23.504 45.0829C23.7915 45.2277 24.137 45.0517 24.1889 44.7339C24.263 44.2804 24.8726 44.1838 25.0832 44.5923C25.2307 44.8784 25.6137 44.9391 25.8425 44.7125C26.1689 44.3891 26.7189 44.6694 26.6492 45.1236C26.6004 45.4418 26.8745 45.716 27.1928 45.6671C27.647 45.5974 27.9272 46.1474 27.6038 46.4739C27.3773 46.7027 27.4379 47.0856 27.7241 47.2332C28.1325 47.4437 28.036 48.0534 27.5825 48.1274C27.2647 48.1793 27.0887 48.5248 27.2335 48.8124Z" fill="#976FB3"/>
<path d="M53.1999 38.3087L50.0833 35.5295L48.3665 39.3361L47.4787 35.2557L43.8523 37.3262L45.5324 33.5033L41.3816 33.0469L44.9879 30.9416L41.8981 28.1325L46.0531 28.5491L45.2046 24.4604L48.3212 27.2396L50.038 23.433L50.9258 27.5134L54.5522 25.4428L52.872 29.2658L57.0229 29.7222L53.4166 31.8275L56.5063 34.6365L52.3513 34.22L53.1999 38.3087Z" fill="#4C712F"/>
<path d="M53.942 36.1243L50.815 34.5499L50.2508 38.0051L48.6464 34.8934L46.159 37.357L46.6901 33.8966L43.2297 34.4277L45.6933 31.9403L42.5816 30.3359L46.0368 29.7717L44.4624 26.6447L47.5893 28.2191L48.1536 24.7639L49.7579 27.8756L52.2453 25.412L51.7143 28.8724L55.1747 28.3414L52.7111 30.8288L55.8228 32.4331L52.3676 32.9974L53.942 36.1243Z" fill="#64963A"/>
<path d="M51.201 34.8466L49.6427 33.457L48.7843 35.3603L48.3404 33.3201L46.5272 34.3554L47.3673 32.4439L45.2919 32.2157L47.095 31.1631L45.5501 29.7585L47.6276 29.9668L47.2033 27.9224L48.7617 29.3121L49.62 27.4088L50.064 29.4489L51.8771 28.4137L51.0371 30.3251L53.1125 30.5534L51.3093 31.606L52.8542 33.0105L50.7767 32.8023L51.201 34.8466Z" fill="#78A24A"/>
<path d="M50.5097 32.309C50.6334 32.5546 50.3722 32.8158 50.1266 32.6921C49.9545 32.6055 49.7477 32.7108 49.7167 32.901C49.6723 33.1724 49.3075 33.2302 49.1815 32.9857C49.0932 32.8145 48.864 32.7782 48.7271 32.9138C48.5317 33.1073 48.2026 32.9396 48.2443 32.6678C48.2735 32.4773 48.1095 32.3132 47.919 32.3425C47.6472 32.3842 47.4795 32.0551 47.673 31.8597C47.8086 31.7228 47.7723 31.4936 47.601 31.4053C47.3566 31.2793 47.4144 30.9144 47.6858 30.8701C47.876 30.839 47.9813 30.6323 47.8947 30.4602C47.771 30.2146 48.0322 29.9534 48.2778 30.0771C48.4499 30.1637 48.6567 30.0584 48.6877 29.8682C48.732 29.5968 49.0969 29.539 49.2229 29.7834C49.3112 29.9547 49.5404 29.991 49.6773 29.8554C49.8727 29.6619 50.2018 29.8296 50.1601 30.1014C50.1309 30.2919 50.2949 30.4559 50.4854 30.4267C50.7572 30.385 50.9249 30.7141 50.7314 30.9095C50.5958 31.0464 50.6321 31.2756 50.8033 31.3639C51.0478 31.4899 50.99 31.8547 50.7186 31.8991C50.5284 31.9301 50.4231 32.1369 50.5097 32.309Z" fill="#B3A16F"/>
<path d="M65.4639 77.3021L63.9558 75.9572L63.1251 77.7992L62.6955 75.8247L60.9407 76.8267L61.7537 74.9768L59.7451 74.7559L61.4902 73.7372L59.9951 72.3779L62.0056 72.5794L61.595 70.6009L63.1032 71.9458L63.9339 70.1038L64.3635 72.0782L66.1183 71.0763L65.3053 72.9262L67.3139 73.1471L65.5688 74.1658L67.0639 75.5251L65.0533 75.3236L65.4639 77.3021Z" fill="#4C712F"/>
<path d="M65.823 76.2451L64.3099 75.4832L64.0368 77.1551L63.2605 75.6494L62.0569 76.8415L62.3138 75.1671L60.6394 75.424L61.8315 74.2204L60.3258 73.4441L61.9977 73.171L61.2359 71.6579L62.749 72.4197L63.022 70.7478L63.7984 72.2535L65.002 71.0614L64.745 72.7359L66.4195 72.4789L65.2274 73.6825L66.7331 74.4589L65.0612 74.7319L65.823 76.2451Z" fill="#64963A"/>
<path d="M64.4967 75.6268L63.7426 74.9543L63.3272 75.8753L63.1124 74.8881L62.235 75.3891L62.6415 74.4641L61.6373 74.3537L62.5098 73.8443L61.7622 73.1647L62.7675 73.2655L62.5622 72.2762L63.3163 72.9486L63.7317 72.0276L63.9465 73.0149L64.8239 72.5139L64.4174 73.4389L65.4216 73.5493L64.5491 74.0587L65.2967 74.7383L64.2914 74.6375L64.4967 75.6268Z" fill="#78A24A"/>
<path d="M64.1622 74.3988C64.222 74.5177 64.0956 74.6441 63.9768 74.5842C63.8935 74.5423 63.7935 74.5933 63.7784 74.6853C63.757 74.8166 63.5804 74.8446 63.5195 74.7263C63.4767 74.6435 63.3658 74.6259 63.2996 74.6915C63.205 74.7851 63.0458 74.704 63.066 74.5725C63.0801 74.4803 63.0007 74.4009 62.9086 74.4151C62.777 74.4352 62.6959 74.276 62.7895 74.1814C62.8551 74.1152 62.8376 74.0043 62.7547 73.9616C62.6364 73.9006 62.6644 73.724 62.7957 73.7026C62.8877 73.6876 62.9387 73.5875 62.8968 73.5042C62.8369 73.3854 62.9633 73.259 63.0822 73.3188C63.1655 73.3608 63.2655 73.3098 63.2805 73.2178C63.302 73.0864 63.4785 73.0585 63.5395 73.1767C63.5822 73.2596 63.6931 73.2772 63.7594 73.2116C63.8539 73.1179 64.0132 73.1991 63.993 73.3306C63.9789 73.4228 64.0583 73.5022 64.1504 73.488C64.2819 73.4678 64.3631 73.6271 64.2695 73.7216C64.2038 73.7879 64.2214 73.8988 64.3043 73.9415C64.4226 74.0025 64.3946 74.179 64.2633 74.2005C64.1712 74.2155 64.1203 74.3156 64.1622 74.3988Z" fill="#866FB3"/>
<path d="M54.9143 76.2983L51.2145 75.5305L51.5915 79.2902L49.0496 76.4944L47.1446 79.7576L46.7316 76.0016L43.2723 77.5219L45.1458 74.2405L41.4536 73.4372L44.8981 71.8837L42.3832 69.0635L46.083 69.8313L45.7061 66.0716L48.248 68.8675L50.153 65.6042L50.566 69.3602L54.0253 67.8399L52.1517 71.1213L55.844 71.9247L52.3995 73.4781L54.9143 76.2983Z" fill="#4C712F"/>
<path d="M54.5076 74.2508L51.3449 74.4318L52.4659 77.3947L49.8008 75.6821L48.9662 78.7381L47.8167 75.7861L45.3453 77.7679L46.1505 74.704L42.9861 74.8546L45.4385 72.8492L42.79 71.1111L45.9527 70.9301L44.8316 67.9671L47.4967 69.6797L48.3313 66.6237L49.4808 69.5757L51.9523 67.594L51.1471 70.6578L54.3114 70.5072L51.8591 72.5127L54.5076 74.2508Z" fill="#64963A"/>
<path d="M51.7816 74.4896L49.9317 74.1057L50.1201 75.9855L48.8492 74.5876L47.8967 76.2192L47.6902 74.3412L45.9605 75.1014L46.8973 73.4607L45.0512 73.059L46.7735 72.2823L45.516 70.8722L47.3659 71.2561L47.1775 69.3762L48.4484 70.7742L49.4009 69.1425L49.6074 71.0205L51.337 70.2604L50.4003 71.9011L52.2464 72.3028L50.5241 73.0795L51.7816 74.4896Z" fill="#78A24A"/>
<path d="M50.0916 72.8137C50.2997 72.9503 50.2132 73.2731 49.9647 73.2873C49.7907 73.2973 49.6763 73.4734 49.738 73.6365C49.8261 73.8692 49.5663 74.0796 49.357 73.945C49.2103 73.8508 49.0143 73.926 48.9683 74.0942C48.9028 74.3343 48.569 74.3518 48.4787 74.1199C48.4154 73.9574 48.2126 73.9031 48.0766 74.0121C47.8825 74.1678 47.6021 73.9858 47.6654 73.7451C47.7097 73.5765 47.5776 73.4133 47.4034 73.4216C47.1548 73.4334 47.0351 73.1214 47.2277 72.9638C47.3627 72.8534 47.3517 72.6438 47.2059 72.5481C46.9979 72.4116 47.0844 72.0887 47.3328 72.0745C47.5069 72.0645 47.6212 71.8885 47.5595 71.7254C47.4715 71.4926 47.7312 71.2823 47.9406 71.4168C48.0873 71.5111 48.2833 71.4358 48.3292 71.2676C48.3948 71.0276 48.7286 71.0101 48.8189 71.242C48.8821 71.4044 49.0849 71.4588 49.221 71.3497C49.4151 71.194 49.6954 71.3761 49.6322 71.6168C49.5878 71.7854 49.72 71.9486 49.8941 71.9403C50.1427 71.9284 50.2625 72.2405 50.0699 72.398C49.9349 72.5084 49.9459 72.7181 50.0916 72.8137Z" fill="#6F87B3"/>
<path d="M67.1616 30.1383C67.3612 31.9156 65.8587 33.4181 64.0814 33.2185C63.3835 33.1401 62.6818 33.3281 62.1165 33.745C60.6772 34.8064 58.6248 34.2565 57.909 32.6175C57.6279 31.9739 57.1142 31.4602 56.4706 31.1791C54.8317 30.4634 54.2817 28.4109 55.3432 26.9716C55.76 26.4064 55.948 25.7046 55.8697 25.0067C55.6701 23.2295 57.1726 21.727 58.9498 21.9266C59.6477 22.0049 60.3495 21.8169 60.9147 21.4001C62.354 20.3386 64.4065 20.8885 65.1223 22.5275C65.4033 23.1711 65.9171 23.6848 66.5607 23.9659C68.1996 24.6816 68.7495 26.7341 67.6881 28.1734C67.2712 28.7386 67.0832 29.4404 67.1616 30.1383Z" fill="#78A24A"/>
<path d="M65.7897 28.2831C66.2457 29.4463 65.5035 30.7319 64.268 30.9186C63.7829 30.9919 63.3433 31.2457 63.0372 31.6292C62.2579 32.6058 60.7733 32.6058 59.994 31.6292C59.6879 31.2457 59.2483 30.9919 58.7632 30.9186C57.5277 30.7319 56.7855 29.4463 57.2415 28.2831C57.4206 27.8263 57.4206 27.3187 57.2415 26.8619C56.7855 25.6986 57.5277 24.413 58.7632 24.2263C59.2483 24.153 59.6879 23.8992 59.994 23.5157C60.7733 22.5391 62.2579 22.5391 63.0372 23.5157C63.3433 23.8992 63.7829 24.153 64.268 24.2263C65.5035 24.413 66.2457 25.6986 65.7897 26.8619C65.6106 27.3187 65.6106 27.8263 65.7897 28.2831Z" fill="#4C712F"/>
<path d="M64.2098 28.7969C64.305 29.6449 63.5881 30.3619 62.74 30.2667C62.407 30.2293 62.0721 30.319 61.8024 30.5179C61.1156 31.0244 60.1362 30.762 59.7946 29.9799C59.6605 29.6728 59.4153 29.4277 59.1082 29.2935C58.3261 28.952 58.0637 27.9726 58.5702 27.2858C58.7691 27.016 58.8589 26.6812 58.8215 26.3481C58.7262 25.5001 59.4432 24.7831 60.2913 24.8783C60.6243 24.9157 60.9592 24.826 61.2289 24.6271C61.9157 24.1206 62.8951 24.383 63.2367 25.1651C63.3708 25.4722 63.6159 25.7174 63.923 25.8515C64.7051 26.193 64.9676 27.1724 64.461 27.8593C64.2621 28.129 64.1724 28.4638 64.2098 28.7969Z" fill="#64963A"/>
<path d="M63.045 27.8268C63.2082 28.243 62.9426 28.7031 62.5005 28.7699C62.3269 28.7961 62.1696 28.8869 62.0601 29.0242C61.7812 29.3736 61.25 29.3736 60.9711 29.0242C60.8616 28.8869 60.7043 28.7961 60.5307 28.7699C60.0886 28.7031 59.823 28.243 59.9862 27.8268C60.0503 27.6633 60.0503 27.4817 59.9862 27.3182C59.823 26.902 60.0886 26.4419 60.5307 26.3751C60.7043 26.3489 60.8616 26.2581 60.9711 26.1209C61.25 25.7714 61.7812 25.7714 62.0601 26.1209C62.1696 26.2581 62.3269 26.3489 62.5005 26.3751C62.9426 26.4419 63.2082 26.902 63.045 27.3182C62.981 27.4817 62.981 27.6633 63.045 27.8268Z" fill="#B3A16F"/>
<path d="M57.6316 65.0814C57.8312 66.8586 56.3287 68.3611 54.5515 68.1615C53.8536 68.0831 53.1518 68.2712 52.5866 68.688C51.1472 69.7495 49.0948 69.1995 48.379 67.5606C48.0979 66.917 47.5842 66.4033 46.9406 66.1222C45.3017 65.4064 44.7517 63.354 45.8132 61.9146C46.23 61.3494 46.4181 60.6477 46.3397 59.9498C46.1401 58.1725 47.6426 56.67 49.4198 56.8696C50.1178 56.948 50.8195 56.76 51.3847 56.3431C52.8241 55.2816 54.8765 55.8316 55.5923 57.4705C55.8734 58.1141 56.3871 58.6279 57.0307 58.9089C58.6696 59.6247 59.2196 61.6771 58.1581 63.1165C57.7413 63.6817 57.5532 64.3835 57.6316 65.0814Z" fill="#78A24A"/>
<path d="M56.2597 63.2261C56.7157 64.3894 55.9735 65.675 54.738 65.8617C54.2529 65.935 53.8133 66.1888 53.5072 66.5723C52.7278 67.5489 51.2433 67.5489 50.4639 66.5723C50.1579 66.1888 49.7183 65.935 49.2332 65.8617C47.9977 65.675 47.2555 64.3894 47.7115 63.2261C47.8906 62.7693 47.8906 62.2617 47.7115 61.8049C47.2555 60.6417 47.9977 59.356 49.2332 59.1694C49.7183 59.0961 50.1579 58.8423 50.4639 58.4588C51.2433 57.4822 52.7278 57.4822 53.5072 58.4588C53.8133 58.8423 54.2529 59.0961 54.738 59.1694C55.9735 59.356 56.7157 60.6417 56.2597 61.8049C56.0806 62.2617 56.0806 62.7693 56.2597 63.2261Z" fill="#4C712F"/>
<path d="M54.6798 63.7399C54.775 64.588 54.0581 65.305 53.21 65.2097C52.877 65.1723 52.5421 65.2621 52.2724 65.461C51.5855 65.9675 50.6061 65.7051 50.2646 64.923C50.1305 64.6159 49.8853 64.3707 49.5782 64.2366C48.7961 63.895 48.5337 62.9156 49.0402 62.2288C49.2391 61.9591 49.3289 61.6242 49.2915 61.2912C49.1962 60.4431 49.9132 59.7262 50.7613 59.8214C51.0943 59.8588 51.4292 59.7691 51.6989 59.5702C52.3857 59.0636 53.3651 59.3261 53.7067 60.1082C53.8408 60.4153 54.0859 60.6604 54.393 60.7945C55.1751 61.1361 55.4375 62.1155 54.931 62.8023C54.7321 63.072 54.6424 63.4069 54.6798 63.7399Z" fill="#64963A"/>
<path d="M53.515 62.7698C53.6782 63.1861 53.4126 63.6461 52.9705 63.7129C52.7969 63.7392 52.6396 63.83 52.5301 63.9672C52.2512 64.3167 51.72 64.3167 51.4411 63.9672C51.3316 63.83 51.1743 63.7392 51.0007 63.7129C50.5586 63.6461 50.293 63.1861 50.4562 62.7698C50.5203 62.6064 50.5203 62.4247 50.4562 62.2613C50.293 61.845 50.5586 61.385 51.0007 61.3182C51.1743 61.292 51.3316 61.2011 51.4411 61.0639C51.72 60.7145 52.2512 60.7145 52.5301 61.0639C52.6396 61.2011 52.7969 61.292 52.9705 61.3182C53.4126 61.385 53.6782 61.845 53.515 62.2613C53.4509 62.4247 53.4509 62.6064 53.515 62.7698Z" fill="#B3A16F"/>
<path d="M34.2065 63.9059C34.3641 65.309 33.1779 66.4952 31.7748 66.3376C31.2238 66.2757 30.6698 66.4242 30.2236 66.7532C29.0872 67.5912 27.4669 67.1571 26.9018 65.8632C26.6799 65.3551 26.2743 64.9495 25.7662 64.7276C24.4723 64.1625 24.0382 62.5422 24.8762 61.4058C25.2052 60.9596 25.3537 60.4056 25.2918 59.8546C25.1342 58.4515 26.3204 57.2653 27.7235 57.4229C28.2745 57.4848 28.8285 57.3363 29.2747 57.0073C30.4111 56.1693 32.0314 56.6034 32.5965 57.8973C32.8184 58.4054 33.224 58.811 33.7321 59.0329C35.026 59.598 35.4601 61.2183 34.6221 62.3547C34.2931 62.8009 34.1446 63.3549 34.2065 63.9059Z" fill="#78A24A"/>
<path d="M33.1234 62.4412C33.4834 63.3596 32.8974 64.3745 31.9221 64.5219C31.5391 64.5798 31.192 64.7801 30.9504 65.0829C30.3351 65.8539 29.1631 65.8539 28.5478 65.0829C28.3062 64.7801 27.9592 64.5798 27.5762 64.5219C26.6008 64.3745 26.0148 63.3596 26.3749 62.4412C26.5162 62.0806 26.5162 61.6798 26.3749 61.3192C26.0148 60.4009 26.6008 59.3859 27.5762 59.2385C27.9592 59.1806 28.3062 58.9803 28.5478 58.6775C29.1631 57.9065 30.3351 57.9065 30.9504 58.6775C31.192 58.9803 31.5391 59.1806 31.9221 59.2385C32.8974 59.3859 33.4834 60.4009 33.1234 61.3192C32.982 61.6798 32.982 62.0806 33.1234 62.4412Z" fill="#4C712F"/>
<path d="M31.8761 62.8469C31.9513 63.5164 31.3853 64.0824 30.7157 64.0072C30.4528 63.9777 30.1884 64.0485 29.9755 64.2056C29.4333 64.6054 28.6601 64.3983 28.3904 63.7808C28.2845 63.5384 28.091 63.3448 27.8485 63.239C27.2311 62.9693 27.0239 62.1961 27.4238 61.6539C27.5808 61.4409 27.6517 61.1766 27.6222 60.9136C27.547 60.2441 28.113 59.6781 28.7825 59.7533C29.0454 59.7828 29.3098 59.712 29.5227 59.5549C30.065 59.1551 30.8382 59.3622 31.1078 59.9797C31.2137 60.2221 31.4073 60.4157 31.6497 60.5215C32.2671 60.7912 32.4743 61.5644 32.0744 62.1066C31.9174 62.3196 31.8466 62.5839 31.8761 62.8469Z" fill="#64963A"/>
<path d="M30.9566 62.081C31.0854 62.4096 30.8757 62.7728 30.5267 62.8255C30.3897 62.8462 30.2655 62.9179 30.179 63.0263C29.9588 63.3022 29.5395 63.3022 29.3193 63.0263C29.2328 62.9179 29.1086 62.8462 28.9716 62.8255C28.6226 62.7728 28.4129 62.4096 28.5417 62.081C28.5923 61.9519 28.5923 61.8085 28.5417 61.6795C28.4129 61.3509 28.6226 60.9877 28.9716 60.9349C29.1086 60.9142 29.2328 60.8425 29.3193 60.7342C29.5395 60.4583 29.9588 60.4583 30.179 60.7342C30.2655 60.8425 30.3897 60.9142 30.5267 60.9349C30.8757 60.9877 31.0854 61.3509 30.9566 61.6795C30.906 61.8085 30.906 61.9519 30.9566 62.081Z" fill="#B3A16F"/>
<path d="M67.9372 52.5272C68.4584 53.8567 67.6101 55.3261 66.198 55.5395C65.6435 55.6233 65.1411 55.9133 64.7913 56.3517C63.9005 57.4678 62.2038 57.4678 61.313 56.3517C60.9632 55.9133 60.4608 55.6233 59.9063 55.5395C58.4943 55.3261 57.6459 53.8567 58.1672 52.5272C58.3719 52.0051 58.3719 51.425 58.1672 50.9029C57.6459 49.5733 58.4943 48.1039 59.9063 47.8906C60.4608 47.8068 60.9632 47.5167 61.313 47.0784C62.2038 45.9622 63.9005 45.9622 64.7913 47.0784C65.1411 47.5167 65.6435 47.8068 66.198 47.8906C67.6101 48.1039 68.4584 49.5733 67.9372 50.9029C67.7325 51.425 67.7325 52.0051 67.9372 52.5272Z" fill="#78A24A"/>
<path d="M66.4956 51.3798C67.0878 52.1828 66.781 53.3278 65.8667 53.7271C65.5076 53.8839 65.221 54.1705 65.0642 54.5295C64.6649 55.4438 63.5199 55.7506 62.7169 55.1585C62.4016 54.9259 62.0101 54.821 61.6208 54.8648C60.6293 54.9761 59.7911 54.1379 59.9024 53.1464C59.9462 52.7571 59.8412 52.3656 59.6087 52.0503C59.0165 51.2473 59.3233 50.1023 60.2377 49.703C60.5967 49.5462 60.8833 49.2596 61.0401 48.9005C61.4394 47.9862 62.5844 47.6794 63.3874 48.2716C63.7027 48.5041 64.0942 48.609 64.4836 48.5653C65.475 48.4539 66.3132 49.2921 66.2019 50.2836C66.1582 50.673 66.2631 51.0645 66.4956 51.3798Z" fill="#4C712F"/>
<path d="M65.3832 52.1026C65.632 52.737 65.2271 53.4382 64.5533 53.54C64.2887 53.58 64.049 53.7184 63.8821 53.9276C63.457 54.4602 62.6474 54.4602 62.2223 53.9276C62.0554 53.7184 61.8156 53.58 61.551 53.54C60.8772 53.4382 60.4724 52.737 60.7211 52.1026C60.8188 51.8535 60.8188 51.5766 60.7211 51.3275C60.4724 50.6931 60.8772 49.9919 61.551 49.8901C61.8156 49.8501 62.0554 49.7117 62.2223 49.5025C62.6474 48.9699 63.457 48.9699 63.8821 49.5025C64.049 49.7117 64.2887 49.8501 64.5533 49.8901C65.2271 49.9919 65.632 50.6931 65.3832 51.3275C65.2856 51.5766 65.2856 51.8535 65.3832 52.1026Z" fill="#64963A"/>
<path d="M64.2844 51.5951C64.4963 51.8824 64.3865 52.2922 64.0593 52.4351C63.9308 52.4912 63.8283 52.5937 63.7722 52.7222C63.6293 53.0494 63.2195 53.1592 62.9322 52.9473C62.8194 52.864 62.6793 52.8265 62.54 52.8422C62.1852 52.882 61.8852 52.5821 61.9251 52.2273C61.9407 52.088 61.9032 51.9479 61.82 51.835C61.6081 51.5477 61.7179 51.138 62.045 50.9951C62.1735 50.939 62.2761 50.8364 62.3322 50.7079C62.4751 50.3808 62.8848 50.271 63.1721 50.4829C63.285 50.5661 63.4251 50.6036 63.5644 50.588C63.9192 50.5481 64.2191 50.8481 64.1793 51.2029C64.1636 51.3422 64.2011 51.4823 64.2844 51.5951Z" fill="#B3A16F"/>
<path d="M46.9713 51.8918C47.4926 53.2214 46.6442 54.6908 45.2322 54.9041C44.6777 54.9879 44.1753 55.278 43.8254 55.7163C42.9347 56.8325 41.238 56.8325 40.3472 55.7163C39.9974 55.278 39.4949 54.9879 38.9404 54.9041C37.5284 54.6908 36.6801 53.2214 37.2013 51.8918C37.406 51.3697 37.406 50.7896 37.2013 50.2675C36.6801 48.938 37.5284 47.4686 38.9404 47.2552C39.4949 47.1714 39.9974 46.8814 40.3472 46.443C41.238 45.3269 42.9347 45.3269 43.8254 46.443C44.1753 46.8814 44.6777 47.1714 45.2322 47.2552C46.6442 47.4686 47.4926 48.938 46.9713 50.2675C46.7666 50.7896 46.7666 51.3697 46.9713 51.8918Z" fill="#78A24A"/>
<path d="M45.5297 50.7444C46.1219 51.5474 45.8151 52.6924 44.9008 53.0917C44.5417 53.2485 44.2551 53.5351 44.0983 53.8941C43.699 54.8085 42.554 55.1153 41.751 54.5231C41.4357 54.2906 41.0442 54.1857 40.6549 54.2294C39.6634 54.3407 38.8252 53.5025 38.9366 52.511C38.9803 52.1217 38.8754 51.7302 38.6428 51.4149C38.0507 50.6119 38.3575 49.4669 39.2718 49.0676C39.6308 48.9108 39.9174 48.6242 40.0742 48.2652C40.4735 47.3508 41.6185 47.044 42.4215 47.6362C42.7368 47.8687 43.1283 47.9736 43.5177 47.9299C44.5092 47.8186 45.3474 48.6568 45.236 49.6482C45.1923 50.0376 45.2972 50.4291 45.5297 50.7444Z" fill="#4C712F"/>
<path d="M44.4174 51.4672C44.6661 52.1017 44.2613 52.8028 43.5875 52.9047C43.3229 52.9446 43.0831 53.0831 42.9162 53.2922C42.4911 53.8248 41.6815 53.8248 41.2564 53.2922C41.0895 53.083 40.8498 52.9446 40.5852 52.9047C39.9114 52.8028 39.5065 52.1017 39.7553 51.4672C39.8529 51.2181 39.8529 50.9413 39.7553 50.6921C39.5065 50.0577 39.9114 49.3565 40.5852 49.2547C40.8498 49.2147 41.0895 49.0763 41.2564 48.8672C41.6815 48.3345 42.4911 48.3345 42.9162 48.8672C43.0831 49.0763 43.3229 49.2147 43.5875 49.2547C44.2613 49.3565 44.6661 50.0577 44.4174 50.6921C44.3197 50.9413 44.3197 51.2181 44.4174 51.4672Z" fill="#64963A"/>
<path d="M43.3185 50.9597C43.5304 51.2471 43.4206 51.6568 43.0934 51.7997C42.965 51.8558 42.8624 51.9583 42.8063 52.0868C42.6634 52.414 42.2537 52.5238 41.9663 52.3119C41.8535 52.2287 41.7134 52.1911 41.5741 52.2068C41.2193 52.2466 40.9194 51.9467 40.9592 51.5919C40.9749 51.4526 40.9373 51.3125 40.8541 51.1997C40.6422 50.9123 40.752 50.5026 41.0792 50.3597C41.2077 50.3036 41.3102 50.201 41.3663 50.0726C41.5092 49.7454 41.9189 49.6356 42.2063 49.8475C42.3191 49.9307 42.4592 49.9683 42.5985 49.9526C42.9533 49.9128 43.2532 50.2127 43.2134 50.5675C43.1977 50.7068 43.2353 50.8469 43.3185 50.9597Z" fill="#B3A16F"/>
</g>
</g>
<defs>
<filter id="filter0_n_37_37" x="2.42995" y="3.42999" width="96.5701" height="96.57" filterUnits="userSpaceOnUse" color-interpolation-filters="sRGB">
<feFlood flood-opacity="0" result="BackgroundImageFix"/>
<feBlend mode="normal" in="SourceGraphic" in2="BackgroundImageFix" result="shape"/>
<feTurbulence type="fractalNoise" baseFrequency="0.11627906560897827 0.11627906560897827" stitchTiles="stitch" numOctaves="3" result="noise" seed="2894" />
<feColorMatrix in="noise" type="luminanceToAlpha" result="alphaNoise" />
<feComponentTransfer in="alphaNoise" result="coloredNoise1">
<feFuncA type="discrete" tableValues="1 1 1 1 1 1 1 1 1 1 1 1 1 1 1 1 1 1 1 1 1 1 1 1 1 1 1 1 1 1 1 1 1 1 1 1 1 1 1 1 1 1 1 1 1 1 1 1 1 1 1 0 0 0 0 0 0 0 0 0 0 0 0 0 0 0 0 0 0 0 0 0 0 0 0 0 0 0 0 0 0 0 0 0 0 0 0 0 0 0 0 0 0 0 0 0 0 0 0 0 "/>
</feComponentTransfer>
<feComposite operator="in" in2="shape" in="coloredNoise1" result="noise1Clipped" />
<feFlood flood-color="rgba(100, 150, 58, 0.61)" result="color1Flood" />
<feComposite operator="in" in2="noise1Clipped" in="color1Flood" result="color1" />
<feMerge result="effect1_noise_37_37">
<feMergeNode in="shape" />
<feMergeNode in="color1" />
</feMerge>
</filter>
<clipPath id="clip0_37_37">
<rect width="100" height="100" fill="white"/>
</clipPath>
</defs>
</svg>
