<svg width="100" height="100" viewBox="0 0 100 100" fill="none" xmlns="http://www.w3.org/2000/svg">
<g clip-path="url(#clip0_37_35)">
<rect x="30.5" y="0.5" width="39" height="99" fill="#515253" stroke="black"/>
<rect x="99.5" y="30.5" width="39" height="99" transform="rotate(90 99.5 30.5)" fill="#515253" stroke="black"/>
<rect x="5.5" y="5.5" width="89" height="89" rx="44.5" fill="#515253" stroke="black"/>
<rect x="10.5" y="10.5" width="79" height="79" rx="39.5" fill="#A2A2A2" stroke="black"/>
<mask id="path-5-inside-1_37_35" fill="white">
<path d="M45.2083 52.6598C46.3128 52.6598 47.2083 53.5553 47.2083 54.6598V79.602C47.2083 80.7683 46.2113 81.6927 45.0574 81.5233C31.2221 79.4921 20.2628 68.6199 18.0991 54.8281C17.9172 53.6687 18.8439 52.6598 20.0175 52.6598H45.2083ZM79.487 52.6598C80.6605 52.6598 81.5873 53.6686 81.4054 54.828C79.2742 68.4124 68.6103 79.1642 55.0696 81.4255C53.9048 81.62 52.884 80.691 52.884 79.5102V54.6598C52.884 53.5553 53.7795 52.6598 54.884 52.6598H79.487ZM52.884 20.1337C52.884 18.9529 53.9048 18.0239 55.0696 18.2184C68.6104 20.4797 79.2744 31.2313 81.4054 44.8159C81.5873 45.9753 80.6606 46.984 79.487 46.984H54.884C53.7795 46.984 52.884 46.0886 52.884 44.984V20.1337ZM47.2083 44.984C47.2083 46.0886 46.3128 46.984 45.2083 46.984H20.0174C18.8439 46.984 17.9171 45.9752 18.099 44.8158C20.2625 31.0238 31.2219 20.1518 45.0574 18.1206C46.2113 17.9511 47.2083 18.8755 47.2083 20.0418V44.984Z"/>
</mask>
<path d="M45.2083 52.6598C46.3128 52.6598 47.2083 53.5553 47.2083 54.6598V79.602C47.2083 80.7683 46.2113 81.6927 45.0574 81.5233C31.2221 79.4921 20.2628 68.6199 18.0991 54.8281C17.9172 53.6687 18.8439 52.6598 20.0175 52.6598H45.2083ZM79.487 52.6598C80.6605 52.6598 81.5873 53.6686 81.4054 54.828C79.2742 68.4124 68.6103 79.1642 55.0696 81.4255C53.9048 81.62 52.884 80.691 52.884 79.5102V54.6598C52.884 53.5553 53.7795 52.6598 54.884 52.6598H79.487ZM52.884 20.1337C52.884 18.9529 53.9048 18.0239 55.0696 18.2184C68.6104 20.4797 79.2744 31.2313 81.4054 44.8159C81.5873 45.9753 80.6606 46.984 79.487 46.984H54.884C53.7795 46.984 52.884 46.0886 52.884 44.984V20.1337ZM47.2083 44.984C47.2083 46.0886 46.3128 46.984 45.2083 46.984H20.0174C18.8439 46.984 17.9171 45.9752 18.099 44.8158C20.2625 31.0238 31.2219 20.1518 45.0574 18.1206C46.2113 17.9511 47.2083 18.8755 47.2083 20.0418V44.984Z" fill="#C6C5C6"/>
<path d="M81.4054 44.8159L80.4175 44.9709L81.4054 44.8159ZM55.0696 18.2184L54.9048 19.2047L55.0696 18.2184ZM55.0696 81.4255L54.9048 80.4392L55.0696 81.4255ZM81.4054 54.828L80.4174 54.673L81.4054 54.828ZM45.0574 81.5233L44.9122 82.5127L45.0574 81.5233ZM47.2083 54.6598H46.2083V79.602H47.2083H48.2083V54.6598H47.2083ZM45.0574 81.5233L45.2027 80.5339C31.8011 78.5664 21.1829 68.0328 19.087 54.6731L18.0991 54.8281L17.1111 54.9831C19.3427 69.2071 30.6431 80.4178 44.9122 82.5127L45.0574 81.5233ZM20.0175 52.6598V53.6598H45.2083V52.6598V51.6598H20.0175V52.6598ZM81.4054 54.828L80.4174 54.673C78.3531 67.8316 68.0211 78.2487 54.9048 80.4392L55.0696 81.4255L55.2343 82.4118C69.1994 80.0796 80.1953 68.9932 82.3933 54.983L81.4054 54.828ZM52.884 79.5102H53.884V54.6598H52.884H51.884V79.5102H52.884ZM54.884 52.6598V53.6598H79.487V52.6598V51.6598H54.884V52.6598ZM55.0696 18.2184L54.9048 19.2047C68.0213 21.3952 78.3533 31.8121 80.4175 44.9709L81.4054 44.8159L82.3933 44.6609C80.1956 30.6505 69.1995 19.5643 55.2343 17.232L55.0696 18.2184ZM79.487 46.984V45.984H54.884V46.984V47.984H79.487V46.984ZM52.884 44.984H53.884V20.1337H52.884H51.884V44.984H52.884ZM45.2083 46.984V45.984H20.0174V46.984V47.984H45.2083V46.984ZM18.099 44.8158L19.0869 44.9708C21.1827 31.611 31.8009 21.0775 45.2027 19.11L45.0574 18.1206L44.9122 17.1312C30.6429 19.226 19.3424 30.4366 17.1111 44.6609L18.099 44.8158ZM47.2083 20.0418H46.2083V44.984H47.2083H48.2083V20.0418H47.2083ZM45.0574 18.1206L45.2027 19.11C45.708 19.0358 46.2083 19.4393 46.2083 20.0418H47.2083H48.2083C48.2083 18.3118 46.7147 16.8665 44.9122 17.1312L45.0574 18.1206ZM20.0174 46.984V45.984C19.4108 45.984 19.0074 45.4779 19.0869 44.9708L18.099 44.8158L17.1111 44.6609C16.8269 46.4726 18.2769 47.984 20.0174 47.984V46.984ZM45.2083 46.984V47.984C46.8651 47.984 48.2083 46.6409 48.2083 44.984H47.2083H46.2083C46.2083 45.5363 45.7605 45.984 45.2083 45.984V46.984ZM54.884 46.984V45.984C54.3318 45.984 53.884 45.5363 53.884 44.984H52.884H51.884C51.884 46.6409 53.2272 47.984 54.884 47.984V46.984ZM81.4054 44.8159L80.4175 44.9709C80.497 45.4779 80.0936 45.984 79.487 45.984V46.984V47.984C81.2275 47.984 82.6775 46.4726 82.3933 44.6609L81.4054 44.8159ZM55.0696 18.2184L55.2343 17.232C53.4136 16.928 51.884 18.3827 51.884 20.1337H52.884H53.884C53.884 19.523 54.396 19.1198 54.9048 19.2047L55.0696 18.2184ZM52.884 54.6598H53.884C53.884 54.1075 54.3318 53.6598 54.884 53.6598V52.6598V51.6598C53.2272 51.6598 51.884 53.003 51.884 54.6598H52.884ZM55.0696 81.4255L54.9048 80.4392C54.396 80.5241 53.884 80.1208 53.884 79.5102H52.884H51.884C51.884 81.2612 53.4136 82.7159 55.2343 82.4118L55.0696 81.4255ZM81.4054 54.828L82.3933 54.983C82.6775 53.1713 81.2275 51.6598 79.487 51.6598V52.6598V53.6598C80.0936 53.6598 80.497 54.166 80.4174 54.673L81.4054 54.828ZM18.0991 54.8281L19.087 54.6731C19.0074 54.166 19.4109 53.6598 20.0175 53.6598V52.6598V51.6598C18.2769 51.6598 16.8269 53.1714 17.1111 54.9831L18.0991 54.8281ZM47.2083 79.602H46.2083C46.2083 80.2046 45.708 80.6081 45.2027 80.5339L45.0574 81.5233L44.9122 82.5127C46.7147 82.7774 48.2083 81.3321 48.2083 79.602H47.2083ZM47.2083 54.6598H48.2083C48.2083 53.003 46.8651 51.6598 45.2083 51.6598V52.6598V53.6598C45.7605 53.6598 46.2083 54.1075 46.2083 54.6598H47.2083Z" fill="#8A9D77" mask="url(#path-5-inside-1_37_35)"/>
<mask id="path-7-outside-2_37_35" maskUnits="userSpaceOnUse" x="16.1914" y="16.2087" width="67" height="67" fill="black">
<rect fill="white" x="16.1914" y="16.2087" width="67" height="67"/>
<path d="M44.5187 53.3496C45.6233 53.3496 46.5187 54.2451 46.5187 55.3496V79.4927C46.5187 80.6761 45.4938 81.6059 44.3273 81.4069C31.0811 79.1482 20.6078 68.7607 18.2216 55.5585C18.0098 54.3867 18.9418 53.3496 20.1325 53.3496H44.5187ZM79.3717 53.3496C80.5625 53.3496 81.4944 54.3866 81.2826 55.5584C78.934 68.5529 68.7511 78.8197 55.8005 81.2933C54.6236 81.5181 53.5744 80.5841 53.5744 79.3859V55.3496C53.5744 54.2451 54.4698 53.3496 55.5744 53.3496H79.3717ZM53.5744 20.2567C53.5744 19.0586 54.6236 18.1245 55.8005 18.3493C68.7512 20.823 78.9342 31.0905 81.2827 44.0852C81.4944 45.257 80.5625 46.294 79.3717 46.294H55.5744C54.4698 46.294 53.5744 45.3985 53.5744 44.294V20.2567ZM46.5187 44.294C46.5187 45.3985 45.6233 46.294 44.5187 46.294H20.1325C18.9418 46.294 18.0098 45.2569 18.2216 44.0852C20.6077 30.8826 31.0809 20.4944 44.3273 18.2357C45.4938 18.0367 46.5187 18.9665 46.5187 20.1499V44.294Z"/>
</mask>
<path d="M81.2827 44.0852L82.2667 43.9074L81.2827 44.0852ZM55.8005 18.3493L55.6129 19.3315L55.8005 18.3493ZM55.8005 81.2933L55.9881 82.2756L55.8005 81.2933ZM81.2826 55.5584L82.2667 55.7363L81.2826 55.5584ZM44.3273 81.4069L44.1592 82.3927L44.3273 81.4069ZM46.5187 55.3496H45.5187V79.4927H46.5187H47.5187V55.3496H46.5187ZM44.3273 81.4069L44.4953 80.4212C31.6645 78.2333 21.5171 68.1691 19.2057 55.3806L18.2216 55.5585L17.2376 55.7363C19.6985 69.3524 30.4977 80.0632 44.1592 82.3927L44.3273 81.4069ZM20.1325 53.3496V54.3496H44.5187V53.3496V52.3496H20.1325V53.3496ZM81.2826 55.5584L80.2986 55.3805C78.0236 67.9675 68.1576 77.915 55.6129 80.3111L55.8005 81.2933L55.9881 82.2756C69.3445 79.7244 79.8444 69.1382 82.2667 55.7363L81.2826 55.5584ZM53.5744 79.3859H54.5744V55.3496H53.5744H52.5744V79.3859H53.5744ZM55.5744 53.3496V54.3496H79.3717V53.3496V52.3496H55.5744V53.3496ZM55.8005 18.3493L55.6129 19.3315C68.1577 21.7277 78.0237 31.6758 80.2986 44.2631L81.2827 44.0852L82.2667 43.9074C79.8446 30.5052 69.3447 19.9183 55.9881 17.367L55.8005 18.3493ZM79.3717 46.294V45.294H55.5744V46.294V47.294H79.3717V46.294ZM53.5744 44.294H54.5744V20.2567H53.5744H52.5744V44.294H53.5744ZM44.5187 46.294V45.294H20.1325V46.294V47.294H44.5187V46.294ZM18.2216 44.0852L19.2056 44.263C21.5169 31.4742 31.6644 21.4094 44.4954 19.2214L44.3273 18.2357L44.1592 17.2499C30.4975 19.5795 19.6984 30.291 17.2375 43.9073L18.2216 44.0852ZM46.5187 20.1499H45.5187V44.294H46.5187H47.5187V20.1499H46.5187ZM44.3273 18.2357L44.4954 19.2214C45.0047 19.1346 45.5187 19.5378 45.5187 20.1499H46.5187H47.5187C47.5187 18.3952 45.983 16.9389 44.1592 17.2499L44.3273 18.2357ZM20.1325 46.294V45.294C19.5163 45.294 19.1133 44.774 19.2056 44.263L18.2216 44.0852L17.2375 43.9073C16.9063 45.7399 18.3672 47.294 20.1325 47.294V46.294ZM44.5187 46.294V47.294C46.1756 47.294 47.5187 45.9508 47.5187 44.294H46.5187H45.5187C45.5187 44.8462 45.071 45.294 44.5187 45.294V46.294ZM55.5744 46.294V45.294C55.0221 45.294 54.5744 44.8462 54.5744 44.294H53.5744H52.5744C52.5744 45.9508 53.9175 47.294 55.5744 47.294V46.294ZM81.2827 44.0852L80.2986 44.2631C80.3909 44.774 79.988 45.294 79.3717 45.294V46.294V47.294C81.137 47.294 82.5979 45.7399 82.2667 43.9074L81.2827 44.0852ZM55.8005 18.3493L55.9881 17.367C54.1469 17.0154 52.5744 18.4808 52.5744 20.2567H53.5744H54.5744C54.5744 19.6363 55.1003 19.2336 55.6129 19.3315L55.8005 18.3493ZM53.5744 55.3496H54.5744C54.5744 54.7973 55.0221 54.3496 55.5744 54.3496V53.3496V52.3496C53.9175 52.3496 52.5744 53.6928 52.5744 55.3496H53.5744ZM55.8005 81.2933L55.6129 80.3111C55.1003 80.409 54.5744 80.0063 54.5744 79.3859H53.5744H52.5744C52.5744 81.1618 54.1469 82.6273 55.9881 82.2756L55.8005 81.2933ZM81.2826 55.5584L82.2667 55.7363C82.5979 53.9037 81.137 52.3496 79.3717 52.3496V53.3496V54.3496C79.988 54.3496 80.3909 54.8696 80.2986 55.3805L81.2826 55.5584ZM18.2216 55.5585L19.2057 55.3806C19.1133 54.8696 19.5163 54.3496 20.1325 54.3496V53.3496V52.3496C18.3672 52.3496 16.9063 53.9038 17.2376 55.7363L18.2216 55.5585ZM46.5187 79.4927H45.5187C45.5187 80.1048 45.0047 80.508 44.4953 80.4212L44.3273 81.4069L44.1592 82.3927C45.983 82.7037 47.5187 81.2474 47.5187 79.4927H46.5187ZM46.5187 55.3496H47.5187C47.5187 53.6928 46.1756 52.3496 44.5187 52.3496V53.3496V54.3496C45.071 54.3496 45.5187 54.7973 45.5187 55.3496H46.5187Z" fill="black" mask="url(#path-7-outside-2_37_35)"/>
<mask id="mask0_37_35" style="mask-type:alpha" maskUnits="userSpaceOnUse" x="18" y="19" width="63" height="62">
<path d="M44.5996 53.2608C45.7042 53.2608 46.5996 54.1562 46.5996 55.2608V78.6958C46.5996 79.8792 45.5747 80.8091 44.4085 80.6081C31.5374 78.3899 21.3622 68.2975 19.0202 55.4692C18.8064 54.2978 19.7384 53.2608 20.9292 53.2608H44.5996ZM78.5747 53.2608C79.7655 53.2608 80.6975 54.2977 80.4837 55.4691C78.1787 68.0945 68.2867 78.0686 55.7042 80.4955C54.5277 80.7224 53.4785 79.7882 53.4785 78.59V55.2608C53.4785 54.1562 54.3739 53.2608 55.4785 53.2608H78.5747ZM53.4785 21.0526C53.4785 19.8544 54.5277 18.9202 55.7042 19.1471C68.2865 21.574 78.1784 31.5483 80.4836 44.1735C80.6975 45.3449 79.7654 46.3818 78.5747 46.3818H55.4785C54.3739 46.3818 53.4785 45.4864 53.4785 44.3818V21.0526ZM46.5996 44.3818C46.5996 45.4864 45.7042 46.3818 44.5996 46.3818H20.9292C19.7385 46.3818 18.8064 45.3448 19.0203 44.1734C21.3626 31.3454 31.5377 21.2537 44.4085 19.0354C45.5747 18.8344 46.5996 19.7643 46.5996 20.9478V44.3818Z" fill="#202020"/>
</mask>
<g mask="url(#mask0_37_35)">
<g filter="url(#filter0_n_37_35)">
<rect x="16.7" y="17.6" width="70.2" height="66.6" fill="#0A467E"/>
</g>
<path d="M29.3769 22.8264C29.9494 21.5155 31.591 21.0756 32.7423 21.9246C33.1944 22.258 33.7557 22.4084 34.3139 22.3457C35.7354 22.1861 36.9372 23.3879 36.7776 24.8094C36.7149 25.3676 36.8653 25.9289 37.1987 26.381C38.0477 27.5323 37.6078 29.1739 36.2969 29.7464C35.7821 29.9712 35.3712 30.3821 35.1464 30.8969C34.5739 32.2078 32.9323 32.6477 31.781 31.7987C31.3289 31.4653 30.7676 31.3149 30.2094 31.3776C28.7878 31.5372 27.5861 30.3354 27.7457 28.9139C27.8084 28.3557 27.658 27.7944 27.3246 27.3423C26.4756 26.191 26.9155 24.5494 28.2264 23.9769C28.7411 23.7521 29.1521 23.3412 29.3769 22.8264Z" fill="#78A24A"/>
<path d="M29.5852 24.6601C29.7345 23.672 30.7629 23.0783 31.6933 23.443C32.0587 23.5863 32.4647 23.5863 32.83 23.443C33.7605 23.0783 34.7888 23.672 34.9381 24.6601C34.9967 25.0482 35.1997 25.3998 35.5064 25.6446C36.2876 26.268 36.2876 27.4554 35.5064 28.0787C35.1997 28.3235 34.9967 28.6751 34.9381 29.0632C34.7888 30.0514 33.7605 30.6451 32.83 30.2803C32.4647 30.137 32.0587 30.137 31.6933 30.2803C30.7629 30.6451 29.7345 30.0514 29.5852 29.0632C29.5266 28.6751 29.3236 28.3235 29.0169 28.0787C28.2357 27.4554 28.2357 26.268 29.0169 25.6446C29.3236 25.3998 29.5266 25.0482 29.5852 24.6601Z" fill="#4C712F"/>
<path d="M30.8851 24.9361C31.1583 24.3105 31.9416 24.1006 32.491 24.5058C32.7067 24.6649 32.9746 24.7366 33.241 24.7067C33.9193 24.6305 34.4927 25.204 34.4166 25.8823C34.3867 26.1487 34.4584 26.4166 34.6175 26.6323C35.0227 27.1816 34.8128 27.965 34.1872 28.2382C33.9416 28.3455 33.7455 28.5416 33.6382 28.7872C33.365 29.4128 32.5816 29.6227 32.0323 29.2175C31.8166 29.0584 31.5487 28.9867 31.2823 29.0166C30.604 29.0927 30.0305 28.5193 30.1067 27.8409C30.1366 27.5746 30.0649 27.3067 29.9058 27.091C29.5006 26.5416 29.7105 25.7583 30.3361 25.4851C30.5817 25.3778 30.7778 25.1817 30.8851 24.9361Z" fill="#64963A"/>
<path d="M31.3039 26.0738C31.3574 25.7202 31.7253 25.5078 32.0583 25.6383C32.189 25.6896 32.3343 25.6896 32.465 25.6383C32.798 25.5078 33.166 25.7202 33.2194 26.0738C33.2404 26.2127 33.313 26.3385 33.4228 26.4261C33.7023 26.6492 33.7023 27.0741 33.4228 27.2971C33.313 27.3847 33.2404 27.5105 33.2194 27.6494C33.166 28.003 32.798 28.2154 32.465 28.0849C32.3343 28.0337 32.189 28.0337 32.0583 28.0849C31.7253 28.2154 31.3574 28.003 31.3039 27.6494C31.283 27.5105 31.2103 27.3847 31.1006 27.2971C30.821 27.0741 30.821 26.6492 31.1006 26.4261C31.2103 26.3385 31.283 26.2127 31.3039 26.0738Z" fill="#B3A16F"/>
<path d="M41.8943 71.3611C42.4582 70.07 44.0751 69.6367 45.209 70.473C45.6542 70.8013 46.2071 70.9495 46.7569 70.8877C48.157 70.7305 49.3406 71.9141 49.1834 73.3142C49.1216 73.864 49.2698 74.4169 49.5982 74.8622C50.4344 75.9961 50.0011 77.6129 48.71 78.1768C48.203 78.3983 47.7983 78.803 47.5768 79.31C47.013 80.6011 45.3961 81.0344 44.2622 80.1981C43.8169 79.8698 43.264 79.7216 42.7142 79.7834C41.3141 79.9406 40.1305 78.757 40.2877 77.3569C40.3495 76.8071 40.2014 76.2542 39.873 75.809C39.0368 74.6751 39.47 73.0582 40.7611 72.4943C41.2682 72.2729 41.6729 71.8681 41.8943 71.3611Z" fill="#78A24A"/>
<path d="M42.0995 73.1672C42.2466 72.194 43.2594 71.6092 44.1758 71.9685C44.5356 72.1096 44.9355 72.1096 45.2954 71.9685C46.2118 71.6092 47.2246 72.194 47.3716 73.1672C47.4294 73.5494 47.6293 73.8957 47.9314 74.1368C48.7008 74.7508 48.7008 75.9203 47.9314 76.5343C47.6293 76.7754 47.4294 77.1217 47.3716 77.5039C47.2246 78.4772 46.2118 79.0619 45.2954 78.7026C44.9355 78.5616 44.5356 78.5616 44.1758 78.7026C43.2594 79.0619 42.2466 78.4772 42.0995 77.5039C42.0418 77.1217 41.8418 76.7754 41.5397 76.5343C40.7704 75.9203 40.7704 74.7508 41.5397 74.1368C41.8418 73.8957 42.0418 73.5494 42.0995 73.1672Z" fill="#4C712F"/>
<path d="M43.3797 73.439C43.6488 72.8229 44.4204 72.6161 44.9614 73.0152C45.1739 73.1719 45.4377 73.2425 45.7001 73.2131C46.3682 73.138 46.933 73.7029 46.858 74.371C46.8285 74.6333 46.8992 74.8971 47.0559 75.1096C47.4549 75.6507 47.2482 76.4222 46.6321 76.6913C46.3901 76.797 46.197 76.9901 46.0914 77.232C45.8223 77.8482 45.0507 78.0549 44.5097 77.6559C44.2972 77.4992 44.0334 77.4285 43.771 77.4579C43.1029 77.533 42.5381 76.9682 42.6131 76.3001C42.6426 76.0377 42.5719 75.7739 42.4152 75.5614C42.0162 75.0203 42.2229 74.2488 42.839 73.9797C43.081 73.874 43.2741 73.6809 43.3797 73.439Z" fill="#64963A"/>
<path d="M43.7923 74.5596C43.8449 74.2114 44.2073 74.0021 44.5352 74.1307C44.664 74.1812 44.8071 74.1812 44.9359 74.1307C45.2638 74.0021 45.6262 74.2114 45.6788 74.5596C45.6995 74.6964 45.771 74.8203 45.8792 74.9066C46.1545 75.1263 46.1545 75.5448 45.8792 75.7645C45.771 75.8508 45.6995 75.9747 45.6788 76.1114C45.6262 76.4597 45.2638 76.669 44.9359 76.5404C44.8071 76.4899 44.664 76.4899 44.5352 76.5404C44.2073 76.669 43.8449 76.4597 43.7923 76.1114C43.7716 75.9747 43.7001 75.8508 43.592 75.7645C43.3167 75.5448 43.3167 75.1263 43.592 74.9066C43.7001 74.8203 43.7716 74.6964 43.7923 74.5596Z" fill="#B3A16F"/>
<path d="M34.7 28.4L36.174 32.8635L39.9901 30.1189L38.559 34.5963L43.2595 34.6189L39.47 37.4L43.2595 40.1812L38.559 40.2038L39.9901 44.6812L36.174 41.9366L34.7 46.4L33.226 41.9366L29.4099 44.6812L30.841 40.2038L26.1405 40.1812L29.93 37.4L26.1405 34.6189L30.841 34.5963L29.4099 30.1189L33.226 32.8635L34.7 28.4Z" fill="#4C712F"/>
<path d="M32.7471 30.1117L34.9093 33.4065L37.404 30.3558L37.2167 34.2922L41.0281 33.2905L38.5628 36.365L42.235 37.7949L38.4334 38.8332L40.5639 42.1485L36.878 40.7539L36.6529 44.6883L34.4907 41.3936L31.996 44.4442L32.1833 40.5079L28.3719 41.5095L30.8372 38.4351L27.165 37.0051L30.9666 35.9669L28.8361 32.6516L32.522 34.0461L32.7471 30.1117Z" fill="#64963A"/>
<path d="M34.7 32.9L35.437 35.1318L37.345 33.7594L36.6295 35.9982L38.9798 36.0094L37.085 37.4L38.9798 38.7906L36.6295 38.8019L37.345 41.0406L35.437 39.6683L34.7 41.9L33.963 39.6683L32.055 41.0406L32.7705 38.8019L30.4202 38.7906L32.315 37.4L30.4202 36.0094L32.7705 35.9982L32.055 33.7594L33.963 35.1318L34.7 32.9Z" fill="#78A24A"/>
<path d="M33.9456 35.7629C33.9633 35.4539 34.3649 35.3463 34.5348 35.6051C34.6538 35.7864 34.9146 35.8001 35.0519 35.6322C35.2479 35.3925 35.6361 35.5415 35.6214 35.8508C35.611 36.0674 35.814 36.2318 36.0238 36.1766C36.3232 36.098 36.5497 36.4467 36.356 36.6882C36.2203 36.8574 36.2879 37.1097 36.49 37.1884C36.7785 37.3007 36.7567 37.7159 36.4581 37.7975C36.2489 37.8546 36.1553 38.0985 36.2725 38.281C36.4399 38.5414 36.1782 38.8645 35.8887 38.755C35.6858 38.6782 35.4668 38.8205 35.4544 39.037C35.4367 39.3461 35.0351 39.4537 34.8652 39.1949C34.7462 39.0135 34.4854 38.9999 34.3481 39.1678C34.1521 39.4074 33.7639 39.2584 33.7786 38.9492C33.7889 38.7325 33.586 38.5682 33.3762 38.6233C33.0768 38.702 32.8503 38.3533 33.044 38.1118C33.1797 37.9425 33.1121 37.6903 32.91 37.6116C32.6215 37.4992 32.6433 37.084 32.9419 37.0024C33.1511 36.9453 33.2447 36.7015 33.1275 36.519C32.9601 36.2586 33.2218 35.9354 33.5113 36.045C33.7142 36.1217 33.9332 35.9795 33.9456 35.7629Z" fill="#B36F6F"/>
<path d="M41.1584 57.4243C41.5735 56.4738 42.7638 56.1549 43.5985 56.7705C43.9263 57.0122 44.3332 57.1212 44.738 57.0758C45.7686 56.96 46.6399 57.8313 46.5242 58.862C46.4787 59.2667 46.5878 59.6737 46.8295 60.0015C47.4451 60.8362 47.1262 62.0264 46.1757 62.4415C45.8025 62.6045 45.5046 62.9025 45.3416 63.2757C44.9265 64.2261 43.7362 64.5451 42.9015 63.9295C42.5737 63.6878 42.1668 63.5787 41.762 63.6242C40.7314 63.7399 39.8601 62.8686 39.9758 61.8379C40.0213 61.4332 39.9122 61.0262 39.6705 60.6985C39.0549 59.8638 39.3738 58.6735 40.3243 58.2584C40.6975 58.0954 40.9954 57.7975 41.1584 57.4243Z" fill="#78A24A"/>
<path d="M41.3095 58.7539C41.4178 58.0374 42.1633 57.607 42.8379 57.8714C43.1028 57.9753 43.3972 57.9753 43.6621 57.8714C44.3367 57.607 45.0823 58.0374 45.1905 58.7539C45.233 59.0352 45.3802 59.2901 45.6026 59.4676C46.1689 59.9196 46.1689 60.7805 45.6026 61.2325C45.3802 61.41 45.233 61.6649 45.1905 61.9462C45.0823 62.6627 44.3367 63.0931 43.6621 62.8287C43.3972 62.7248 43.1028 62.7248 42.8379 62.8287C42.1633 63.0931 41.4178 62.6627 41.3095 61.9462C41.267 61.6649 41.1198 61.41 40.8974 61.2325C40.3311 60.7805 40.3311 59.9196 40.8974 59.4676C41.1198 59.2901 41.267 59.0352 41.3095 58.7539Z" fill="#4C712F"/>
<path d="M42.2519 58.9539C42.45 58.5003 43.018 58.3481 43.4163 58.6419C43.5727 58.7572 43.7669 58.8093 43.96 58.7876C44.4518 58.7324 44.8676 59.1481 44.8124 59.6399C44.7907 59.8331 44.8427 60.0273 44.9581 60.1837C45.2518 60.582 45.0996 61.15 44.6461 61.348C44.468 61.4258 44.3258 61.568 44.2481 61.7461C44.05 62.1996 43.482 62.3518 43.0837 62.0581C42.9273 61.9427 42.7331 61.8907 42.54 61.9124C42.0481 61.9676 41.6324 61.5518 41.6876 61.06C41.7093 60.8669 41.6573 60.6727 41.5419 60.5163C41.2482 60.118 41.4004 59.55 41.8539 59.3519C42.032 59.2741 42.1742 59.132 42.2519 58.9539Z" fill="#64963A"/>
<path d="M42.5556 59.7788C42.5944 59.5224 42.8612 59.3684 43.1026 59.4631C43.1973 59.5002 43.3027 59.5002 43.3975 59.4631C43.6389 59.3684 43.9057 59.5224 43.9444 59.7788C43.9596 59.8795 44.0123 59.9707 44.0919 60.0342C44.2945 60.196 44.2945 60.504 44.0919 60.6658C44.0123 60.7293 43.9596 60.8205 43.9444 60.9212C43.9057 61.1775 43.6389 61.3316 43.3975 61.2369C43.3027 61.1998 43.1973 61.1998 43.1026 61.2369C42.8612 61.3316 42.5944 61.1775 42.5556 60.9212C42.5404 60.8205 42.4878 60.7293 42.4082 60.6658C42.2055 60.504 42.2055 60.196 42.4082 60.0342C42.4878 59.9707 42.5404 59.8795 42.5556 59.7788Z" fill="#B3A16F"/>
<path d="M70.2931 59.3027L70.6924 66.2808L77.2296 63.8074L73.4511 69.6875L80.1937 71.5289L73.6805 74.065L78.053 79.518L71.2931 77.7414L71.6253 84.723L67.2006 79.3123L63.3658 85.1559L62.9664 78.1778L56.4292 80.6512L60.2078 74.7711L53.4652 72.9297L59.9784 70.3935L55.6059 64.9406L62.3658 66.7172L62.0336 59.7356L66.4582 65.1462L70.2931 59.3027Z" fill="#4C712F"/>
<path d="M66.8294 61.0098L68.667 66.574L73.4241 63.1525L71.6402 68.7342L77.4999 68.7623L72.7758 72.2294L77.4999 75.6964L71.6402 75.7246L73.4241 81.3062L68.667 77.8847L66.8294 83.449L64.9919 77.8847L60.2347 81.3062L62.0187 75.7246L56.1589 75.6964L60.883 72.2294L56.1589 68.7623L62.0187 68.7342L60.2347 63.1525L64.9919 66.574L66.8294 61.0098Z" fill="#64963A"/>
<path d="M68.5613 65.766L68.7609 69.2551L72.0295 68.0183L70.1403 70.9584L73.5115 71.8791L70.255 73.1472L72.4412 75.8736L69.0612 74.9854L69.2274 78.4761L67.015 75.7708L65.0976 78.6926L64.8979 75.2035L61.6293 76.4403L63.5186 73.5002L60.1473 72.5795L63.4039 71.3114L61.2176 68.585L64.5976 69.4732L64.4315 65.9824L66.6438 68.6878L68.5613 65.766Z" fill="#78A24A"/>
<path d="M66.376 69.5877C66.5203 69.1506 67.1386 69.1506 67.2829 69.5877C67.3841 69.894 67.7534 70.014 68.0152 69.8257C68.3889 69.5569 68.8891 69.9203 68.749 70.3588C68.6508 70.666 68.8791 70.9802 69.2016 70.9817C69.6619 70.9839 69.853 71.572 69.4819 71.8443C69.2219 72.0351 69.2219 72.4235 69.4819 72.6143C69.853 72.8867 69.6619 73.4747 69.2016 73.4769C68.8791 73.4784 68.6508 73.7926 68.749 74.0998C68.8891 74.5383 68.3889 74.9017 68.0152 74.6329C67.7534 74.4446 67.3841 74.5646 67.2829 74.8709C67.1386 75.308 66.5203 75.308 66.376 74.8709C66.2748 74.5646 65.9055 74.4446 65.6436 74.6329C65.2699 74.9017 64.7697 74.5383 64.9099 74.0998C65.0081 73.7926 64.7798 73.4784 64.4573 73.4769C63.997 73.4747 63.8059 72.8867 64.177 72.6143C64.437 72.4235 64.437 72.0351 64.177 71.8443C63.8059 71.572 63.997 70.9839 64.4573 70.9817C64.7798 70.9802 65.0081 70.666 64.9099 70.3588C64.7697 69.9203 65.2699 69.5569 65.6436 69.8257C65.9055 70.014 66.2748 69.894 66.376 69.5877Z" fill="#976FB3"/>
<path d="M40.5444 58.6356L40.7833 62.8116L44.6955 61.3314L42.4343 64.8503L46.4693 65.9523L42.5716 67.47L45.1883 70.7333L41.1428 69.6702L41.3416 73.8483L38.6937 70.6103L36.3987 74.1073L36.1597 69.9313L32.2476 71.4115L34.5088 67.8926L30.4737 66.7906L34.3715 65.2729L31.7548 62.0096L35.8003 63.0727L35.6015 58.8946L38.2494 62.1326L40.5444 58.6356Z" fill="#4C712F"/>
<path d="M38.4715 59.6572L39.5712 62.9871L42.4181 60.9395L41.3505 64.2798L44.8573 64.2967L42.0301 66.3715L44.8573 68.4464L41.3505 68.4632L42.4181 71.8035L39.5712 69.756L38.4715 73.0859L37.3719 69.756L34.5249 71.8035L35.5926 68.4632L32.0858 68.4464L34.9129 66.3715L32.0858 64.2967L35.5926 64.2798L34.5249 60.9395L37.3719 62.9871L38.4715 59.6572Z" fill="#64963A"/>
<path d="M39.508 62.5035L39.6274 64.5915L41.5835 63.8514L40.4529 65.6109L42.4704 66.1619L40.5216 66.9208L41.8299 68.5524L39.8072 68.0208L39.9066 70.1099L38.5826 68.4909L37.4351 70.2394L37.3156 68.1514L35.3596 68.8915L36.4902 67.132L34.4726 66.581L36.4215 65.8222L35.1132 64.1905L37.1359 64.7221L37.0365 62.633L38.3605 64.252L39.508 62.5035Z" fill="#78A24A"/>
<path d="M38.2002 64.7906C38.2865 64.529 38.6565 64.529 38.7429 64.7906C38.8035 64.9739 39.0245 65.0457 39.1812 64.933C39.4048 64.7722 39.7042 64.9896 39.6203 65.252C39.5615 65.4359 39.6981 65.6239 39.8912 65.6248C40.1666 65.6262 40.281 65.9781 40.0589 66.141C39.9033 66.2552 39.9033 66.4877 40.0589 66.6019C40.281 66.7648 40.1666 67.1167 39.8912 67.1181C39.6981 67.119 39.5615 67.307 39.6203 67.4909C39.7042 67.7533 39.4048 67.9707 39.1812 67.8099C39.0245 67.6972 38.8035 67.769 38.7429 67.9523C38.6565 68.2139 38.2865 68.2139 38.2002 67.9523C38.1396 67.769 37.9186 67.6972 37.7619 67.8099C37.5383 67.9707 37.2389 67.7533 37.3228 67.4909C37.3815 67.307 37.2449 67.119 37.0519 67.1181C36.7765 67.1167 36.6621 66.7648 36.8842 66.6019C37.0398 66.4877 37.0398 66.2552 36.8842 66.141C36.6621 65.9781 36.7765 65.6262 37.0519 65.6248C37.2449 65.6239 37.3815 65.4359 37.3228 65.252C37.2389 64.9896 37.5383 64.7722 37.7619 64.933C37.9186 65.0457 38.1396 64.9739 38.2002 64.7906Z" fill="#B3A16F"/>
<path d="M59.4766 22.3302L59.5922 24.3509L61.4853 23.6347L60.3911 25.3375L62.3437 25.8707L60.4576 26.6051L61.7238 28.1842L59.7662 27.6698L59.8624 29.6915L58.5811 28.1247L57.4705 29.8169L57.3549 27.7961L55.4618 28.5124L56.556 26.8096L54.6035 26.2764L56.4896 25.5419L55.2234 23.9628L57.181 24.4773L57.0848 22.4555L58.3661 24.0224L59.4766 22.3302Z" fill="#4C712F"/>
<path d="M58.4736 22.8245L59.0057 24.4359L60.3833 23.445L59.8667 25.0614L61.5636 25.0696L60.1956 26.0736L61.5636 27.0776L59.8667 27.0857L60.3833 28.7021L59.0057 27.7113L58.4736 29.3226L57.9414 27.7113L56.5638 28.7021L57.0804 27.0857L55.3835 27.0776L56.7516 26.0736L55.3835 25.0696L57.0804 25.0614L56.5638 23.445L57.9414 24.4359L58.4736 22.8245Z" fill="#64963A"/>
<path d="M58.9751 24.2019L59.0329 25.2123L59.9795 24.8541L59.4323 25.7055L60.4086 25.9722L59.4656 26.3394L60.0987 27.1289L59.1199 26.8717L59.168 27.8826L58.5273 27.0992L57.9721 27.9453L57.9142 26.9349L56.9677 27.293L57.5148 26.4416L56.5385 26.175L57.4816 25.8078L56.8485 25.0182L57.8273 25.2755L57.7792 24.2646L58.4198 25.048L58.9751 24.2019Z" fill="#78A24A"/>
<path d="M58.3422 25.3085C58.384 25.182 58.5631 25.182 58.6049 25.3085C58.6342 25.3972 58.7411 25.432 58.817 25.3775C58.9252 25.2996 59.07 25.4049 59.0294 25.5318C59.001 25.6208 59.0671 25.7118 59.1605 25.7122C59.2938 25.7129 59.3491 25.8832 59.2417 25.962C59.1664 26.0173 59.1664 26.1297 59.2417 26.185C59.3491 26.2639 59.2938 26.4342 59.1605 26.4348C59.0671 26.4352 59.001 26.5262 59.0294 26.6152C59.07 26.7422 58.9252 26.8474 58.817 26.7696C58.7411 26.715 58.6342 26.7498 58.6049 26.8385C58.5631 26.9651 58.384 26.9651 58.3422 26.8385C58.313 26.7498 58.206 26.715 58.1302 26.7696C58.022 26.8474 57.8771 26.7422 57.9177 26.6152C57.9461 26.5262 57.88 26.4352 57.7866 26.4348C57.6533 26.4342 57.598 26.2639 57.7055 26.185C57.7808 26.1297 57.7808 26.0173 57.7055 25.962C57.598 25.8832 57.6533 25.7129 57.7866 25.7122C57.88 25.7118 57.9461 25.6208 57.9177 25.5318C57.8771 25.4049 58.022 25.2996 58.1302 25.3775C58.206 25.432 58.313 25.3972 58.3422 25.3085Z" fill="#866FB3"/>
<path d="M66.2378 30.5134L68.3145 33.6779L70.7106 30.7479L70.5307 34.5285L74.1913 33.5665L71.8235 36.5194L75.3505 37.8928L71.6993 38.8899L73.7455 42.0742L70.2054 40.7347L69.9892 44.5135L67.9125 41.3491L65.5164 44.2791L65.6963 40.4984L62.0357 41.4605L64.4035 38.5076L60.8765 37.1342L64.5277 36.137L62.4815 32.9528L66.0216 34.2922L66.2378 30.5134Z" fill="#4C712F"/>
<path d="M65.0757 32.2518L67.444 34.3637L68.7486 31.4711L69.4232 34.5717L72.1789 32.9984L70.9022 35.9034L74.0564 36.2503L71.316 37.8501L73.6639 39.9847L70.5065 39.6681L71.1514 42.7752L68.783 40.6632L67.4784 43.5559L66.8038 40.4552L64.0481 42.0286L65.3248 39.1235L62.1706 38.7767L64.911 37.1769L62.5631 35.0423L65.7205 35.3588L65.0757 32.2518Z" fill="#64963A"/>
<path d="M67.1757 34.0134L68.214 35.5956L69.412 34.1306L69.3221 36.021L71.1524 35.5399L69.9685 37.0164L71.732 37.7031L69.9064 38.2017L70.9295 39.7938L69.1594 39.124L69.0513 41.0134L68.013 39.4312L66.8149 40.8962L66.9049 39.0059L65.0746 39.4869L66.2585 38.0105L64.495 37.3238L66.3206 36.8252L65.2975 35.2331L67.0675 35.9028L67.1757 34.0134Z" fill="#78A24A"/>
<path d="M67.1856 36.3974C67.1349 36.1534 67.4249 35.986 67.6109 36.1519C67.7413 36.2681 67.947 36.2244 68.0188 36.0652C68.1213 35.838 68.4543 35.8729 68.5072 36.1165C68.5444 36.2872 68.7365 36.3727 68.8882 36.2861C69.1046 36.1625 69.3535 36.3866 69.2532 36.6148C69.1829 36.7746 69.2881 36.9568 69.4617 36.9759C69.7094 37.0031 69.779 37.3306 69.5638 37.4563C69.4129 37.5443 69.391 37.7535 69.5202 37.871C69.7046 38.0387 69.5684 38.3445 69.3204 38.3197C69.1466 38.3022 69.0059 38.4585 69.0414 38.6295C69.0921 38.8736 68.8021 39.041 68.6161 38.8751C68.4857 38.7589 68.28 38.8026 68.2082 38.9618C68.1057 39.189 67.7727 39.154 67.7197 38.9105C67.6826 38.7398 67.4905 38.6543 67.3388 38.7409C67.1223 38.8644 66.8735 38.6404 66.9738 38.4122C67.0441 38.2523 66.9389 38.0702 66.7653 38.0511C66.5176 38.0239 66.448 37.6964 66.6632 37.5707C66.8141 37.4826 66.836 37.2735 66.7068 37.156C66.5224 36.9883 66.6586 36.6825 66.9066 36.7073C67.0804 36.7247 67.2211 36.5684 67.1856 36.3974Z" fill="#6F87B3"/>
<path d="M24.8684 54.5336C25.9858 53.1335 28.1142 53.1335 29.2316 54.5336C29.6705 55.0835 30.3007 55.4474 30.9963 55.5525C32.7676 55.8201 33.8318 57.6634 33.1779 59.3312C32.9212 59.9861 32.9212 60.7139 33.1779 61.3688C33.8318 63.0366 32.7676 64.8799 30.9963 65.1475C30.3007 65.2526 29.6705 65.6165 29.2316 66.1663C28.1142 67.5665 25.9858 67.5665 24.8684 66.1663C24.4295 65.6165 23.7993 65.2526 23.1037 65.1475C21.3324 64.8799 20.2682 63.0366 20.9221 61.3688C21.1788 60.7139 21.1788 59.9861 20.9221 59.3312C20.2682 57.6634 21.3324 55.8201 23.1037 55.5525C23.7993 55.4474 24.4295 55.0835 24.8684 54.5336Z" fill="#78A24A"/>
<path d="M24.526 56.8195C25.0269 55.6725 26.4633 55.2876 27.4705 56.0305C27.8661 56.3222 28.3572 56.4538 28.8456 56.3989C30.0894 56.2592 31.1408 57.3107 31.0011 58.5545C30.9463 59.0429 31.0779 59.534 31.3696 59.9295C32.1124 60.9368 31.7276 62.3731 30.5806 62.874C30.1302 63.0708 29.7707 63.4303 29.574 63.8807C29.0731 65.0276 27.6368 65.4125 26.6295 64.6696C26.2339 64.3779 25.7428 64.2464 25.2544 64.3012C24.0107 64.4409 22.9592 63.3894 23.0989 62.1457C23.1537 61.6573 23.0221 61.1661 22.7304 60.7706C21.9876 59.7633 22.3724 58.327 23.5194 57.8261C23.9698 57.6294 24.3293 57.2699 24.526 56.8195Z" fill="#4C712F"/>
<path d="M26.0089 57.5745C26.5422 56.9064 27.5578 56.9064 28.091 57.5745C28.3004 57.8369 28.6012 58.0105 28.9331 58.0607C29.7783 58.1884 30.2862 59.068 29.9741 59.8639C29.8516 60.1764 29.8516 60.5236 29.9741 60.8362C30.2862 61.632 29.7783 62.5116 28.9331 62.6393C28.6012 62.6895 28.3004 62.8631 28.091 63.1255C27.5578 63.7936 26.5422 63.7936 26.0089 63.1255C25.7996 62.8631 25.4988 62.6895 25.1669 62.6393C24.3216 62.5116 23.8138 61.632 24.1258 60.8362C24.2484 60.5236 24.2484 60.1764 24.1258 59.8639C23.8138 59.068 24.3216 58.1884 25.1669 58.0607C25.4988 58.0105 25.7996 57.8369 26.0089 57.5745Z" fill="#64963A"/>
<path d="M26.1468 59.0866C26.3261 58.6762 26.84 58.5385 27.2005 58.8043C27.342 58.9087 27.5178 58.9558 27.6925 58.9361C28.1376 58.8862 28.5138 59.2624 28.4639 59.7075C28.4442 59.8822 28.4913 60.058 28.5957 60.1995C28.8615 60.56 28.7238 61.0739 28.3134 61.2532C28.1522 61.3236 28.0236 61.4522 27.9532 61.6134C27.7739 62.0238 27.26 62.1615 26.8995 61.8957C26.758 61.7913 26.5822 61.7442 26.4075 61.7639C25.9624 61.8138 25.5862 61.4376 25.6361 60.9925C25.6558 60.8178 25.6087 60.642 25.5043 60.5005C25.2385 60.14 25.3762 59.6261 25.7866 59.4468C25.9478 59.3764 26.0764 59.2478 26.1468 59.0866Z" fill="#B3A16F"/>
<path d="M56.3684 36.5336C57.4858 35.1335 59.6142 35.1335 60.7316 36.5336C61.1705 37.0835 61.8007 37.4474 62.4963 37.5525C64.2676 37.8201 65.3318 39.6634 64.6779 41.3312C64.4212 41.9861 64.4212 42.7139 64.6779 43.3688C65.3318 45.0366 64.2676 46.8799 62.4963 47.1475C61.8007 47.2526 61.1705 47.6165 60.7316 48.1663C59.6142 49.5665 57.4858 49.5665 56.3684 48.1663C55.9295 47.6165 55.2993 47.2526 54.6037 47.1475C52.8324 46.8799 51.7682 45.0366 52.4221 43.3688C52.6788 42.7139 52.6788 41.9861 52.4221 41.3312C51.7682 39.6634 52.8324 37.8201 54.6037 37.5525C55.2993 37.4474 55.9295 37.0835 56.3684 36.5336Z" fill="#78A24A"/>
<path d="M56.026 38.8195C56.5269 37.6725 57.9633 37.2876 58.9705 38.0305C59.3661 38.3222 59.8572 38.4538 60.3456 38.3989C61.5894 38.2592 62.6408 39.3107 62.5011 40.5545C62.4463 41.0429 62.5779 41.534 62.8696 41.9295C63.6124 42.9368 63.2276 44.3731 62.0806 44.874C61.6302 45.0708 61.2707 45.4303 61.074 45.8807C60.5731 47.0276 59.1368 47.4125 58.1295 46.6696C57.7339 46.3779 57.2428 46.2464 56.7544 46.3012C55.5107 46.4409 54.4592 45.3894 54.5989 44.1457C54.6537 43.6573 54.5221 43.1661 54.2304 42.7706C53.4876 41.7633 53.8724 40.327 55.0194 39.8261C55.4698 39.6294 55.8293 39.2699 56.026 38.8195Z" fill="#4C712F"/>
<path d="M57.5089 39.5745C58.0422 38.9064 59.0578 38.9064 59.591 39.5745C59.8004 39.8369 60.1012 40.0105 60.4331 40.0607C61.2783 40.1884 61.7862 41.068 61.4741 41.8639C61.3516 42.1764 61.3516 42.5236 61.4741 42.8362C61.7862 43.632 61.2783 44.5116 60.4331 44.6393C60.1012 44.6895 59.8004 44.8631 59.591 45.1255C59.0578 45.7936 58.0422 45.7936 57.5089 45.1255C57.2996 44.8631 56.9988 44.6895 56.6669 44.6393C55.8216 44.5116 55.3138 43.632 55.6258 42.8362C55.7484 42.5236 55.7484 42.1764 55.6258 41.8639C55.3138 41.068 55.8216 40.1884 56.6669 40.0607C56.9988 40.0105 57.2996 39.8369 57.5089 39.5745Z" fill="#64963A"/>
<path d="M57.6468 41.0866C57.8261 40.6762 58.34 40.5385 58.7005 40.8043C58.842 40.9087 59.0178 40.9558 59.1925 40.9361C59.6376 40.8862 60.0138 41.2624 59.9639 41.7075C59.9442 41.8822 59.9913 42.058 60.0957 42.1995C60.3615 42.56 60.2238 43.0739 59.8134 43.2532C59.6522 43.3236 59.5236 43.4522 59.4532 43.6134C59.2739 44.0238 58.76 44.1615 58.3995 43.8957C58.258 43.7913 58.0822 43.7442 57.9075 43.7639C57.4624 43.8138 57.0862 43.4376 57.1361 42.9925C57.1558 42.8178 57.1087 42.642 57.0043 42.5005C56.7385 42.14 56.8762 41.6261 57.2866 41.4468C57.4478 41.3764 57.5764 41.2478 57.6468 41.0866Z" fill="#B3A16F"/>
<path d="M72.1277 53.9581C73.0098 52.8527 74.6902 52.8527 75.5724 53.9581C75.9188 54.3922 76.4163 54.6795 76.9655 54.7625C78.3639 54.9738 79.2041 56.429 78.6878 57.7457C78.4851 58.2627 78.4851 58.8373 78.6878 59.3543C79.2041 60.671 78.3639 62.1262 76.9655 62.3375C76.4163 62.4205 75.9188 62.7078 75.5724 63.1418C74.6902 64.2472 73.0098 64.2472 72.1277 63.1418C71.7812 62.7078 71.2837 62.4205 70.7345 62.3375C69.3361 62.1262 68.496 60.671 69.0122 59.3543C69.2149 58.8373 69.2149 58.2627 69.0122 57.7457C68.496 56.429 69.3361 54.9738 70.7345 54.7625C71.2837 54.6795 71.7812 54.3922 72.1277 53.9581Z" fill="#78A24A"/>
<path d="M71.8574 55.7627C72.2528 54.8573 73.3868 54.5534 74.182 55.1399C74.4943 55.3702 74.882 55.474 75.2676 55.4307C76.2495 55.3205 77.0796 56.1506 76.9693 57.1325C76.926 57.5181 77.0299 57.9058 77.2602 58.2181C77.8466 59.0133 77.5428 60.1472 76.6373 60.5427C76.2817 60.698 75.9979 60.9818 75.8426 61.3374C75.4472 62.2429 74.3132 62.5467 73.518 61.9603C73.2057 61.73 72.818 61.6261 72.4324 61.6694C71.4505 61.7797 70.6204 60.9495 70.7307 59.9676C70.774 59.5821 70.6701 59.1943 70.4398 58.8821C69.8533 58.0868 70.1572 56.9529 71.0627 56.5574C71.4183 56.4022 71.7021 56.1183 71.8574 55.7627Z" fill="#4C712F"/>
<path d="M73.0281 56.3588C73.4491 55.8313 74.2509 55.8313 74.6719 56.3588C74.8372 56.566 75.0746 56.703 75.3367 56.7426C76.004 56.8435 76.4049 57.5379 76.1585 58.1662C76.0618 58.4129 76.0618 58.6871 76.1585 58.9338C76.4049 59.5621 76.004 60.2565 75.3367 60.3573C75.0746 60.3969 74.8372 60.534 74.6719 60.7411C74.2509 61.2686 73.4491 61.2686 73.0281 60.7411C72.8628 60.534 72.6254 60.3969 72.3633 60.3573C71.696 60.2565 71.2951 59.5621 71.5415 58.9338C71.6382 58.6871 71.6382 58.4129 71.5415 58.1662C71.2951 57.5379 71.696 56.8435 72.3633 56.7426C72.6254 56.703 72.8628 56.566 73.0281 56.3588Z" fill="#64963A"/>
<path d="M73.137 57.5526C73.2785 57.2286 73.6842 57.1198 73.9688 57.3297C74.0805 57.4121 74.2193 57.4493 74.3573 57.4338C74.7086 57.3943 75.0057 57.6914 74.9662 58.0427C74.9507 58.1807 74.9879 58.3194 75.0703 58.4312C75.2801 58.7157 75.1714 59.1215 74.8474 59.263C74.7202 59.3186 74.6186 59.4202 74.563 59.5474C74.4215 59.8714 74.0157 59.9801 73.7312 59.7703C73.6194 59.6879 73.4807 59.6507 73.3427 59.6662C72.9914 59.7057 72.6943 59.4086 72.7338 59.0573C72.7493 58.9193 72.7121 58.7805 72.6297 58.6688C72.4198 58.3842 72.5286 57.9785 72.8526 57.837C72.9798 57.7814 73.0814 57.6798 73.137 57.5526Z" fill="#B3A16F"/>
<path d="M40.1769 38.1264C40.7494 36.8155 42.391 36.3756 43.5423 37.2246C43.9944 37.558 44.5557 37.7084 45.1139 37.6457C46.5354 37.4861 47.7372 38.6879 47.5776 40.1094C47.5149 40.6676 47.6653 41.2289 47.9987 41.681C48.8477 42.8323 48.4078 44.4739 47.0969 45.0464C46.5821 45.2712 46.1712 45.6821 45.9464 46.1969C45.3739 47.5078 43.7323 47.9477 42.581 47.0987C42.1289 46.7653 41.5676 46.6149 41.0094 46.6776C39.5878 46.8372 38.3861 45.6354 38.5457 44.2139C38.6084 43.6557 38.458 43.0944 38.1246 42.6423C37.2756 41.491 37.7155 39.8494 39.0264 39.2769C39.5412 39.0521 39.9521 38.6412 40.1769 38.1264Z" fill="#78A24A"/>
<path d="M40.3852 39.9601C40.5346 38.972 41.5629 38.3783 42.4933 38.743C42.8587 38.8863 43.2647 38.8863 43.63 38.743C44.5605 38.3783 45.5888 38.972 45.7381 39.9601C45.7967 40.3482 45.9997 40.6998 46.3065 40.9446C47.0876 41.568 47.0876 42.7553 46.3065 43.3787C45.9997 43.6235 45.7967 43.9751 45.7381 44.3632C45.5888 45.3513 44.5605 45.945 43.63 45.5803C43.2647 45.437 42.8587 45.437 42.4933 45.5803C41.5629 45.945 40.5346 45.3513 40.3852 44.3632C40.3266 43.9751 40.1236 43.6235 39.8169 43.3787C39.0357 42.7553 39.0357 41.568 39.8169 40.9446C40.1236 40.6998 40.3266 40.3482 40.3852 39.9601Z" fill="#4C712F"/>
<path d="M41.6851 40.2361C41.9583 39.6105 42.7416 39.4006 43.291 39.8058C43.5067 39.9648 43.7746 40.0366 44.041 40.0067C44.7193 39.9305 45.2928 40.504 45.2166 41.1823C45.1867 41.4487 45.2584 41.7165 45.4175 41.9323C45.8227 42.4816 45.6128 43.265 44.9872 43.5382C44.7416 43.6455 44.5455 43.8416 44.4382 44.0872C44.165 44.7127 43.3817 44.9226 42.8323 44.5175C42.6166 44.3584 42.3487 44.2866 42.0823 44.3166C41.404 44.3927 40.8305 43.8193 40.9067 43.1409C40.9366 42.8746 40.8649 42.6067 40.7058 42.391C40.3006 41.8416 40.5105 41.0583 41.1361 40.7851C41.3817 40.6778 41.5778 40.4817 41.6851 40.2361Z" fill="#64963A"/>
<path d="M42.1039 41.3739C42.1574 41.0203 42.5253 40.8078 42.8583 40.9384C42.989 40.9896 43.1343 40.9896 43.265 40.9384C43.598 40.8078 43.9659 41.0203 44.0194 41.3739C44.0404 41.5127 44.113 41.6385 44.2228 41.7261C44.5023 41.9492 44.5023 42.3741 44.2228 42.5972C44.113 42.6848 44.0404 42.8106 44.0194 42.9494C43.9659 43.3031 43.598 43.5155 43.265 43.385C43.1343 43.3337 42.989 43.3337 42.8583 43.385C42.5253 43.5155 42.1574 43.3031 42.1039 42.9494C42.083 42.8106 42.0103 42.6848 41.9006 42.5972C41.621 42.3741 41.621 41.9492 41.9006 41.7261C42.0103 41.6385 42.083 41.5127 42.1039 41.3739Z" fill="#B3A16F"/>
<path d="M54.5769 53.4264C55.1494 52.1155 56.791 51.6756 57.9423 52.5246C58.3944 52.858 58.9557 53.0084 59.5139 52.9457C60.9354 52.7861 62.1372 53.9878 61.9776 55.4094C61.9149 55.9676 62.0653 56.5289 62.3987 56.981C63.2477 58.1322 62.8078 59.7739 61.4969 60.3464C60.9821 60.5712 60.5712 60.9821 60.3464 61.4969C59.7739 62.8078 58.1323 63.2477 56.981 62.3987C56.5289 62.0653 55.9676 61.9149 55.4094 61.9775C53.9879 62.1372 52.7861 60.9354 52.9457 59.5139C53.0084 58.9557 52.858 58.3944 52.5246 57.9423C51.6756 56.791 52.1155 55.1494 53.4264 54.5769C53.9412 54.352 54.3521 53.9411 54.5769 53.4264Z" fill="#78A24A"/>
<path d="M54.7853 55.2602C54.9346 54.272 55.9629 53.6783 56.8933 54.0431C57.2587 54.1863 57.6647 54.1863 58.03 54.0431C58.9605 53.6783 59.9888 54.272 60.1381 55.2602C60.1967 55.6482 60.3997 55.9998 60.7065 56.2446C61.4876 56.868 61.4876 58.0554 60.7065 58.6788C60.3997 58.9236 60.1967 59.2752 60.1381 59.6632C59.9888 60.6514 58.9605 61.2451 58.03 60.8803C57.6647 60.7371 57.2587 60.7371 56.8933 60.8803C55.9629 61.2451 54.9346 60.6514 54.7853 59.6632C54.7266 59.2752 54.5236 58.9236 54.2169 58.6788C53.4358 58.0554 53.4358 56.868 54.2169 56.2446C54.5236 55.9998 54.7266 55.6482 54.7853 55.2602Z" fill="#4C712F"/>
<path d="M56.0851 55.536C56.3583 54.9105 57.1416 54.7006 57.691 55.1057C57.9067 55.2648 58.1746 55.3366 58.441 55.3067C59.1193 55.2305 59.6928 55.804 59.6166 56.4823C59.5867 56.7487 59.6584 57.0165 59.8175 57.2323C60.2227 57.7816 60.0128 58.565 59.3872 58.8382C59.1416 58.9455 58.9455 59.1415 58.8382 59.3872C58.565 60.0127 57.7817 60.2226 57.2323 59.8175C57.0166 59.6584 56.7487 59.5866 56.4823 59.6165C55.804 59.6927 55.2305 59.1193 55.3067 58.4409C55.3366 58.1746 55.2649 57.9067 55.1058 57.691C54.7006 57.1416 54.9105 56.3582 55.5361 56.085C55.7817 55.9778 55.9778 55.7817 56.0851 55.536Z" fill="#64963A"/>
<path d="M56.5039 56.6739C56.5574 56.3203 56.9253 56.1078 57.2583 56.2383C57.389 56.2896 57.5343 56.2896 57.665 56.2383C57.998 56.1078 58.366 56.3203 58.4194 56.6739C58.4404 56.8127 58.513 56.9385 58.6228 57.0261C58.9023 57.2492 58.9023 57.6741 58.6228 57.8972C58.513 57.9848 58.4404 58.1106 58.4194 58.2494C58.366 58.603 57.998 58.8155 57.665 58.685C57.5343 58.6337 57.389 58.6337 57.2583 58.685C56.9253 58.8155 56.5574 58.603 56.5039 58.2494C56.483 58.1106 56.4103 57.9848 56.3006 57.8972C56.021 57.6741 56.021 57.2492 56.3006 57.0261C56.4103 56.9385 56.483 56.8127 56.5039 56.6739Z" fill="#B3A16F"/>
</g>
</g>
<defs>
<filter id="filter0_n_37_35" x="16.7" y="17.6" width="70.2" height="66.6" filterUnits="userSpaceOnUse" color-interpolation-filters="sRGB">
<feFlood flood-opacity="0" result="BackgroundImageFix"/>
<feBlend mode="normal" in="SourceGraphic" in2="BackgroundImageFix" result="shape"/>
<feTurbulence type="fractalNoise" baseFrequency="0.11627906560897827 0.11627906560897827" stitchTiles="stitch" numOctaves="3" result="noise" seed="2894" />
<feColorMatrix in="noise" type="luminanceToAlpha" result="alphaNoise" />
<feComponentTransfer in="alphaNoise" result="coloredNoise1">
<feFuncA type="discrete" tableValues="1 1 1 1 1 1 1 1 1 1 1 1 1 1 1 1 1 1 1 1 1 1 1 1 1 1 1 1 1 1 1 1 1 1 1 1 1 1 1 1 1 1 1 1 1 1 1 1 1 1 1 0 0 0 0 0 0 0 0 0 0 0 0 0 0 0 0 0 0 0 0 0 0 0 0 0 0 0 0 0 0 0 0 0 0 0 0 0 0 0 0 0 0 0 0 0 0 0 0 0 "/>
</feComponentTransfer>
<feComposite operator="in" in2="shape" in="coloredNoise1" result="noise1Clipped" />
<feFlood flood-color="rgba(100, 150, 58, 0.61)" result="color1Flood" />
<feComposite operator="in" in2="noise1Clipped" in="color1Flood" result="color1" />
<feMerge result="effect1_noise_37_35">
<feMergeNode in="shape" />
<feMergeNode in="color1" />
</feMerge>
</filter>
<clipPath id="clip0_37_35">
<rect width="100" height="100" fill="white"/>
</clipPath>
</defs>
</svg>
