<svg width="100" height="100" viewBox="0 0 100 100" fill="none" xmlns="http://www.w3.org/2000/svg">
<rect x="35.5" y="0.5" width="29" height="99" fill="#515253" stroke="black"/>
<rect x="40.5" y="0.5" width="19" height="99" stroke="black"/>
<rect x="0.5" y="-0.5" width="35" height="9" transform="matrix(1 0 0 -1 32 9)" fill="#515253" stroke="black"/>
<rect x="0.5" y="-0.5" width="35" height="9" transform="matrix(1 0 0 -1 32 99)" fill="#515253" stroke="black"/>
<rect x="0.5" y="-0.5" width="7" height="2.60556" transform="matrix(1 0 0 -1 46 15.6055)" fill="#38AEF7" stroke="#1A86E9"/>
<rect x="0.5" y="-0.5" width="7" height="2.60556" transform="matrix(1 0 0 -1 46 31.8306)" fill="#38AEF7" stroke="#1A86E9"/>
<rect x="0.5" y="-0.5" width="7" height="2.60556" transform="matrix(1 0 0 -1 46 21.0139)" fill="#38AEF7" stroke="#1A86E9"/>
<rect x="0.5" y="-0.5" width="7" height="2.60556" transform="matrix(1 0 0 -1 46 37.239)" fill="#38AEF7" stroke="#1A86E9"/>
<rect x="0.5" y="-0.5" width="7" height="2.60556" transform="matrix(1 0 0 -1 46 26.4223)" fill="#38AEF7" stroke="#1A86E9"/>
<rect x="0.5" y="-0.5" width="7" height="2.60556" transform="matrix(1 0 0 -1 46 42.6473)" fill="#38AEF7" stroke="#1A86E9"/>
<rect x="0.5" y="-0.5" width="7" height="2.60556" transform="matrix(1 0 0 -1 46 48.0557)" fill="#38AEF7" stroke="#1A86E9"/>
<rect x="0.5" y="-0.5" width="7" height="2.60556" transform="matrix(1 0 0 -1 46 64.2807)" fill="#38AEF7" stroke="#1A86E9"/>
<rect x="0.5" y="-0.5" width="7" height="2.60556" transform="matrix(1 0 0 -1 46 79.9218)" fill="#38AEF7" stroke="#1A86E9"/>
<rect x="0.5" y="-0.5" width="7" height="2.60556" transform="matrix(1 0 0 -1 46 69.3589)" fill="#38AEF7" stroke="#1A86E9"/>
<rect x="0.5" y="-0.5" width="7" height="2.60556" transform="matrix(1 0 0 -1 46 85)" fill="#38AEF7" stroke="#1A86E9"/>
<rect x="0.5" y="-0.5" width="7" height="2.60556" transform="matrix(1 0 0 -1 46 53.464)" fill="#38AEF7" stroke="#1A86E9"/>
<rect x="0.5" y="-0.5" width="7" height="2.60556" transform="matrix(1 0 0 -1 46 58.8723)" fill="#38AEF7" stroke="#1A86E9"/>
<rect x="0.5" y="-0.5" width="7" height="2.60556" transform="matrix(1 0 0 -1 46 74.5134)" fill="#38AEF7" stroke="#1A86E9"/>
</svg>
