<svg width="100" height="100" viewBox="0 0 100 100" fill="none" xmlns="http://www.w3.org/2000/svg">
<g clip-path="url(#clip0_37_34)">
<rect x="0.5" y="0.5" width="99" height="99" rx="8.5" fill="#515253" stroke="black"/>
<rect x="6.5" y="6.5" width="87" height="87" rx="2.5" fill="#515253" stroke="black"/>
<mask id="path-3-inside-1_37_34" fill="white">
<path d="M42.1318 53.7217C44.341 53.7217 46.1318 55.5126 46.1318 57.7217V80.8057C46.1318 83.1725 44.0782 85.0403 41.7707 84.5138C28.614 81.5115 18.2334 71.2217 15.0985 58.1159C14.5445 55.7997 16.4164 53.7217 18.7979 53.7217H42.1318ZM80.6523 53.7217C83.0338 53.7217 84.9057 55.7996 84.3517 58.1158C81.2742 70.9815 71.2135 81.1324 58.3988 84.34C56.0742 84.9218 53.9717 83.046 53.9717 80.6497V57.7217C53.9717 55.5126 55.7625 53.7217 57.9717 53.7217H80.6523ZM53.9717 18.9548C53.9717 16.5585 56.0742 14.6827 58.3988 15.2645C71.2133 18.472 81.274 28.6223 84.3516 41.4877C84.9057 43.8039 83.0338 45.8818 80.6522 45.8818H57.9717C55.7625 45.8818 53.9717 44.091 53.9717 41.8818V18.9548ZM46.1318 41.8818C46.1318 44.091 44.341 45.8818 42.1318 45.8818H18.798C16.4164 45.8818 14.5445 43.8038 15.0986 41.4876C18.2335 28.3819 28.6141 18.0921 41.7707 15.0898C44.0782 14.5632 46.1318 16.431 46.1318 18.7979V41.8818Z"/>
</mask>
<path d="M42.1318 53.7217C44.341 53.7217 46.1318 55.5126 46.1318 57.7217V80.8057C46.1318 83.1725 44.0782 85.0403 41.7707 84.5138C28.614 81.5115 18.2334 71.2217 15.0985 58.1159C14.5445 55.7997 16.4164 53.7217 18.7979 53.7217H42.1318ZM80.6523 53.7217C83.0338 53.7217 84.9057 55.7996 84.3517 58.1158C81.2742 70.9815 71.2135 81.1324 58.3988 84.34C56.0742 84.9218 53.9717 83.046 53.9717 80.6497V57.7217C53.9717 55.5126 55.7625 53.7217 57.9717 53.7217H80.6523ZM53.9717 18.9548C53.9717 16.5585 56.0742 14.6827 58.3988 15.2645C71.2133 18.472 81.274 28.6223 84.3516 41.4877C84.9057 43.8039 83.0338 45.8818 80.6522 45.8818H57.9717C55.7625 45.8818 53.9717 44.091 53.9717 41.8818V18.9548ZM46.1318 41.8818C46.1318 44.091 44.341 45.8818 42.1318 45.8818H18.798C16.4164 45.8818 14.5445 43.8038 15.0986 41.4876C18.2335 28.3819 28.6141 18.0921 41.7707 15.0898C44.0782 14.5632 46.1318 16.431 46.1318 18.7979V41.8818Z" fill="#38AEF7"/>
<path d="M41.7707 15.0898L41.5482 14.1148L41.7707 15.0898ZM15.0986 41.4876L14.126 41.2549L15.0986 41.4876ZM84.3516 41.4877L83.3791 41.7204L84.3516 41.4877ZM58.3988 84.34L58.1559 83.3699L58.3988 84.34ZM84.3517 58.1158L83.3791 57.8831L84.3517 58.1158ZM15.0985 58.1159L14.126 58.3486L15.0985 58.1159ZM41.7707 84.5138L41.5482 85.4887L41.7707 84.5138ZM46.1318 57.7217H45.1318V80.8057H46.1318H47.1318V57.7217H46.1318ZM41.7707 84.5138L41.9931 83.5388C29.2078 80.6212 19.1176 70.6195 16.0711 57.8833L15.0985 58.1159L14.126 58.3486C17.3492 71.8239 28.0203 82.4017 41.5482 85.4887L41.7707 84.5138ZM18.7979 53.7217V54.7217H42.1318V53.7217V52.7217H18.7979V53.7217ZM84.3517 58.1158L83.3791 57.8831C80.3885 70.3858 70.6093 80.2528 58.1559 83.3699L58.3988 84.34L58.6416 85.3101C71.8176 82.012 82.1599 71.5771 85.3242 58.3484L84.3517 58.1158ZM53.9717 80.6497H54.9717V57.7217H53.9717H52.9717V80.6497H53.9717ZM57.9717 53.7217V54.7217H80.6523V53.7217V52.7217H57.9717V53.7217ZM58.3988 15.2645L58.156 16.2346C70.6092 19.3516 80.3883 29.218 83.3791 41.7204L84.3516 41.4877L85.3242 41.2551C82.1598 28.0266 71.8175 17.5924 58.6416 14.2944L58.3988 15.2645ZM80.6522 45.8818V44.8818H57.9717V45.8818V46.8818H80.6522V45.8818ZM53.9717 41.8818H54.9717V18.9548H53.9717H52.9717V41.8818H53.9717ZM42.1318 45.8818V44.8818H18.798V45.8818V46.8818H42.1318V45.8818ZM15.0986 41.4876L16.0711 41.7202C19.1177 28.9841 29.2079 18.9823 41.9931 16.0647L41.7707 15.0898L41.5482 14.1148C28.0204 17.2019 17.3494 27.7797 14.126 41.2549L15.0986 41.4876ZM46.1318 18.7979H45.1318V41.8818H46.1318H47.1318V18.7979H46.1318ZM41.7707 15.0898L41.9931 16.0647C43.5879 15.7008 45.1318 16.9811 45.1318 18.7979H46.1318H47.1318C47.1318 15.881 44.5684 13.4256 41.5482 14.1148L41.7707 15.0898ZM18.798 45.8818V44.8818C16.9693 44.8818 15.6885 43.3199 16.0711 41.7202L15.0986 41.4876L14.126 41.2549C13.4006 44.2877 15.8635 46.8818 18.798 46.8818V45.8818ZM42.1318 45.8818V46.8818C44.8933 46.8818 47.1318 44.6433 47.1318 41.8818H46.1318H45.1318C45.1318 43.5387 43.7887 44.8818 42.1318 44.8818V45.8818ZM57.9717 45.8818V44.8818C56.3148 44.8818 54.9717 43.5387 54.9717 41.8818H53.9717H52.9717C52.9717 44.6433 55.2103 46.8818 57.9717 46.8818V45.8818ZM84.3516 41.4877L83.3791 41.7204C83.7617 43.32 82.4809 44.8818 80.6522 44.8818V45.8818V46.8818C83.5866 46.8818 86.0497 44.2879 85.3242 41.2551L84.3516 41.4877ZM58.3988 15.2645L58.6416 14.2944C55.5966 13.5323 52.9717 16.0028 52.9717 18.9548H53.9717H54.9717C54.9717 17.1141 56.5517 15.833 58.156 16.2346L58.3988 15.2645ZM53.9717 57.7217H54.9717C54.9717 56.0648 56.3148 54.7217 57.9717 54.7217V53.7217V52.7217C55.2103 52.7217 52.9717 54.9603 52.9717 57.7217H53.9717ZM58.3988 84.34L58.1559 83.3699C56.5517 83.7715 54.9717 82.4904 54.9717 80.6497H53.9717H52.9717C52.9717 83.6017 55.5966 86.0722 58.6416 85.3101L58.3988 84.34ZM84.3517 58.1158L85.3242 58.3484C86.0497 55.3156 83.5866 52.7217 80.6523 52.7217V53.7217V54.7217C82.481 54.7217 83.7617 56.2835 83.3791 57.8831L84.3517 58.1158ZM15.0985 58.1159L16.0711 57.8833C15.6885 56.2836 16.9693 54.7217 18.7979 54.7217V53.7217V52.7217C15.8635 52.7217 13.4005 55.3158 14.126 58.3486L15.0985 58.1159ZM46.1318 80.8057H45.1318C45.1318 82.6224 43.5879 83.9027 41.9931 83.5388L41.7707 84.5138L41.5482 85.4887C44.5684 86.1779 47.1318 83.7226 47.1318 80.8057H46.1318ZM46.1318 57.7217H47.1318C47.1318 54.9603 44.8933 52.7217 42.1318 52.7217V53.7217V54.7217C43.7887 54.7217 45.1318 56.0648 45.1318 57.7217H46.1318Z" fill="#1A86E9" mask="url(#path-3-inside-1_37_34)"/>
<g filter="url(#filter0_n_37_34)">
<mask id="path-5-inside-2_37_34" fill="white">
<path d="M42.1314 53.7219C44.3406 53.7219 46.1314 55.5127 46.1314 57.7219V80.8058C46.1314 83.1727 44.0777 85.0405 41.7702 84.5139C28.6138 81.5115 18.2331 71.2217 15.0982 58.1161C14.5441 55.7999 16.416 53.7219 18.7975 53.7219H42.1314ZM80.6518 53.7219C83.0334 53.7219 84.9053 55.7998 84.3512 58.116C81.2737 70.9816 71.213 81.1319 58.3983 84.3393C56.0737 84.9211 53.9713 83.0453 53.9713 80.649V57.7219C53.9713 55.5127 55.7621 53.7219 57.9713 53.7219H80.6518ZM53.9713 18.9539C53.9713 16.5577 56.0737 14.6818 58.3983 15.2637C71.2131 18.4711 81.2737 28.6221 84.3513 41.4879C84.9053 43.8041 83.0334 45.882 80.6519 45.882H57.9713C55.7621 45.882 53.9713 44.0912 53.9713 41.882V18.9539ZM46.1314 41.882C46.1314 44.0912 44.3406 45.882 42.1314 45.882H18.7975C16.416 45.882 14.5441 43.804 15.0981 41.4878C18.233 28.3822 28.6137 18.0925 41.7702 15.09C44.0777 14.5634 46.1314 16.4313 46.1314 18.7981V41.882Z"/>
</mask>
<path d="M42.1314 53.7219C44.3406 53.7219 46.1314 55.5127 46.1314 57.7219V80.8058C46.1314 83.1727 44.0777 85.0405 41.7702 84.5139C28.6138 81.5115 18.2331 71.2217 15.0982 58.1161C14.5441 55.7999 16.416 53.7219 18.7975 53.7219H42.1314ZM80.6518 53.7219C83.0334 53.7219 84.9053 55.7998 84.3512 58.116C81.2737 70.9816 71.213 81.1319 58.3983 84.3393C56.0737 84.9211 53.9713 83.0453 53.9713 80.649V57.7219C53.9713 55.5127 55.7621 53.7219 57.9713 53.7219H80.6518ZM53.9713 18.9539C53.9713 16.5577 56.0737 14.6818 58.3983 15.2637C71.2131 18.4711 81.2737 28.6221 84.3513 41.4879C84.9053 43.8041 83.0334 45.882 80.6519 45.882H57.9713C55.7621 45.882 53.9713 44.0912 53.9713 41.882V18.9539ZM46.1314 41.882C46.1314 44.0912 44.3406 45.882 42.1314 45.882H18.7975C16.416 45.882 14.5441 43.804 15.0981 41.4878C18.233 28.3822 28.6137 18.0925 41.7702 15.09C44.0777 14.5634 46.1314 16.4313 46.1314 18.7981V41.882Z" fill="#38AEF7"/>
<path d="M84.3513 41.4879L83.3787 41.7206L84.3513 41.4879ZM58.3983 84.3393L58.1555 83.3692L58.3983 84.3393ZM84.3512 58.116L83.3787 57.8833L84.3512 58.116ZM15.0982 58.1161L14.1256 58.3488L15.0982 58.1161ZM41.7702 84.5139L41.5477 85.4888L41.7702 84.5139ZM46.1314 57.7219H45.1314V80.8058H46.1314H47.1314V57.7219H46.1314ZM41.7702 84.5139L41.9927 83.539C29.2075 80.6212 19.1173 70.6195 16.0707 57.8835L15.0982 58.1161L14.1256 58.3488C17.3489 71.8239 28.02 82.4017 41.5477 85.4888L41.7702 84.5139ZM18.7975 53.7219V54.7219H42.1314V53.7219V52.7219H18.7975V53.7219ZM84.3512 58.116L83.3787 57.8833C80.3879 70.3859 70.6089 80.2523 58.1555 83.3692L58.3983 84.3393L58.6411 85.3093C71.8172 82.0115 82.1594 71.5772 85.3238 58.3486L84.3512 58.116ZM53.9713 80.649H54.9713V57.7219H53.9713H52.9713V80.649H53.9713ZM57.9713 53.7219V54.7219H80.6518V53.7219V52.7219H57.9713V53.7219ZM58.3983 15.2637L58.1555 16.2337C70.609 19.3508 80.388 29.2178 83.3787 41.7206L84.3513 41.4879L85.3238 41.2553C82.1595 28.0265 71.8173 17.5915 58.6411 14.2936L58.3983 15.2637ZM80.6519 45.882V44.882H57.9713V45.882V46.882H80.6519V45.882ZM53.9713 41.882H54.9713V18.9539H53.9713H52.9713V41.882H53.9713ZM42.1314 45.882V44.882H18.7975V45.882V46.882H42.1314V45.882ZM15.0981 41.4878L16.0707 41.7204C19.1172 28.9844 29.2075 18.9827 41.9927 16.065L41.7702 15.09L41.5477 14.1151C28.02 17.2022 17.3489 27.78 14.1256 41.2552L15.0981 41.4878ZM46.1314 18.7981H45.1314V41.882H46.1314H47.1314V18.7981H46.1314ZM41.7702 15.09L41.9927 16.065C43.5875 15.701 45.1314 16.9813 45.1314 18.7981H46.1314H47.1314C47.1314 15.8812 44.568 13.4258 41.5477 14.1151L41.7702 15.09ZM18.7975 45.882V44.882C16.9689 44.882 15.6881 43.3201 16.0707 41.7204L15.0981 41.4878L14.1256 41.2552C13.4001 44.2879 15.8631 46.882 18.7975 46.882V45.882ZM42.1314 45.882V46.882C44.8929 46.882 47.1314 44.6435 47.1314 41.882H46.1314H45.1314C45.1314 43.5389 43.7883 44.882 42.1314 44.882V45.882ZM57.9713 45.882V44.882C56.3144 44.882 54.9713 43.5389 54.9713 41.882H53.9713H52.9713C52.9713 44.6435 55.2099 46.882 57.9713 46.882V45.882ZM84.3513 41.4879L83.3787 41.7206C83.7613 43.3202 82.4806 44.882 80.6519 44.882V45.882V46.882C83.5862 46.882 86.0493 44.2881 85.3238 41.2553L84.3513 41.4879ZM58.3983 15.2637L58.6411 14.2936C55.5962 13.5315 52.9713 16.002 52.9713 18.9539H53.9713H54.9713C54.9713 17.1133 56.5513 15.8322 58.1555 16.2337L58.3983 15.2637ZM53.9713 57.7219H54.9713C54.9713 56.065 56.3144 54.7219 57.9713 54.7219V53.7219V52.7219C55.2099 52.7219 52.9713 54.9605 52.9713 57.7219H53.9713ZM58.3983 84.3393L58.1555 83.3692C56.5513 83.7707 54.9713 82.4896 54.9713 80.649H53.9713H52.9713C52.9713 83.6009 55.5962 86.0715 58.6411 85.3093L58.3983 84.3393ZM84.3512 58.116L85.3238 58.3486C86.0493 55.3158 83.5862 52.7219 80.6518 52.7219V53.7219V54.7219C82.4805 54.7219 83.7613 56.2837 83.3787 57.8833L84.3512 58.116ZM15.0982 58.1161L16.0707 57.8835C15.6881 56.2838 16.9689 54.7219 18.7975 54.7219V53.7219V52.7219C15.8631 52.7219 13.4002 55.316 14.1256 58.3488L15.0982 58.1161ZM46.1314 80.8058H45.1314C45.1314 82.6226 43.5875 83.9029 41.9927 83.539L41.7702 84.5139L41.5477 85.4888C44.568 86.1781 47.1314 83.7227 47.1314 80.8058H46.1314ZM46.1314 57.7219H47.1314C47.1314 54.9605 44.8929 52.7219 42.1314 52.7219V53.7219V54.7219C43.7883 54.7219 45.1314 56.065 45.1314 57.7219H46.1314Z" fill="#1A86E9" mask="url(#path-5-inside-2_37_34)"/>
</g>
<mask id="path-7-outside-3_37_34" maskUnits="userSpaceOnUse" x="13.0008" y="12.9998" width="73" height="73" fill="black">
<rect fill="white" x="13.0008" y="12.9998" width="73" height="73"/>
<path d="M42.1321 53.7213C44.3412 53.7213 46.1321 55.5122 46.1321 57.7213V80.8064C46.1321 83.1732 44.0784 85.041 41.7709 84.5144C28.6141 81.5121 18.2335 71.2217 15.0987 58.1156C14.5447 55.7994 16.4166 53.7213 18.7981 53.7213H42.1321ZM80.6526 53.7213C83.0341 53.7213 84.906 55.7992 84.352 58.1154C81.2745 70.9815 71.2132 81.1324 58.398 84.3398C56.0734 84.9216 53.971 83.0457 53.971 80.6495V57.7213C53.971 55.5122 55.7618 53.7213 57.971 53.7213H80.6526ZM53.971 18.9544C53.971 16.5581 56.0734 14.6823 58.398 15.2641C71.2132 18.4714 81.2745 28.6224 84.352 41.4884C84.906 43.8046 83.0341 45.8825 80.6526 45.8825H57.971C55.7618 45.8825 53.971 44.0916 53.971 41.8825V18.9544ZM46.1321 41.8825C46.1321 44.0916 44.3412 45.8825 42.1321 45.8825H18.7981C16.4166 45.8825 14.5447 43.8045 15.0987 41.4883C18.2335 28.3821 28.6141 18.0917 41.771 15.0894C44.0785 14.5628 46.1321 16.4307 46.1321 18.7975V41.8825Z"/>
</mask>
<path d="M15.0987 41.4883L14.1262 41.2557L15.0987 41.4883ZM84.352 41.4884L85.3246 41.2558L84.352 41.4884ZM58.398 15.2641L58.1552 16.2341L58.398 15.2641ZM58.398 84.3398L58.1552 83.3697L58.398 84.3398ZM84.352 58.1154L83.3794 57.8828L84.352 58.1154ZM15.0987 58.1156L14.1262 58.3482L15.0987 58.1156ZM41.7709 84.5144L41.5485 85.4894L41.7709 84.5144ZM46.1321 57.7213H45.1321V80.8064H46.1321H47.1321V57.7213H46.1321ZM41.7709 84.5144L41.9934 83.5395C29.2079 80.6219 19.1177 70.6195 16.0713 57.8829L15.0987 58.1156L14.1262 58.3482C17.3493 71.8238 28.0203 82.4023 41.5485 85.4894L41.7709 84.5144ZM18.7981 53.7213V54.7213H42.1321V53.7213V52.7213H18.7981V53.7213ZM84.352 58.1154L83.3794 57.8828C80.3888 70.3858 70.6091 80.2528 58.1552 83.3697L58.398 84.3398L58.6407 85.3099C71.8173 82.0121 82.1602 71.5771 85.3245 58.348L84.352 58.1154ZM53.971 80.6495H54.971V57.7213H53.971H52.971V80.6495H53.971ZM57.971 53.7213V54.7213H80.6526V53.7213V52.7213H57.971V53.7213ZM58.398 15.2641L58.1552 16.2341C70.6091 19.3511 80.3888 29.218 83.3794 41.7211L84.352 41.4884L85.3246 41.2558C82.1602 28.0267 71.8173 17.5918 58.6407 14.294L58.398 15.2641ZM80.6526 45.8825V44.8825H57.971V45.8825V46.8825H80.6526V45.8825ZM53.971 41.8825H54.971V18.9544H53.971H52.971V41.8825H53.971ZM42.1321 45.8825V44.8825H18.7981V45.8825V46.8825H42.1321V45.8825ZM15.0987 41.4883L16.0713 41.7209C19.1176 28.9843 29.2079 18.9819 41.9934 16.0643L41.771 15.0894L41.5485 14.1145C28.0203 17.2015 17.3493 27.78 14.1262 41.2557L15.0987 41.4883ZM46.1321 18.7975H45.1321V41.8825H46.1321H47.1321V18.7975H46.1321ZM41.771 15.0894L41.9934 16.0643C43.5882 15.7004 45.1321 16.9807 45.1321 18.7975H46.1321H47.1321C47.1321 15.8806 44.5687 13.4253 41.5485 14.1145L41.771 15.0894ZM18.7981 45.8825V44.8825C16.9695 44.8825 15.6887 43.3206 16.0713 41.7209L15.0987 41.4883L14.1262 41.2557C13.4008 44.2884 15.8637 46.8825 18.7981 46.8825V45.8825ZM42.1321 45.8825V46.8825C44.8935 46.8825 47.1321 44.6439 47.1321 41.8825H46.1321H45.1321C45.1321 43.5393 43.7889 44.8825 42.1321 44.8825V45.8825ZM57.971 45.8825V44.8825C56.3141 44.8825 54.971 43.5393 54.971 41.8825H53.971H52.971C52.971 44.6439 55.2095 46.8825 57.971 46.8825V45.8825ZM84.352 41.4884L83.3794 41.7211C83.762 43.3207 82.4813 44.8825 80.6526 44.8825V45.8825V46.8825C83.5869 46.8825 86.05 44.2886 85.3246 41.2558L84.352 41.4884ZM58.398 15.2641L58.6407 14.294C55.5958 13.5319 52.971 16.0024 52.971 18.9544H53.971H54.971C54.971 17.1137 56.551 15.8326 58.1552 16.2341L58.398 15.2641ZM53.971 57.7213H54.971C54.971 56.0645 56.3141 54.7213 57.971 54.7213V53.7213V52.7213C55.2095 52.7213 52.971 54.9599 52.971 57.7213H53.971ZM58.398 84.3398L58.1552 83.3697C56.551 83.7712 54.971 82.4901 54.971 80.6495H53.971H52.971C52.971 83.6014 55.5958 86.0719 58.6407 85.3099L58.398 84.3398ZM84.352 58.1154L85.3245 58.348C86.05 55.3153 83.5869 52.7213 80.6526 52.7213V53.7213V54.7213C82.4813 54.7213 83.762 56.2832 83.3794 57.8828L84.352 58.1154ZM15.0987 58.1156L16.0713 57.8829C15.6887 56.2833 16.9695 54.7213 18.7981 54.7213V53.7213V52.7213C15.8637 52.7213 13.4008 55.3155 14.1262 58.3482L15.0987 58.1156ZM46.1321 80.8064H45.1321C45.1321 82.6231 43.5882 83.9034 41.9934 83.5395L41.7709 84.5144L41.5485 85.4894C44.5687 86.1786 47.1321 83.7232 47.1321 80.8064H46.1321ZM46.1321 57.7213H47.1321C47.1321 54.9599 44.8935 52.7213 42.1321 52.7213V53.7213V54.7213C43.7889 54.7213 45.1321 56.0645 45.1321 57.7213H46.1321Z" fill="black" mask="url(#path-7-outside-3_37_34)"/>
</g>
<defs>
<filter id="filter0_n_37_34" x="15.0002" y="15.0005" width="69.4491" height="69.603" filterUnits="userSpaceOnUse" color-interpolation-filters="sRGB">
<feFlood flood-opacity="0" result="BackgroundImageFix"/>
<feBlend mode="normal" in="SourceGraphic" in2="BackgroundImageFix" result="shape"/>
<feTurbulence type="fractalNoise" baseFrequency="0.0476190485060215 0.0476190485060215" stitchTiles="stitch" numOctaves="3" result="noise" seed="3319" />
<feColorMatrix in="noise" type="luminanceToAlpha" result="alphaNoise" />
<feComponentTransfer in="alphaNoise" result="coloredNoise1">
<feFuncA type="discrete" tableValues="1 1 1 1 1 1 1 1 1 1 1 1 1 1 1 1 1 1 1 1 1 1 1 1 1 1 1 1 1 1 1 1 1 1 1 1 1 1 1 1 1 1 1 1 1 1 1 1 1 1 1 0 0 0 0 0 0 0 0 0 0 0 0 0 0 0 0 0 0 0 0 0 0 0 0 0 0 0 0 0 0 0 0 0 0 0 0 0 0 0 0 0 0 0 0 0 0 0 0 0 "/>
</feComponentTransfer>
<feComposite operator="in" in2="shape" in="coloredNoise1" result="noise1Clipped" />
<feFlood flood-color="rgba(255, 255, 255, 0.1)" result="color1Flood" />
<feComposite operator="in" in2="noise1Clipped" in="color1Flood" result="color1" />
<feMerge result="effect1_noise_37_34">
<feMergeNode in="shape" />
<feMergeNode in="color1" />
</feMerge>
</filter>
<clipPath id="clip0_37_34">
<rect width="100" height="100" fill="white"/>
</clipPath>
</defs>
</svg>
