<svg width="100" height="100" viewBox="0 0 100 100" fill="none" xmlns="http://www.w3.org/2000/svg">
<g clip-path="url(#clip0_37_31)">
<rect x="0.5" y="0.5" width="99" height="99" rx="8.5" fill="#515253" stroke="black"/>
<rect x="6.5" y="6.5" width="87" height="87" rx="2.5" fill="#515253" stroke="black"/>
<path d="M54.8779 63.0674C55.7442 63.0579 56.5394 63.4996 56.9639 64.208L61.9258 72.4883C62.3488 73.1943 62.3437 74.0631 61.9121 74.7646L56.6807 83.2686C56.2623 83.9484 55.4997 84.3775 54.6631 84.3867L44.4043 84.5C43.5381 84.5096 42.7429 84.0677 42.3184 83.3594L37.3564 75.0781C36.9335 74.3722 36.9386 73.5042 37.3701 72.8027L42.6016 64.2988C43.0199 63.6188 43.7825 63.1899 44.6191 63.1807L54.8779 63.0674ZM33.335 51.9971C34.2013 51.9875 34.9964 52.4292 35.4209 53.1377L40.3828 61.418C40.8059 62.124 40.8007 62.9928 40.3691 63.6943L35.1387 72.1982C34.7203 72.8782 33.9568 73.3072 33.1201 73.3164L22.8613 73.4297C21.9951 73.4391 21.1999 72.9975 20.7754 72.2891L15.8135 64.0078C15.3907 63.3019 15.3958 62.4338 15.8271 61.7324L21.0586 53.2285C21.4769 52.5485 22.2395 52.1196 23.0762 52.1104L33.335 51.9971ZM77.1387 51.9971C78.0049 51.9876 78.8001 52.4293 79.2246 53.1377L84.1865 61.418C84.6096 62.124 84.6044 62.9928 84.1729 63.6943L78.9414 72.1982C78.5231 72.8781 77.7604 73.3071 76.9238 73.3164L66.665 73.4297C65.7988 73.4393 65.0037 72.9974 64.5791 72.2891L59.6172 64.0078C59.1942 63.3018 59.1993 62.4339 59.6309 61.7324L64.8613 53.2285C65.2797 52.5485 66.0432 52.1196 66.8799 52.1104L77.1387 51.9971ZM33.335 27.7803C34.2012 27.7707 34.9963 28.2125 35.4209 28.9209L40.3828 37.2021C40.8058 37.9082 40.8007 38.776 40.3691 39.4775L35.1387 47.9814C34.7203 48.6615 33.9568 49.0904 33.1201 49.0996L22.8613 49.2129C21.9951 49.2224 21.1999 48.7807 20.7754 48.0723L15.8135 39.792C15.3904 39.086 15.3956 38.2171 15.8271 37.5156L21.0586 29.0117C21.4769 28.3318 22.2396 27.9028 23.0762 27.8936L33.335 27.7803ZM77.1387 27.7803C78.0049 27.7708 78.8001 28.2125 79.2246 28.9209L84.1865 37.2021C84.6093 37.908 84.6042 38.7762 84.1729 39.4775L78.9414 47.9814C78.5231 48.6614 77.7605 49.0903 76.9238 49.0996L66.665 49.2129C65.7987 49.2225 65.0036 48.7808 64.5791 48.0723L59.6172 39.792C59.1941 39.086 59.1993 38.2171 59.6309 37.5156L64.8613 29.0117C65.2797 28.3317 66.0432 27.9028 66.8799 27.8936L77.1387 27.7803ZM55.2363 15.5C56.1027 15.4904 56.8987 15.9321 57.3232 16.6406L62.2852 24.9219C62.7079 25.6277 62.7027 26.4959 62.2715 27.1973L57.04 35.7012C56.6218 36.3811 55.859 36.81 55.0225 36.8193L44.7637 36.9326C43.8973 36.9422 43.1013 36.5005 42.6768 35.792L37.7148 27.5117C37.2918 26.8057 37.297 25.9368 37.7285 25.2354L42.96 16.7314C43.3783 16.0516 44.141 15.6226 44.9775 15.6133L55.2363 15.5Z" fill="#38AEF7" stroke="#1A86E9"/>
<path d="M54.8672 62.0674C56.0763 62.0542 57.2079 62.67 57.8213 63.6934L62.7832 71.9746C63.3981 73.0008 63.3905 74.269 62.7637 75.2881L57.5322 83.792C56.928 84.7741 55.8424 85.3738 54.6738 85.3867L44.415 85.5C43.2056 85.5133 42.0734 84.8967 41.46 83.873L36.498 75.5928C35.8831 74.5666 35.8916 73.2975 36.5186 72.2783L41.749 63.7744C42.3532 62.7924 43.439 62.1937 44.6074 62.1807L54.8672 62.0674ZM33.3242 50.9971C34.5336 50.9837 35.6659 51.5994 36.2793 52.623L41.2412 60.9043C41.8559 61.9303 41.8484 63.1988 41.2217 64.2178L35.9902 72.7217C35.3861 73.7038 34.3003 74.3034 33.1318 74.3164L22.873 74.4297C21.6636 74.4431 20.5314 73.8265 19.918 72.8027L14.9561 64.5225C14.3411 63.4962 14.3486 62.2271 14.9756 61.208L20.207 52.7041C20.8113 51.7221 21.897 51.1233 23.0654 51.1104L33.3242 50.9971ZM77.127 50.9971C78.3363 50.9837 79.4686 51.5995 80.082 52.623L85.0439 60.9043C85.6588 61.9304 85.6512 63.1987 85.0244 64.2178L79.793 72.7217C79.1888 73.7038 78.1031 74.3035 76.9346 74.3164L66.6758 74.4297C65.4663 74.4431 64.3341 73.8265 63.7207 72.8027L58.7588 64.5225C58.1439 63.4963 58.1514 62.2271 58.7783 61.208L64.0098 52.7041C64.6139 51.722 65.6997 51.1233 66.8682 51.1104L77.127 50.9971ZM33.3242 26.7803C34.5337 26.7669 35.6659 27.3835 36.2793 28.4072L41.2412 36.6875C41.8561 37.7137 41.8486 38.9828 41.2217 40.002L35.9902 48.5059C35.3861 49.4879 34.3003 50.0866 33.1318 50.0996L22.873 50.2129C21.6637 50.2263 20.5314 49.6105 19.918 48.5869L14.9561 40.3057C14.3412 39.2795 14.3488 38.0113 14.9756 36.9922L20.207 28.4883C20.8112 27.5061 21.8969 26.9065 23.0654 26.8936L33.3242 26.7803ZM77.127 26.7803C78.3364 26.7669 79.4686 27.3835 80.082 28.4072L85.0439 36.6875C85.6589 37.7137 85.6514 38.9828 85.0244 40.002L79.793 48.5059C79.1887 49.4879 78.103 50.0867 76.9346 50.0996L66.6758 50.2129C65.4664 50.2263 64.3342 49.6106 63.7207 48.5869L58.7588 40.3057C58.1441 39.2796 58.1517 38.0112 58.7783 36.9922L64.0098 28.4883C64.6139 27.5062 65.6997 26.9065 66.8682 26.8936L77.127 26.7803ZM55.2256 14.5C56.435 14.4866 57.5672 15.1032 58.1807 16.127L63.1426 24.4072C63.7575 25.4334 63.75 26.7025 63.123 27.7217L57.8916 36.2256C57.2874 37.2077 56.2017 37.8064 55.0332 37.8193L44.7744 37.9326C43.565 37.946 42.4328 37.3303 41.8193 36.3066L36.8574 28.0254C36.2427 26.9993 36.2502 25.731 36.877 24.7119L42.1084 16.208C42.7126 15.2259 43.7983 14.6262 44.9668 14.6133L55.2256 14.5Z" stroke="black"/>
<g filter="url(#filter0_n_37_31)">
<path d="M42.5344 16.4698C43.0457 15.6387 43.9697 15.1246 44.9723 15.1136L55.2313 15.0002C56.2692 14.9887 57.2328 15.5177 57.7517 16.3838L62.7136 24.6646C63.2326 25.5307 63.2263 26.5993 62.697 27.4596L57.4656 35.9634C56.9543 36.7945 56.0303 37.3085 55.0277 37.3196L44.7687 37.433C43.7308 37.4444 42.7672 36.9155 42.2483 36.0494L37.2864 27.7686C36.7674 26.9024 36.7737 25.8339 37.303 24.9736L42.5344 16.4698Z" fill="#38AEF7"/>
<path d="M42.1753 64.0366C42.6866 63.2055 43.6107 62.6915 44.6133 62.6804L54.8722 62.567C55.9101 62.5556 56.8737 63.0845 57.3927 63.9506L62.3546 72.2314C62.8736 73.0976 62.8672 74.1661 62.338 75.0264L57.1066 83.5302C56.5953 84.3613 55.6712 84.8754 54.6686 84.8864L44.4097 84.9998C43.3718 85.0113 42.4082 84.4823 41.8892 83.6162L36.9273 75.3354C36.4083 74.4693 36.4147 73.4007 36.944 72.5404L42.1753 64.0366Z" fill="#38AEF7"/>
<path d="M20.6328 28.75C21.1441 27.9189 22.0682 27.4049 23.0708 27.3938L33.3297 27.2804C34.3676 27.2689 35.3312 27.7979 35.8502 28.664L40.8121 36.9448C41.3311 37.8109 41.3247 38.8795 40.7955 39.7398L35.5641 48.2436C35.0528 49.0747 34.1287 49.5887 33.1261 49.5998L22.8672 49.7132C21.8293 49.7247 20.8657 49.1957 20.3467 48.3296L15.3848 40.0488C14.8658 39.1827 14.8722 38.1141 15.4015 37.2538L20.6328 28.75Z" fill="#38AEF7"/>
<path d="M64.4359 28.75C64.9472 27.9189 65.8713 27.4049 66.8739 27.3938L77.1328 27.2804C78.1707 27.2689 79.1343 27.7979 79.6533 28.664L84.6152 36.9448C85.1342 37.8109 85.1278 38.8795 84.5985 39.7398L79.3671 48.2436C78.8559 49.0747 77.9318 49.5887 76.9292 49.5998L66.6703 49.7132C65.6324 49.7247 64.6688 49.1957 64.1498 48.3296L59.1879 40.0488C58.6689 39.1827 58.6753 38.1141 59.2045 37.2538L64.4359 28.75Z" fill="#38AEF7"/>
<path d="M64.4359 52.9663C64.9472 52.1352 65.8713 51.6212 66.8739 51.6101L77.1328 51.4967C78.1707 51.4852 79.1343 52.0142 79.6533 52.8803L84.6152 61.1611C85.1342 62.0272 85.1278 63.0958 84.5985 63.9561L79.3671 72.4599C78.8559 73.291 77.9318 73.805 76.9292 73.8161L66.6703 73.9295C65.6324 73.941 64.6688 73.412 64.1498 72.5459L59.1879 64.2651C58.6689 63.399 58.6753 62.3304 59.2045 61.4701L64.4359 52.9663Z" fill="#38AEF7"/>
<path d="M20.6328 52.9663C21.1441 52.1352 22.0682 51.6212 23.0708 51.6101L33.3297 51.4967C34.3676 51.4852 35.3312 52.0142 35.8502 52.8803L40.8121 61.1611C41.3311 62.0272 41.3247 63.0958 40.7955 63.9561L35.5641 72.4599C35.0528 73.291 34.1287 73.805 33.1261 73.8161L22.8672 73.9295C21.8293 73.941 20.8657 73.412 20.3467 72.5459L15.3848 64.2651C14.8658 63.399 14.8722 62.3304 15.4015 61.4701L20.6328 52.9663Z" fill="#38AEF7"/>
<path d="M54.8779 63.0674C55.7442 63.0579 56.5394 63.4996 56.9639 64.208L61.9258 72.4883C62.3488 73.1943 62.3437 74.0631 61.9121 74.7646L56.6807 83.2686C56.2623 83.9484 55.4997 84.3775 54.6631 84.3867L44.4043 84.5C43.5381 84.5096 42.7429 84.0677 42.3184 83.3594L37.3564 75.0781C36.9335 74.3722 36.9386 73.5042 37.3701 72.8027L42.6016 64.2988C43.0199 63.6188 43.7825 63.1899 44.6191 63.1807L54.8779 63.0674ZM33.335 51.9971C34.2013 51.9875 34.9964 52.4292 35.4209 53.1377L40.3828 61.418C40.8059 62.124 40.8007 62.9928 40.3691 63.6943L35.1387 72.1982C34.7203 72.8782 33.9568 73.3072 33.1201 73.3164L22.8613 73.4297C21.9951 73.4391 21.1999 72.9975 20.7754 72.2891L15.8135 64.0078C15.3907 63.3019 15.3958 62.4338 15.8271 61.7324L21.0586 53.2285C21.4769 52.5485 22.2395 52.1196 23.0762 52.1104L33.335 51.9971ZM77.1387 51.9971C78.0049 51.9876 78.8001 52.4293 79.2246 53.1377L84.1865 61.418C84.6096 62.124 84.6044 62.9928 84.1729 63.6943L78.9414 72.1982C78.5231 72.8781 77.7604 73.3071 76.9238 73.3164L66.665 73.4297C65.7988 73.4393 65.0037 72.9974 64.5791 72.2891L59.6172 64.0078C59.1942 63.3018 59.1993 62.4339 59.6309 61.7324L64.8613 53.2285C65.2797 52.5485 66.0432 52.1196 66.8799 52.1104L77.1387 51.9971ZM33.335 27.7803C34.2012 27.7707 34.9963 28.2125 35.4209 28.9209L40.3828 37.2021C40.8058 37.9082 40.8007 38.776 40.3691 39.4775L35.1387 47.9814C34.7203 48.6615 33.9568 49.0904 33.1201 49.0996L22.8613 49.2129C21.9951 49.2224 21.1999 48.7807 20.7754 48.0723L15.8135 39.792C15.3904 39.086 15.3956 38.2171 15.8271 37.5156L21.0586 29.0117C21.4769 28.3318 22.2396 27.9028 23.0762 27.8936L33.335 27.7803ZM77.1387 27.7803C78.0049 27.7708 78.8001 28.2125 79.2246 28.9209L84.1865 37.2021C84.6093 37.908 84.6042 38.7762 84.1729 39.4775L78.9414 47.9814C78.5231 48.6614 77.7605 49.0903 76.9238 49.0996L66.665 49.2129C65.7987 49.2225 65.0036 48.7808 64.5791 48.0723L59.6172 39.792C59.1941 39.086 59.1993 38.2171 59.6309 37.5156L64.8613 29.0117C65.2797 28.3317 66.0432 27.9028 66.8799 27.8936L77.1387 27.7803ZM55.2363 15.5C56.1027 15.4904 56.8987 15.9321 57.3232 16.6406L62.2852 24.9219C62.7079 25.6277 62.7027 26.4959 62.2715 27.1973L57.04 35.7012C56.6218 36.3811 55.859 36.81 55.0225 36.8193L44.7637 36.9326C43.8973 36.9422 43.1013 36.5005 42.6768 35.792L37.7148 27.5117C37.2918 26.8057 37.297 25.9368 37.7285 25.2354L42.96 16.7314C43.3783 16.0516 44.141 15.6226 44.9775 15.6133L55.2363 15.5Z" stroke="#1A86E9"/>
</g>
</g>
<defs>
<filter id="filter0_n_37_31" x="15" y="15" width="70" height="70" filterUnits="userSpaceOnUse" color-interpolation-filters="sRGB">
<feFlood flood-opacity="0" result="BackgroundImageFix"/>
<feBlend mode="normal" in="SourceGraphic" in2="BackgroundImageFix" result="shape"/>
<feTurbulence type="fractalNoise" baseFrequency="0.0476190485060215 0.0476190485060215" stitchTiles="stitch" numOctaves="3" result="noise" seed="8735" />
<feColorMatrix in="noise" type="luminanceToAlpha" result="alphaNoise" />
<feComponentTransfer in="alphaNoise" result="coloredNoise1">
<feFuncA type="discrete" tableValues="1 1 1 1 1 1 1 1 1 1 1 1 1 1 1 1 1 1 1 1 1 1 1 1 1 1 1 1 1 1 1 1 1 1 1 1 1 1 1 1 1 1 1 1 1 1 1 1 1 1 1 0 0 0 0 0 0 0 0 0 0 0 0 0 0 0 0 0 0 0 0 0 0 0 0 0 0 0 0 0 0 0 0 0 0 0 0 0 0 0 0 0 0 0 0 0 0 0 0 0 "/>
</feComponentTransfer>
<feComposite operator="in" in2="shape" in="coloredNoise1" result="noise1Clipped" />
<feFlood flood-color="rgba(255, 255, 255, 0.1)" result="color1Flood" />
<feComposite operator="in" in2="noise1Clipped" in="color1Flood" result="color1" />
<feMerge result="effect1_noise_37_31">
<feMergeNode in="shape" />
<feMergeNode in="color1" />
</feMerge>
</filter>
<clipPath id="clip0_37_31">
<rect width="100" height="100" fill="white"/>
</clipPath>
</defs>
</svg>
